{
	"asset":{
		"generator":"Khronos glTF Blender I/O v4.3.47",
		"version":"2.0"
	},
	"extensionsUsed":[
		"KHR_materials_specular"
	],
	"scene":0,
	"scenes":[
		{
			"extras":{
				"bc":{
					"snap":{
						"hit":false,
						"type":"",
						"location":[
							0.0,
							0.0,
							0.0
						],
						"normal":[
							0.0,
							0.0,
							0.0
						],
						"display":0
					},
					"running":0,
					"collection":null,
					"shape":null,
					"original_active":null,
					"last":{
						"surface":"VIEW"
					},
					"plane":null,
					"lattice":null,
					"empty":null,
					"location":[
						0.0,
						0.0,
						0.0
					],
					"slice":null,
					"inset":null,
					"bevel":null,
					"wedge_point":1,
					"stored_shape":{},
					"recall_collection":{},
					"start_operation":0,
					"mirror_axis":[
						1,
						1,
						0
					],
					"mirror_axis_flip":[
						0,
						0,
						0
					],
					"snap_type":"",
					"wedge_slim":1
				},
				"hops":{
					"collection":null
				},
				"GodotPipelineProps":{
					"mesh_data":0,
					"export_UI":1,
					"save_path":"//..\\..\\..\\..\\source\\repos\\Main_Game\\AstromortisRenderer\\Building Models\\Mine\\Mine_.gltf",
					"counter":50
				}
			},
			"name":"Scene",
			"nodes":[
				0,
				1,
				2
			]
		}
	],
	"nodes":[
		{
			"extras":{
				"hops":{
					"last_array_axis":1
				},
				"bc":{}
			},
			"mesh":0,
			"name":"Mine_Dach",
			"rotation":[
				0,
				0.9999725222587585,
				0.007411487866193056,
				2.8383033168211114e-06
			],
			"scale":[
				1.794561743736267,
				1.794561743736267,
				1.794561743736267
			],
			"translation":[
				0,
				-0.24468575417995453,
				0
			]
		},
		{
			"extras":{
				"hops":{
					"last_array_axis":1
				},
				"bc":{}
			},
			"mesh":1,
			"name":"Mine",
			"rotation":[
				0,
				2.8848726287833415e-06,
				0,
				1
			],
			"scale":[
				1.794561743736267,
				1.794561743736267,
				1.794561743736267
			],
			"translation":[
				0,
				-0.002427279483526945,
				0
			]
		},
		{
			"extras":{
				"hops":{
					"last_array_axis":1
				},
				"bc":{}
			},
			"mesh":2,
			"name":"Bohrer",
			"rotation":[
				0,
				0.9999725222587585,
				0.007411487866193056,
				2.8383033168211114e-06
			],
			"scale":[
				1.794561743736267,
				1.794561743736267,
				1.794561743736267
			],
			"translation":[
				0,
				-0.18727999925613403,
				0
			]
		}
	],
	"animations":[
		{
			"channels":[
				{
					"sampler":0,
					"target":{
						"node":0,
						"path":"translation"
					}
				},
				{
					"sampler":1,
					"target":{
						"node":0,
						"path":"rotation"
					}
				},
				{
					"sampler":2,
					"target":{
						"node":0,
						"path":"scale"
					}
				}
			],
			"name":"Mine_Dach_Anim",
			"samplers":[
				{
					"input":20,
					"interpolation":"LINEAR",
					"output":21
				},
				{
					"input":22,
					"interpolation":"STEP",
					"output":23
				},
				{
					"input":22,
					"interpolation":"STEP",
					"output":24
				}
			]
		},
		{
			"channels":[
				{
					"sampler":0,
					"target":{
						"node":2,
						"path":"translation"
					}
				},
				{
					"sampler":1,
					"target":{
						"node":2,
						"path":"rotation"
					}
				},
				{
					"sampler":2,
					"target":{
						"node":2,
						"path":"scale"
					}
				}
			],
			"name":"Mine_Bohrer_Anim",
			"samplers":[
				{
					"input":25,
					"interpolation":"LINEAR",
					"output":26
				},
				{
					"input":25,
					"interpolation":"LINEAR",
					"output":27
				},
				{
					"input":28,
					"interpolation":"STEP",
					"output":29
				}
			]
		}
	],
	"materials":[
		{
			"doubleSided":true,
			"extensions":{
				"KHR_materials_specular":{
					"specularColorFactor":[
						1.063636302947998,
						1.063636302947998,
						1.063636302947998
					]
				}
			},
			"name":"Main_Bronze_M",
			"normalTexture":{
				"index":0,
				"scale":0.20000000298023224
			},
			"pbrMetallicRoughness":{
				"baseColorTexture":{
					"index":1
				},
				"metallicRoughnessTexture":{
					"index":2
				}
			}
		},
		{
			"doubleSided":true,
			"name":"Main_Metal_M",
			"normalTexture":{
				"index":3,
				"scale":0.20000000298023224
			},
			"pbrMetallicRoughness":{
				"baseColorTexture":{
					"index":4
				},
				"metallicRoughnessTexture":{
					"index":5
				}
			}
		}
	],
	"meshes":[
		{
			"extras":{
				"hops":{},
				"use_auto_smooth":1,
				"auto_smooth_angle":1.0471975803375244,
				"bc":{}
			},
			"name":"Mine_Dach",
			"primitives":[
				{
					"attributes":{
						"POSITION":0,
						"NORMAL":1,
						"TEXCOORD_0":2
					},
					"indices":3,
					"material":0
				},
				{
					"attributes":{
						"POSITION":4,
						"NORMAL":5,
						"TEXCOORD_0":6
					},
					"indices":7,
					"material":1
				}
			]
		},
		{
			"extras":{
				"hops":{},
				"use_auto_smooth":1,
				"auto_smooth_angle":1.0471975803375244,
				"bc":{}
			},
			"name":"Mine",
			"primitives":[
				{
					"attributes":{
						"POSITION":8,
						"NORMAL":9,
						"TEXCOORD_0":10
					},
					"indices":11,
					"material":0
				},
				{
					"attributes":{
						"POSITION":12,
						"NORMAL":13,
						"TEXCOORD_0":14
					},
					"indices":15,
					"material":1
				}
			]
		},
		{
			"extras":{
				"hops":{},
				"use_auto_smooth":1,
				"auto_smooth_angle":1.0471975803375244,
				"bc":{}
			},
			"name":"Bohrer",
			"primitives":[
				{
					"attributes":{
						"POSITION":16,
						"NORMAL":17,
						"TEXCOORD_0":18
					},
					"indices":19,
					"material":1
				}
			]
		}
	],
	"textures":[
		{
			"sampler":0,
			"source":0
		},
		{
			"sampler":0,
			"source":1
		},
		{
			"sampler":0,
			"source":2
		},
		{
			"sampler":0,
			"source":3
		},
		{
			"sampler":0,
			"source":4
		},
		{
			"sampler":0,
			"source":5
		}
	],
	"images":[
		{
			"mimeType":"image/png",
			"name":"Bronze_M_packed_normal_roughness",
			"uri":"Bronze_M_packed_normal_roughness.png"
		},
		{
			"mimeType":"image/jpeg",
			"name":"Main_Bronze2_Metal_Plates_M_Color_1k",
			"uri":"Main_Bronze2_Metal_Plates_M_Color_1k.jpg"
		},
		{
			"mimeType":"image/png",
			"name":"Main_Bronze_Metal_Plates_M_Roughness_1k",
			"uri":"Main_Bronze_Metal_Plates_M_Roughness_1k.png"
		},
		{
			"mimeType":"image/jpeg",
			"name":"Main_Bronze_Metal_Plates_M_Normal_1k",
			"uri":"Main_Bronze_Metal_Plates_M_Normal_1k.jpg"
		},
		{
			"mimeType":"image/jpeg",
			"name":"Main_Metal2_Metal_Plates_M_Color1k",
			"uri":"Main_Metal2_Metal_Plates_M_Color1k.jpg"
		},
		{
			"mimeType":"image/png",
			"name":"Main_Bronze_Metal_Plates_M_metalness_1k.png-Main_Bronze_Metal_Plates_M_Roughness_1k.jpg",
			"uri":"Main_Bronze_Metal_Plates_M_metalness_1k_png-Main_Bronze_Metal_Plates_M_Roughness_1k_jpg.png"
		}
	],
	"accessors":[
		{
			"bufferView":0,
			"componentType":5126,
			"count":6901,
			"max":[
				1.131618618965149,
				3.2133374214172363,
				1.9732427597045898
			],
			"min":[
				-1.1322401762008667,
				1.988029956817627,
				-1.9219779968261719
			],
			"type":"VEC3"
		},
		{
			"bufferView":1,
			"componentType":5126,
			"count":6901,
			"type":"VEC3"
		},
		{
			"bufferView":2,
			"componentType":5126,
			"count":6901,
			"type":"VEC2"
		},
		{
			"bufferView":3,
			"componentType":5123,
			"count":14670,
			"type":"SCALAR"
		},
		{
			"bufferView":4,
			"componentType":5126,
			"count":4347,
			"max":[
				1.079464077949524,
				3.1483490467071533,
				1.2506358623504639
			],
			"min":[
				-1.0800856351852417,
				2.077274799346924,
				-1.1836977005004883
			],
			"type":"VEC3"
		},
		{
			"bufferView":5,
			"componentType":5126,
			"count":4347,
			"type":"VEC3"
		},
		{
			"bufferView":6,
			"componentType":5126,
			"count":4347,
			"type":"VEC2"
		},
		{
			"bufferView":7,
			"componentType":5123,
			"count":7968,
			"type":"SCALAR"
		},
		{
			"bufferView":8,
			"componentType":5126,
			"count":7313,
			"max":[
				4.653383255004883,
				2.615304470062256,
				5.47196626663208
			],
			"min":[
				-4.653374195098877,
				-0.15159647166728973,
				-5.471958637237549
			],
			"type":"VEC3"
		},
		{
			"bufferView":9,
			"componentType":5126,
			"count":7313,
			"type":"VEC3"
		},
		{
			"bufferView":10,
			"componentType":5126,
			"count":7313,
			"type":"VEC2"
		},
		{
			"bufferView":11,
			"componentType":5123,
			"count":17091,
			"type":"SCALAR"
		},
		{
			"bufferView":12,
			"componentType":5126,
			"count":3625,
			"max":[
				4.652996063232422,
				2.291795253753662,
				5.290401935577393
			],
			"min":[
				-4.653008460998535,
				0.0027920331340283155,
				-5.2903947830200195
			],
			"type":"VEC3"
		},
		{
			"bufferView":13,
			"componentType":5126,
			"count":3625,
			"type":"VEC3"
		},
		{
			"bufferView":14,
			"componentType":5126,
			"count":3625,
			"type":"VEC2"
		},
		{
			"bufferView":15,
			"componentType":5123,
			"count":8991,
			"type":"SCALAR"
		},
		{
			"bufferView":16,
			"componentType":5126,
			"count":6184,
			"max":[
				0.41203510761260986,
				3.086207389831543,
				0.4382020831108093
			],
			"min":[
				-0.411816269159317,
				-0.016208797693252563,
				-0.39113596081733704
			],
			"type":"VEC3"
		},
		{
			"bufferView":17,
			"componentType":5126,
			"count":6184,
			"type":"VEC3"
		},
		{
			"bufferView":18,
			"componentType":5126,
			"count":6184,
			"type":"VEC2"
		},
		{
			"bufferView":19,
			"componentType":5123,
			"count":9498,
			"type":"SCALAR"
		},
		{
			"bufferView":20,
			"componentType":5126,
			"count":100,
			"max":[
				4.166666666666667
			],
			"min":[
				0.041666666666666664
			],
			"type":"SCALAR"
		},
		{
			"bufferView":21,
			"componentType":5126,
			"count":100,
			"type":"VEC3"
		},
		{
			"bufferView":22,
			"componentType":5126,
			"count":2,
			"max":[
				4.166666666666667
			],
			"min":[
				0.041666666666666664
			],
			"type":"SCALAR"
		},
		{
			"bufferView":23,
			"componentType":5126,
			"count":2,
			"type":"VEC4"
		},
		{
			"bufferView":24,
			"componentType":5126,
			"count":2,
			"type":"VEC3"
		},
		{
			"bufferView":25,
			"componentType":5126,
			"count":200,
			"max":[
				8.333333333333334
			],
			"min":[
				0.041666666666666664
			],
			"type":"SCALAR"
		},
		{
			"bufferView":26,
			"componentType":5126,
			"count":200,
			"type":"VEC3"
		},
		{
			"bufferView":27,
			"componentType":5126,
			"count":200,
			"type":"VEC4"
		},
		{
			"bufferView":28,
			"componentType":5126,
			"count":2,
			"max":[
				8.333333333333334
			],
			"min":[
				0.041666666666666664
			],
			"type":"SCALAR"
		},
		{
			"bufferView":29,
			"componentType":5126,
			"count":2,
			"type":"VEC3"
		}
	],
	"bufferViews":[
		{
			"buffer":0,
			"byteLength":82812,
			"byteOffset":0,
			"target":34962
		},
		{
			"buffer":0,
			"byteLength":82812,
			"byteOffset":82812,
			"target":34962
		},
		{
			"buffer":0,
			"byteLength":55208,
			"byteOffset":165624,
			"target":34962
		},
		{
			"buffer":0,
			"byteLength":29340,
			"byteOffset":220832,
			"target":34963
		},
		{
			"buffer":0,
			"byteLength":52164,
			"byteOffset":250172,
			"target":34962
		},
		{
			"buffer":0,
			"byteLength":52164,
			"byteOffset":302336,
			"target":34962
		},
		{
			"buffer":0,
			"byteLength":34776,
			"byteOffset":354500,
			"target":34962
		},
		{
			"buffer":0,
			"byteLength":15936,
			"byteOffset":389276,
			"target":34963
		},
		{
			"buffer":0,
			"byteLength":87756,
			"byteOffset":405212,
			"target":34962
		},
		{
			"buffer":0,
			"byteLength":87756,
			"byteOffset":492968,
			"target":34962
		},
		{
			"buffer":0,
			"byteLength":58504,
			"byteOffset":580724,
			"target":34962
		},
		{
			"buffer":0,
			"byteLength":34182,
			"byteOffset":639228,
			"target":34963
		},
		{
			"buffer":0,
			"byteLength":43500,
			"byteOffset":673412,
			"target":34962
		},
		{
			"buffer":0,
			"byteLength":43500,
			"byteOffset":716912,
			"target":34962
		},
		{
			"buffer":0,
			"byteLength":29000,
			"byteOffset":760412,
			"target":34962
		},
		{
			"buffer":0,
			"byteLength":17982,
			"byteOffset":789412,
			"target":34963
		},
		{
			"buffer":0,
			"byteLength":74208,
			"byteOffset":807396,
			"target":34962
		},
		{
			"buffer":0,
			"byteLength":74208,
			"byteOffset":881604,
			"target":34962
		},
		{
			"buffer":0,
			"byteLength":49472,
			"byteOffset":955812,
			"target":34962
		},
		{
			"buffer":0,
			"byteLength":18996,
			"byteOffset":1005284,
			"target":34963
		},
		{
			"buffer":0,
			"byteLength":400,
			"byteOffset":1024280
		},
		{
			"buffer":0,
			"byteLength":1200,
			"byteOffset":1024680
		},
		{
			"buffer":0,
			"byteLength":8,
			"byteOffset":1025880
		},
		{
			"buffer":0,
			"byteLength":32,
			"byteOffset":1025888
		},
		{
			"buffer":0,
			"byteLength":24,
			"byteOffset":1025920
		},
		{
			"buffer":0,
			"byteLength":800,
			"byteOffset":1025944
		},
		{
			"buffer":0,
			"byteLength":2400,
			"byteOffset":1026744
		},
		{
			"buffer":0,
			"byteLength":3200,
			"byteOffset":1029144
		},
		{
			"buffer":0,
			"byteLength":8,
			"byteOffset":1032344
		},
		{
			"buffer":0,
			"byteLength":24,
			"byteOffset":1032352
		}
	],
	"samplers":[
		{
			"magFilter":9729,
			"minFilter":9987
		}
	],
	"buffers":[
		{
			"byteLength":1032376,
			"uri":"Mine_.bin"
		}
	]
}
