{
	"asset":{
		"generator":"Khronos glTF Blender I/O v4.3.47",
		"version":"2.0"
	},
	"extensionsUsed":[
		"KHR_texture_transform"
	],
	"extensionsRequired":[
		"KHR_texture_transform"
	],
	"scene":0,
	"scenes":[
		{
			"extras":{
				"bc":{
					"snap":{
						"hit":false,
						"type":"",
						"location":[
							0.0,
							0.0,
							0.0
						],
						"normal":[
							0.3221392035484314,
							0.9462804794311523,
							0.027921151369810104
						],
						"display":0
					},
					"running":0,
					"collection":null,
					"shape":null,
					"original_active":null,
					"last":{
						"surface":"VIEW"
					},
					"plane":null,
					"lattice":null,
					"empty":null,
					"location":[
						0.0,
						0.0,
						0.0
					],
					"slice":null,
					"inset":null,
					"bevel":null,
					"wedge_point":3,
					"stored_shape":{},
					"recall_collection":{},
					"start_operation":0,
					"mirror_axis":[
						1,
						1,
						0
					],
					"mirror_axis_flip":[
						0,
						0,
						0
					],
					"snap_type":"",
					"wedge_slim":1
				},
				"hops":{
					"collection":null
				},
				"GodotPipelineProps":{
					"mesh_data":0,
					"export_UI":1,
					"save_path":"//..\\..\\..\\..\\source\\repos\\Main_Game\\AstromortisRenderer\\Building Models\\Dronehub\\Dronehub.gltf",
					"counter":28
				}
			},
			"name":"Scene",
			"nodes":[
				0,
				1,
				2
			]
		}
	],
	"nodes":[
		{
			"extras":{
				"hops":{}
			},
			"mesh":0,
			"name":"Dronehub_Main",
			"translation":[
				0,
				-3.243738319724798e-06,
				0.0010578632354736328
			]
		},
		{
			"extras":{
				"hops":{}
			},
			"mesh":1,
			"name":"Dronehub_Luke",
			"translation":[
				-1.6000003814697266,
				0.02568131685256958,
				-1.5
			]
		},
		{
			"extras":{
				"hops":{}
			},
			"mesh":2,
			"name":"Dronehub_Sat",
			"translation":[
				5.397362232208252,
				10.069419860839844,
				5.5110578536987305
			]
		}
	],
	"materials":[
		{
			"doubleSided":true,
			"name":"Dronehub_Towerglas_M",
			"pbrMetallicRoughness":{
				"baseColorFactor":[
					0.8003311157226562,
					0.28258293867111206,
					0.01233439240604639,
					1
				],
				"metallicFactor":0.9285714030265808,
				"roughnessFactor":0.2460317313671112
			}
		},
		{
			"doubleSided":true,
			"name":"Dronehub_Tower_M2",
			"normalTexture":{
				"index":0,
				"scale":0.20000000298023224
			},
			"pbrMetallicRoughness":{
				"baseColorTexture":{
					"index":1
				},
				"metallicRoughnessTexture":{
					"index":2
				}
			}
		},
		{
			"doubleSided":true,
			"name":"Dronehub_Asphalt_M",
			"normalTexture":{
				"extensions":{
					"KHR_texture_transform":{
						"offset":[
							5,
							-4
						],
						"scale":[
							5,
							5
						]
					}
				},
				"index":3
			},
			"pbrMetallicRoughness":{
				"baseColorTexture":{
					"extensions":{
						"KHR_texture_transform":{
							"offset":[
								5,
								-4
							],
							"scale":[
								5,
								5
							]
						}
					},
					"index":4
				},
				"metallicFactor":0,
				"metallicRoughnessTexture":{
					"extensions":{
						"KHR_texture_transform":{
							"offset":[
								5,
								-4
							],
							"scale":[
								5,
								5
							]
						}
					},
					"index":5
				}
			}
		},
		{
			"doubleSided":true,
			"name":"Dronehub_Dronepark_M",
			"normalTexture":{
				"index":6,
				"scale":0.20000000298023224
			},
			"pbrMetallicRoughness":{
				"baseColorTexture":{
					"index":7
				},
				"metallicRoughnessTexture":{
					"index":8
				}
			}
		},
		{
			"alphaMode":"BLEND",
			"doubleSided":true,
			"name":"Dronehub_Grid_M1",
			"normalTexture":{
				"index":9
			},
			"pbrMetallicRoughness":{
				"baseColorTexture":{
					"index":10
				},
				"metallicRoughnessTexture":{
					"index":11
				}
			}
		},
		{
			"doubleSided":true,
			"name":"Dronehub_Tower_M",
			"normalTexture":{
				"index":12,
				"scale":0
			},
			"pbrMetallicRoughness":{
				"baseColorTexture":{
					"index":13
				},
				"metallicFactor":0.880952000617981,
				"metallicRoughnessTexture":{
					"index":14
				}
			}
		},
		{
			"doubleSided":true,
			"name":"Sat_M_1",
			"pbrMetallicRoughness":{
				"baseColorFactor":[
					0.205216646194458,
					0.2509399652481079,
					0.2509399652481079,
					1
				],
				"roughnessFactor":0.3840145468711853
			}
		}
	],
	"meshes":[
		{
			"extras":{
				"hops":{},
				"use_auto_smooth":1,
				"auto_smooth_angle":1.0471975803375244
			},
			"name":"Dronehub_Main",
			"primitives":[
				{
					"attributes":{
						"POSITION":0,
						"NORMAL":1,
						"TEXCOORD_0":2
					},
					"indices":3,
					"material":0
				},
				{
					"attributes":{
						"POSITION":4,
						"NORMAL":5,
						"TEXCOORD_0":6
					},
					"indices":7,
					"material":1
				},
				{
					"attributes":{
						"POSITION":8,
						"NORMAL":9,
						"TEXCOORD_0":10
					},
					"indices":11,
					"material":2
				},
				{
					"attributes":{
						"POSITION":12,
						"NORMAL":13,
						"TEXCOORD_0":14
					},
					"indices":15,
					"material":3
				},
				{
					"attributes":{
						"POSITION":16,
						"NORMAL":17,
						"TEXCOORD_0":18
					},
					"indices":19,
					"material":4
				}
			]
		},
		{
			"extras":{
				"hops":{},
				"use_auto_smooth":1,
				"auto_smooth_angle":1.0471975803375244
			},
			"name":"Dronehub_Luke",
			"primitives":[
				{
					"attributes":{
						"POSITION":20,
						"NORMAL":21,
						"TEXCOORD_0":22
					},
					"indices":23,
					"material":1
				},
				{
					"attributes":{
						"POSITION":24,
						"NORMAL":25,
						"TEXCOORD_0":26
					},
					"indices":27,
					"material":3
				}
			]
		},
		{
			"extras":{
				"hops":{},
				"use_auto_smooth":1,
				"auto_smooth_angle":1.0471975803375244
			},
			"name":"Dronehub_Sat",
			"primitives":[
				{
					"attributes":{
						"POSITION":28,
						"NORMAL":29,
						"TEXCOORD_0":30
					},
					"indices":31,
					"material":5
				},
				{
					"attributes":{
						"POSITION":32,
						"NORMAL":33,
						"TEXCOORD_0":34
					},
					"indices":35,
					"material":1
				},
				{
					"attributes":{
						"POSITION":36,
						"NORMAL":37,
						"TEXCOORD_0":38
					},
					"indices":39,
					"material":3
				},
				{
					"attributes":{
						"POSITION":40,
						"NORMAL":41,
						"TEXCOORD_0":42
					},
					"indices":43,
					"material":6
				}
			]
		}
	],
	"textures":[
		{
			"sampler":0,
			"source":0
		},
		{
			"sampler":0,
			"source":1
		},
		{
			"sampler":0,
			"source":2
		},
		{
			"sampler":0,
			"source":3
		},
		{
			"sampler":0,
			"source":4
		},
		{
			"sampler":0,
			"source":5
		},
		{
			"sampler":0,
			"source":0
		},
		{
			"sampler":0,
			"source":6
		},
		{
			"sampler":0,
			"source":7
		},
		{
			"sampler":0,
			"source":8
		},
		{
			"sampler":0,
			"source":9
		},
		{
			"sampler":0,
			"source":10
		},
		{
			"sampler":0,
			"source":11
		},
		{
			"sampler":0,
			"source":12
		},
		{
			"sampler":0,
			"source":13
		}
	],
	"images":[
		{
			"mimeType":"image/jpeg",
			"name":"Main_Bronze_Metal_Plates_M_Normal_1k",
			"uri":"Main_Bronze_Metal_Plates_M_Normal_1k.jpg"
		},
		{
			"mimeType":"image/jpeg",
			"name":"Main_Metal2_Metal_Plates_M_Color1k",
			"uri":"Main_Metal2_Metal_Plates_M_Color1k.jpg"
		},
		{
			"mimeType":"image/png",
			"name":"Main_Bronze_Metal_Plates_M_metalness_1k.png-Main_Bronze_Metal_Plates_M_Roughness_1k.jpg",
			"uri":"Main_Bronze_Metal_Plates_M_metalness_1k_png-Main_Bronze_Metal_Plates_M_Roughness_1k_jpg.png"
		},
		{
			"mimeType":"image/jpeg",
			"name":"Concrete033_1K-JPG_NormalGL",
			"uri":"Concrete033_1K-JPG_NormalGL.jpg"
		},
		{
			"mimeType":"image/jpeg",
			"name":"Concrete033_1K-JPG_Color",
			"uri":"Concrete033_1K-JPG_Color.jpg"
		},
		{
			"mimeType":"image/png",
			"name":"Concrete033_1K-JPG_Roughness",
			"uri":"Concrete033_1K-JPG_Roughness.png"
		},
		{
			"mimeType":"image/jpeg",
			"name":"Main_Bronze2_Metal_Plates_M_Color_1k",
			"uri":"Main_Bronze2_Metal_Plates_M_Color_1k.jpg"
		},
		{
			"mimeType":"image/png",
			"name":"Main_Bronze_Metal_Plates_M_metalness_1k-Main_Bronze_Metal_Plates_M_Roughness_1k",
			"uri":"Main_Bronze_Metal_Plates_M_metalness_1k-Main_Bronze_Metal_Plates_M_Roughness_1k.png"
		},
		{
			"mimeType":"image/png",
			"name":"MetalWalkway011_1K-PNG_NormalGL",
			"uri":"MetalWalkway011_1K-PNG_NormalGL.png"
		},
		{
			"mimeType":"image/png",
			"name":"MetalWalkway011_1K-PNG_Color.png-MetalWalkway011_1K-PNG_Opacity.png",
			"uri":"MetalWalkway011_1K-PNG_Color_png-MetalWalkway011_1K-PNG_Opacity_png.png"
		},
		{
			"mimeType":"image/png",
			"name":"MetalWalkway011_1K-PNG_Metalness.png-MetalWalkway011_1K-PNG_Roughness.png",
			"uri":"MetalWalkway011_1K-PNG_Metalness_png-MetalWalkway011_1K-PNG_Roughness_png.png"
		},
		{
			"mimeType":"image/png",
			"name":"Asphalt014_1K-PNG_NormalGL",
			"uri":"Asphalt014_1K-PNG_NormalGL.png"
		},
		{
			"mimeType":"image/png",
			"name":"Asphalt014_1K-PNG_Color",
			"uri":"Asphalt014_1K-PNG_Color.png"
		},
		{
			"mimeType":"image/png",
			"name":"Asphalt014_1K-PNG_Roughness",
			"uri":"Asphalt014_1K-PNG_Roughness.png"
		}
	],
	"accessors":[
		{
			"bufferView":0,
			"componentType":5126,
			"count":1804,
			"max":[
				10.277300834655762,
				8.395427703857422,
				10.179415702819824
			],
			"min":[
				-2.8074564933776855,
				1.3941715955734253,
				-0.5040340423583984
			],
			"type":"VEC3"
		},
		{
			"bufferView":1,
			"componentType":5126,
			"count":1804,
			"type":"VEC3"
		},
		{
			"bufferView":2,
			"componentType":5126,
			"count":1804,
			"type":"VEC2"
		},
		{
			"bufferView":3,
			"componentType":5123,
			"count":4788,
			"type":"SCALAR"
		},
		{
			"bufferView":4,
			"componentType":5126,
			"count":1003,
			"max":[
				10.2992582321167,
				9.728963851928711,
				8.5
			],
			"min":[
				-9.149658203125,
				0.3284796178340912,
				-9.666620254516602
			],
			"type":"VEC3"
		},
		{
			"bufferView":5,
			"componentType":5126,
			"count":1003,
			"type":"VEC3"
		},
		{
			"bufferView":6,
			"componentType":5126,
			"count":1003,
			"type":"VEC2"
		},
		{
			"bufferView":7,
			"componentType":5123,
			"count":2736,
			"type":"SCALAR"
		},
		{
			"bufferView":8,
			"componentType":5126,
			"count":126,
			"max":[
				10.59160041809082,
				0.5892390608787537,
				12.480000495910645
			],
			"min":[
				-10.591601371765137,
				0.044627346098423004,
				-10.480000495910645
			],
			"type":"VEC3"
		},
		{
			"bufferView":9,
			"componentType":5126,
			"count":126,
			"type":"VEC3"
		},
		{
			"bufferView":10,
			"componentType":5126,
			"count":126,
			"type":"VEC2"
		},
		{
			"bufferView":11,
			"componentType":5123,
			"count":366,
			"type":"SCALAR"
		},
		{
			"bufferView":12,
			"componentType":5126,
			"count":11014,
			"max":[
				10.59160041809082,
				10.111194610595703,
				12.5
			],
			"min":[
				-11.525018692016602,
				1.5892088413238525e-05,
				-11.425016403198242
			],
			"type":"VEC3"
		},
		{
			"bufferView":13,
			"componentType":5126,
			"count":11014,
			"type":"VEC3"
		},
		{
			"bufferView":14,
			"componentType":5126,
			"count":11014,
			"type":"VEC2"
		},
		{
			"bufferView":15,
			"componentType":5123,
			"count":29652,
			"type":"SCALAR"
		},
		{
			"bufferView":16,
			"componentType":5126,
			"count":76,
			"max":[
				8.133575439453125,
				5.517050743103027,
				8.233575820922852
			],
			"min":[
				-11.333576202392578,
				4.541774749755859,
				-11.233573913574219
			],
			"type":"VEC3"
		},
		{
			"bufferView":17,
			"componentType":5126,
			"count":76,
			"type":"VEC3"
		},
		{
			"bufferView":18,
			"componentType":5126,
			"count":76,
			"type":"VEC2"
		},
		{
			"bufferView":19,
			"componentType":5123,
			"count":192,
			"type":"SCALAR"
		},
		{
			"bufferView":20,
			"componentType":5126,
			"count":162,
			"max":[
				5.0567169189453125,
				7.490364074707031,
				5.104116439819336
			],
			"min":[
				-4.679073333740234,
				5.893216133117676,
				-5.065083026885986
			],
			"type":"VEC3"
		},
		{
			"bufferView":21,
			"componentType":5126,
			"count":162,
			"type":"VEC3"
		},
		{
			"bufferView":22,
			"componentType":5126,
			"count":162,
			"type":"VEC2"
		},
		{
			"bufferView":23,
			"componentType":5123,
			"count":600,
			"type":"SCALAR"
		},
		{
			"bufferView":24,
			"componentType":5126,
			"count":840,
			"max":[
				6.1307053565979,
				8.5986909866333,
				6.178108215332031
			],
			"min":[
				-5.624942779541016,
				4.451785564422607,
				-6.139072895050049
			],
			"type":"VEC3"
		},
		{
			"bufferView":25,
			"componentType":5126,
			"count":840,
			"type":"VEC3"
		},
		{
			"bufferView":26,
			"componentType":5126,
			"count":840,
			"type":"VEC2"
		},
		{
			"bufferView":27,
			"componentType":5123,
			"count":2442,
			"type":"SCALAR"
		},
		{
			"bufferView":28,
			"componentType":5126,
			"count":498,
			"max":[
				0.4893336296081543,
				2.6337642669677734,
				1.4543465375900269
			],
			"min":[
				-1.458045482635498,
				-0.08998382091522217,
				-0.46650612354278564
			],
			"type":"VEC3"
		},
		{
			"bufferView":29,
			"componentType":5126,
			"count":498,
			"type":"VEC3"
		},
		{
			"bufferView":30,
			"componentType":5126,
			"count":498,
			"type":"VEC2"
		},
		{
			"bufferView":31,
			"componentType":5123,
			"count":954,
			"type":"SCALAR"
		},
		{
			"bufferView":32,
			"componentType":5126,
			"count":32,
			"max":[
				0.43867209553718567,
				1.8684359788894653,
				1.4264096021652222
			],
			"min":[
				-1.4301095008850098,
				1.5351029634475708,
				-0.44237104058265686
			],
			"type":"VEC3"
		},
		{
			"bufferView":33,
			"componentType":5126,
			"count":32,
			"type":"VEC3"
		},
		{
			"bufferView":34,
			"componentType":5126,
			"count":32,
			"type":"VEC2"
		},
		{
			"bufferView":35,
			"componentType":5123,
			"count":60,
			"type":"SCALAR"
		},
		{
			"bufferView":36,
			"componentType":5126,
			"count":80,
			"max":[
				0.43867209553718567,
				2.2017698287963867,
				1.4264096021652222
			],
			"min":[
				-1.4301095008850098,
				1.2017699480056763,
				-0.44237104058265686
			],
			"type":"VEC3"
		},
		{
			"bufferView":37,
			"componentType":5126,
			"count":80,
			"type":"VEC3"
		},
		{
			"bufferView":38,
			"componentType":5126,
			"count":80,
			"type":"VEC2"
		},
		{
			"bufferView":39,
			"componentType":5123,
			"count":144,
			"type":"SCALAR"
		},
		{
			"bufferView":40,
			"componentType":5126,
			"count":40,
			"max":[
				0.40836814045906067,
				2.2017698287963867,
				1.4264096021652222
			],
			"min":[
				-1.4301095008850098,
				1.2017699480056763,
				-0.41206756234169006
			],
			"type":"VEC3"
		},
		{
			"bufferView":41,
			"componentType":5126,
			"count":40,
			"type":"VEC3"
		},
		{
			"bufferView":42,
			"componentType":5126,
			"count":40,
			"type":"VEC2"
		},
		{
			"bufferView":43,
			"componentType":5123,
			"count":90,
			"type":"SCALAR"
		}
	],
	"bufferViews":[
		{
			"buffer":0,
			"byteLength":21648,
			"byteOffset":0,
			"target":34962
		},
		{
			"buffer":0,
			"byteLength":21648,
			"byteOffset":21648,
			"target":34962
		},
		{
			"buffer":0,
			"byteLength":14432,
			"byteOffset":43296,
			"target":34962
		},
		{
			"buffer":0,
			"byteLength":9576,
			"byteOffset":57728,
			"target":34963
		},
		{
			"buffer":0,
			"byteLength":12036,
			"byteOffset":67304,
			"target":34962
		},
		{
			"buffer":0,
			"byteLength":12036,
			"byteOffset":79340,
			"target":34962
		},
		{
			"buffer":0,
			"byteLength":8024,
			"byteOffset":91376,
			"target":34962
		},
		{
			"buffer":0,
			"byteLength":5472,
			"byteOffset":99400,
			"target":34963
		},
		{
			"buffer":0,
			"byteLength":1512,
			"byteOffset":104872,
			"target":34962
		},
		{
			"buffer":0,
			"byteLength":1512,
			"byteOffset":106384,
			"target":34962
		},
		{
			"buffer":0,
			"byteLength":1008,
			"byteOffset":107896,
			"target":34962
		},
		{
			"buffer":0,
			"byteLength":732,
			"byteOffset":108904,
			"target":34963
		},
		{
			"buffer":0,
			"byteLength":132168,
			"byteOffset":109636,
			"target":34962
		},
		{
			"buffer":0,
			"byteLength":132168,
			"byteOffset":241804,
			"target":34962
		},
		{
			"buffer":0,
			"byteLength":88112,
			"byteOffset":373972,
			"target":34962
		},
		{
			"buffer":0,
			"byteLength":59304,
			"byteOffset":462084,
			"target":34963
		},
		{
			"buffer":0,
			"byteLength":912,
			"byteOffset":521388,
			"target":34962
		},
		{
			"buffer":0,
			"byteLength":912,
			"byteOffset":522300,
			"target":34962
		},
		{
			"buffer":0,
			"byteLength":608,
			"byteOffset":523212,
			"target":34962
		},
		{
			"buffer":0,
			"byteLength":384,
			"byteOffset":523820,
			"target":34963
		},
		{
			"buffer":0,
			"byteLength":1944,
			"byteOffset":524204,
			"target":34962
		},
		{
			"buffer":0,
			"byteLength":1944,
			"byteOffset":526148,
			"target":34962
		},
		{
			"buffer":0,
			"byteLength":1296,
			"byteOffset":528092,
			"target":34962
		},
		{
			"buffer":0,
			"byteLength":1200,
			"byteOffset":529388,
			"target":34963
		},
		{
			"buffer":0,
			"byteLength":10080,
			"byteOffset":530588,
			"target":34962
		},
		{
			"buffer":0,
			"byteLength":10080,
			"byteOffset":540668,
			"target":34962
		},
		{
			"buffer":0,
			"byteLength":6720,
			"byteOffset":550748,
			"target":34962
		},
		{
			"buffer":0,
			"byteLength":4884,
			"byteOffset":557468,
			"target":34963
		},
		{
			"buffer":0,
			"byteLength":5976,
			"byteOffset":562352,
			"target":34962
		},
		{
			"buffer":0,
			"byteLength":5976,
			"byteOffset":568328,
			"target":34962
		},
		{
			"buffer":0,
			"byteLength":3984,
			"byteOffset":574304,
			"target":34962
		},
		{
			"buffer":0,
			"byteLength":1908,
			"byteOffset":578288,
			"target":34963
		},
		{
			"buffer":0,
			"byteLength":384,
			"byteOffset":580196,
			"target":34962
		},
		{
			"buffer":0,
			"byteLength":384,
			"byteOffset":580580,
			"target":34962
		},
		{
			"buffer":0,
			"byteLength":256,
			"byteOffset":580964,
			"target":34962
		},
		{
			"buffer":0,
			"byteLength":120,
			"byteOffset":581220,
			"target":34963
		},
		{
			"buffer":0,
			"byteLength":960,
			"byteOffset":581340,
			"target":34962
		},
		{
			"buffer":0,
			"byteLength":960,
			"byteOffset":582300,
			"target":34962
		},
		{
			"buffer":0,
			"byteLength":640,
			"byteOffset":583260,
			"target":34962
		},
		{
			"buffer":0,
			"byteLength":288,
			"byteOffset":583900,
			"target":34963
		},
		{
			"buffer":0,
			"byteLength":480,
			"byteOffset":584188,
			"target":34962
		},
		{
			"buffer":0,
			"byteLength":480,
			"byteOffset":584668,
			"target":34962
		},
		{
			"buffer":0,
			"byteLength":320,
			"byteOffset":585148,
			"target":34962
		},
		{
			"buffer":0,
			"byteLength":180,
			"byteOffset":585468,
			"target":34963
		}
	],
	"samplers":[
		{
			"magFilter":9729,
			"minFilter":9987
		}
	],
	"buffers":[
		{
			"byteLength":585648,
			"uri":"Dronehub.bin"
		}
	]
}
