{
	"asset":{
		"generator":"Khronos glTF Blender I/O v4.3.47",
		"version":"2.0"
	},
	"scene":0,
	"scenes":[
		{
			"extras":{
				"bc":{
					"snap":{
						"hit":false,
						"type":"",
						"location":[
							0.0,
							0.0,
							0.0
						],
						"normal":[
							-0.7432299852371216,
							0.5360320806503296,
							-0.40034791827201843
						],
						"display":0
					},
					"running":0,
					"collection":null,
					"shape":null,
					"original_active":null,
					"last":{
						"surface":"VIEW"
					},
					"plane":null,
					"lattice":null,
					"empty":null,
					"location":[
						0.0,
						0.0,
						0.0
					],
					"slice":null,
					"inset":null,
					"bevel":null,
					"wedge_point":1,
					"stored_shape":{},
					"recall_collection":{},
					"start_operation":0,
					"mirror_axis":[
						1,
						1,
						0
					],
					"mirror_axis_flip":[
						0,
						0,
						0
					],
					"snap_type":"",
					"wedge_slim":1
				},
				"hops":{
					"collection":null
				},
				"GodotPipelineProps":{
					"mesh_data":0,
					"export_UI":1,
					"save_path":"//..\\..\\..\\..\\source\\repos\\Main_Game\\AstromortisRenderer\\Building Models\\Sand_Mine\\Sand_Mine.gltf",
					"counter":16
				}
			},
			"name":"Scene",
			"nodes":[
				0
			]
		}
	],
	"nodes":[
		{
			"extras":{
				"hops":{
					"last_array_axis":1
				},
				"bc":{}
			},
			"mesh":0,
			"name":"Sand_Mine",
			"rotation":[
				0,
				-1,
				0,
				2.7219521143706515e-06
			],
			"scale":[
				5.270000457763672,
				5.270000457763672,
				5.270000457763672
			],
			"translation":[
				0,
				-0.002427279483526945,
				0
			]
		}
	],
	"materials":[
		{
			"doubleSided":true,
			"name":"Main_Bronze_M",
			"normalTexture":{
				"index":0,
				"scale":0.20000000298023224
			},
			"pbrMetallicRoughness":{
				"baseColorTexture":{
					"index":1
				},
				"metallicRoughnessTexture":{
					"index":2
				}
			}
		},
		{
			"doubleSided":true,
			"name":"Main_Metal_M",
			"normalTexture":{
				"index":3,
				"scale":0.20000000298023224
			},
			"pbrMetallicRoughness":{
				"baseColorTexture":{
					"index":4
				},
				"metallicRoughnessTexture":{
					"index":5
				}
			}
		},
		{
			"doubleSided":true,
			"name":"Sand_M",
			"pbrMetallicRoughness":{
				"baseColorTexture":{
					"index":6
				},
				"metallicFactor":0,
				"roughnessFactor":0.5
			}
		}
	],
	"meshes":[
		{
			"extras":{
				"hops":{},
				"bc":{}
			},
			"name":"Sand_Mine",
			"primitives":[
				{
					"attributes":{
						"POSITION":0,
						"NORMAL":1,
						"TEXCOORD_0":2
					},
					"indices":3,
					"material":0
				},
				{
					"attributes":{
						"POSITION":4,
						"NORMAL":5,
						"TEXCOORD_0":6
					},
					"indices":7,
					"material":1
				},
				{
					"attributes":{
						"POSITION":8,
						"NORMAL":9,
						"TEXCOORD_0":10
					},
					"indices":11,
					"material":2
				}
			]
		}
	],
	"textures":[
		{
			"sampler":0,
			"source":0
		},
		{
			"sampler":0,
			"source":1
		},
		{
			"sampler":0,
			"source":2
		},
		{
			"sampler":0,
			"source":0
		},
		{
			"sampler":0,
			"source":3
		},
		{
			"sampler":0,
			"source":4
		},
		{
			"sampler":0,
			"source":5
		}
	],
	"images":[
		{
			"mimeType":"image/jpeg",
			"name":"Main_Bronze_Metal_Plates_M_Normal_1k",
			"uri":"Main_Bronze_Metal_Plates_M_Normal_1k.jpg"
		},
		{
			"mimeType":"image/jpeg",
			"name":"Main_Bronze_Metal_Plates_M_Color_1k",
			"uri":"Main_Bronze_Metal_Plates_M_Color_1k.jpg"
		},
		{
			"mimeType":"image/png",
			"name":"Main_Bronze_Metal_Plates_M_metalness_1k-Main_Bronze_Metal_Plates_M_Roughness_1k",
			"uri":"Main_Bronze_Metal_Plates_M_metalness_1k-Main_Bronze_Metal_Plates_M_Roughness_1k.png"
		},
		{
			"mimeType":"image/jpeg",
			"name":"Main_Metal_Metal_Plates_M_Color1k",
			"uri":"Main_Metal_Metal_Plates_M_Color1k.jpg"
		},
		{
			"mimeType":"image/png",
			"name":"Main_Bronze_Metal_Plates_M_metalness_1k.png-Main_Bronze_Metal_Plates_M_Roughness_1k.jpg",
			"uri":"Main_Bronze_Metal_Plates_M_metalness_1k_png-Main_Bronze_Metal_Plates_M_Roughness_1k_jpg.png"
		},
		{
			"mimeType":"image/png",
			"name":"smooth-sand-dunes-512x512",
			"uri":"smooth-sand-dunes-512x512.png"
		}
	],
	"accessors":[
		{
			"bufferView":0,
			"componentType":5126,
			"count":12595,
			"max":[
				0.7600057721138,
				1.3013272285461426,
				0.8167393207550049
			],
			"min":[
				-0.7600018382072449,
				0.017807476222515106,
				-1.9837100505828857
			],
			"type":"VEC3"
		},
		{
			"bufferView":1,
			"componentType":5126,
			"count":12595,
			"type":"VEC3"
		},
		{
			"bufferView":2,
			"componentType":5126,
			"count":12595,
			"type":"VEC2"
		},
		{
			"bufferView":3,
			"componentType":5123,
			"count":26748,
			"type":"SCALAR"
		},
		{
			"bufferView":4,
			"componentType":5126,
			"count":7637,
			"max":[
				0.7600058317184448,
				1.2817301750183105,
				0.7285330295562744
			],
			"min":[
				-0.7600018382072449,
				0.017807476222515106,
				-1.853637933731079
			],
			"type":"VEC3"
		},
		{
			"bufferView":5,
			"componentType":5126,
			"count":7637,
			"type":"VEC3"
		},
		{
			"bufferView":6,
			"componentType":5126,
			"count":7637,
			"type":"VEC2"
		},
		{
			"bufferView":7,
			"componentType":5123,
			"count":15036,
			"type":"SCALAR"
		},
		{
			"bufferView":8,
			"componentType":5126,
			"count":4096,
			"max":[
				0.915136456489563,
				0.40185293555259705,
				-0.7074247598648071
			],
			"min":[
				-0.9777548909187317,
				0,
				-2.3383946418762207
			],
			"type":"VEC3"
		},
		{
			"bufferView":9,
			"componentType":5126,
			"count":4096,
			"type":"VEC3"
		},
		{
			"bufferView":10,
			"componentType":5126,
			"count":4096,
			"type":"VEC2"
		},
		{
			"bufferView":11,
			"componentType":5123,
			"count":6144,
			"type":"SCALAR"
		}
	],
	"bufferViews":[
		{
			"buffer":0,
			"byteLength":151140,
			"byteOffset":0,
			"target":34962
		},
		{
			"buffer":0,
			"byteLength":151140,
			"byteOffset":151140,
			"target":34962
		},
		{
			"buffer":0,
			"byteLength":100760,
			"byteOffset":302280,
			"target":34962
		},
		{
			"buffer":0,
			"byteLength":53496,
			"byteOffset":403040,
			"target":34963
		},
		{
			"buffer":0,
			"byteLength":91644,
			"byteOffset":456536,
			"target":34962
		},
		{
			"buffer":0,
			"byteLength":91644,
			"byteOffset":548180,
			"target":34962
		},
		{
			"buffer":0,
			"byteLength":61096,
			"byteOffset":639824,
			"target":34962
		},
		{
			"buffer":0,
			"byteLength":30072,
			"byteOffset":700920,
			"target":34963
		},
		{
			"buffer":0,
			"byteLength":49152,
			"byteOffset":730992,
			"target":34962
		},
		{
			"buffer":0,
			"byteLength":49152,
			"byteOffset":780144,
			"target":34962
		},
		{
			"buffer":0,
			"byteLength":32768,
			"byteOffset":829296,
			"target":34962
		},
		{
			"buffer":0,
			"byteLength":12288,
			"byteOffset":862064,
			"target":34963
		}
	],
	"samplers":[
		{
			"magFilter":9729,
			"minFilter":9987
		}
	],
	"buffers":[
		{
			"byteLength":874352,
			"uri":"Sand_Mine.bin"
		}
	]
}
