{
	"asset":{
		"generator":"Khronos glTF Blender I/O v4.3.47",
		"version":"2.0"
	},
	"scene":0,
	"scenes":[
		{
			"extras":{
				"bc":{
					"snap":{
						"hit":false,
						"type":"",
						"location":[
							0.0,
							0.0,
							0.0
						],
						"normal":[
							0.0,
							0.0,
							0.0
						],
						"display":0
					},
					"running":0,
					"collection":null,
					"shape":null,
					"original_active":null,
					"last":{
						"surface":"VIEW"
					},
					"plane":null,
					"lattice":null,
					"empty":null,
					"location":[
						0.0,
						0.0,
						0.0
					],
					"slice":null,
					"inset":null,
					"bevel":null,
					"wedge_point":2,
					"stored_shape":{},
					"recall_collection":{},
					"start_operation":0,
					"mirror_axis":[
						1,
						1,
						0
					],
					"mirror_axis_flip":[
						0,
						0,
						0
					],
					"snap_type":"",
					"wedge_slim":1
				},
				"hops":{
					"collection":null
				},
				"GodotPipelineProps":{
					"mesh_data":0,
					"export_UI":1,
					"save_path":"//..\\..\\..\\..\\source\\repos\\Main_Game\\AstromortisRenderer\\Building Models\\Schmelze\\Schmelze.gltf",
					"counter":25
				}
			},
			"name":"Scene",
			"nodes":[
				0,
				1
			]
		}
	],
	"nodes":[
		{
			"extras":{
				"hops":{
					"last_array_axis":1
				},
				"bc":{}
			},
			"mesh":0,
			"name":"Schmelze",
			"rotation":[
				0,
				-0.7071049213409424,
				0,
				0.7071086168289185
			],
			"scale":[
				5.12000036239624,
				5.12000036239624,
				5.12000036239624
			],
			"translation":[
				0,
				-0.002427279483526945,
				0
			]
		},
		{
			"extras":{
				"hops":{
					"last_array_axis":1
				},
				"bc":{}
			},
			"mesh":1,
			"name":"Schmelze_Top",
			"rotation":[
				0,
				-0.7071049213409424,
				0,
				0.7071086168289185
			],
			"scale":[
				5.12000036239624,
				5.12000036239624,
				5.12000036239624
			],
			"translation":[
				0,
				-0.002427279483526945,
				0
			]
		}
	],
	"animations":[
		{
			"channels":[
				{
					"sampler":0,
					"target":{
						"node":1,
						"path":"translation"
					}
				},
				{
					"sampler":1,
					"target":{
						"node":1,
						"path":"rotation"
					}
				},
				{
					"sampler":2,
					"target":{
						"node":1,
						"path":"scale"
					}
				}
			],
			"name":"Schmelze_Anim",
			"samplers":[
				{
					"input":16,
					"interpolation":"LINEAR",
					"output":17
				},
				{
					"input":18,
					"interpolation":"STEP",
					"output":19
				},
				{
					"input":18,
					"interpolation":"STEP",
					"output":20
				}
			]
		}
	],
	"materials":[
		{
			"doubleSided":true,
			"name":"Main_Bronze_M1",
			"normalTexture":{
				"index":0,
				"scale":0.20000000298023224
			},
			"pbrMetallicRoughness":{
				"baseColorTexture":{
					"index":1
				},
				"metallicRoughnessTexture":{
					"index":2
				}
			}
		},
		{
			"doubleSided":true,
			"name":"Main_Metal_M2",
			"normalTexture":{
				"index":3,
				"scale":0.20000000298023224
			},
			"pbrMetallicRoughness":{
				"baseColorTexture":{
					"index":4
				},
				"metallicRoughnessTexture":{
					"index":5
				}
			}
		}
	],
	"meshes":[
		{
			"extras":{
				"hops":{}
			},
			"name":"Schmelze",
			"primitives":[
				{
					"attributes":{
						"POSITION":0,
						"NORMAL":1,
						"TEXCOORD_0":2
					},
					"indices":3,
					"material":0
				},
				{
					"attributes":{
						"POSITION":4,
						"NORMAL":5,
						"TEXCOORD_0":6
					},
					"indices":7,
					"material":1
				}
			]
		},
		{
			"extras":{
				"hops":{}
			},
			"name":"Schmelze_Top",
			"primitives":[
				{
					"attributes":{
						"POSITION":8,
						"NORMAL":9,
						"TEXCOORD_0":10
					},
					"indices":11,
					"material":0
				},
				{
					"attributes":{
						"POSITION":12,
						"NORMAL":13,
						"TEXCOORD_0":14
					},
					"indices":15,
					"material":1
				}
			]
		}
	],
	"textures":[
		{
			"sampler":0,
			"source":0
		},
		{
			"sampler":0,
			"source":1
		},
		{
			"sampler":0,
			"source":2
		},
		{
			"sampler":0,
			"source":0
		},
		{
			"sampler":0,
			"source":3
		},
		{
			"sampler":0,
			"source":4
		}
	],
	"images":[
		{
			"mimeType":"image/jpeg",
			"name":"Main_Bronze_Metal_Plates_M_Normal_1k",
			"uri":"Main_Bronze_Metal_Plates_M_Normal_1k.jpg"
		},
		{
			"mimeType":"image/jpeg",
			"name":"Main_Bronze_Metal_Plates_M_Color_1k",
			"uri":"Main_Bronze_Metal_Plates_M_Color_1k.jpg"
		},
		{
			"mimeType":"image/png",
			"name":"Main_Bronze_Metal_Plates_M_metalness_1k-Main_Bronze_Metal_Plates_M_Roughness_1k",
			"uri":"Main_Bronze_Metal_Plates_M_metalness_1k-Main_Bronze_Metal_Plates_M_Roughness_1k.png"
		},
		{
			"mimeType":"image/jpeg",
			"name":"Main_Metal_Metal_Plates_M_Color1k",
			"uri":"Main_Metal_Metal_Plates_M_Color1k.jpg"
		},
		{
			"mimeType":"image/png",
			"name":"Main_Bronze_Metal_Plates_M_metalness_1k.png-Main_Bronze_Metal_Plates_M_Roughness_1k.jpg",
			"uri":"Main_Bronze_Metal_Plates_M_metalness_1k_png-Main_Bronze_Metal_Plates_M_Roughness_1k_jpg.png"
		}
	],
	"accessors":[
		{
			"bufferView":0,
			"componentType":5126,
			"count":10742,
			"max":[
				0.8508421778678894,
				0.8741883635520935,
				1.4629549980163574
			],
			"min":[
				-0.8508421778678894,
				0.017807476222515106,
				-1.4629549980163574
			],
			"type":"VEC3"
		},
		{
			"bufferView":1,
			"componentType":5126,
			"count":10742,
			"type":"VEC3"
		},
		{
			"bufferView":2,
			"componentType":5126,
			"count":10742,
			"type":"VEC2"
		},
		{
			"bufferView":3,
			"componentType":5123,
			"count":23316,
			"type":"SCALAR"
		},
		{
			"bufferView":4,
			"componentType":5126,
			"count":10268,
			"max":[
				0.8508419990539551,
				0.8741883635520935,
				1.374748706817627
			],
			"min":[
				-0.8508419990539551,
				0.017807476222515106,
				-1.374748706817627
			],
			"type":"VEC3"
		},
		{
			"bufferView":5,
			"componentType":5126,
			"count":10268,
			"type":"VEC3"
		},
		{
			"bufferView":6,
			"componentType":5126,
			"count":10268,
			"type":"VEC2"
		},
		{
			"bufferView":7,
			"componentType":5123,
			"count":21324,
			"type":"SCALAR"
		},
		{
			"bufferView":8,
			"componentType":5126,
			"count":3279,
			"max":[
				0.4234561622142792,
				1.1889843940734863,
				0.39706215262413025
			],
			"min":[
				-0.4234561622142792,
				0.38242730498313904,
				-0.39706215262413025
			],
			"type":"VEC3"
		},
		{
			"bufferView":9,
			"componentType":5126,
			"count":3279,
			"type":"VEC3"
		},
		{
			"bufferView":10,
			"componentType":5126,
			"count":3279,
			"type":"VEC2"
		},
		{
			"bufferView":11,
			"componentType":5123,
			"count":7800,
			"type":"SCALAR"
		},
		{
			"bufferView":12,
			"componentType":5126,
			"count":2847,
			"max":[
				0.6689698696136475,
				1.1925432682037354,
				0.40000373125076294
			],
			"min":[
				-0.6689698696136475,
				0.38487866520881653,
				-0.40000373125076294
			],
			"type":"VEC3"
		},
		{
			"bufferView":13,
			"componentType":5126,
			"count":2847,
			"type":"VEC3"
		},
		{
			"bufferView":14,
			"componentType":5126,
			"count":2847,
			"type":"VEC2"
		},
		{
			"bufferView":15,
			"componentType":5123,
			"count":12984,
			"type":"SCALAR"
		},
		{
			"bufferView":16,
			"componentType":5126,
			"count":100,
			"max":[
				4.166666666666667
			],
			"min":[
				0.041666666666666664
			],
			"type":"SCALAR"
		},
		{
			"bufferView":17,
			"componentType":5126,
			"count":100,
			"type":"VEC3"
		},
		{
			"bufferView":18,
			"componentType":5126,
			"count":2,
			"max":[
				4.166666666666667
			],
			"min":[
				0.041666666666666664
			],
			"type":"SCALAR"
		},
		{
			"bufferView":19,
			"componentType":5126,
			"count":2,
			"type":"VEC4"
		},
		{
			"bufferView":20,
			"componentType":5126,
			"count":2,
			"type":"VEC3"
		}
	],
	"bufferViews":[
		{
			"buffer":0,
			"byteLength":128904,
			"byteOffset":0,
			"target":34962
		},
		{
			"buffer":0,
			"byteLength":128904,
			"byteOffset":128904,
			"target":34962
		},
		{
			"buffer":0,
			"byteLength":85936,
			"byteOffset":257808,
			"target":34962
		},
		{
			"buffer":0,
			"byteLength":46632,
			"byteOffset":343744,
			"target":34963
		},
		{
			"buffer":0,
			"byteLength":123216,
			"byteOffset":390376,
			"target":34962
		},
		{
			"buffer":0,
			"byteLength":123216,
			"byteOffset":513592,
			"target":34962
		},
		{
			"buffer":0,
			"byteLength":82144,
			"byteOffset":636808,
			"target":34962
		},
		{
			"buffer":0,
			"byteLength":42648,
			"byteOffset":718952,
			"target":34963
		},
		{
			"buffer":0,
			"byteLength":39348,
			"byteOffset":761600,
			"target":34962
		},
		{
			"buffer":0,
			"byteLength":39348,
			"byteOffset":800948,
			"target":34962
		},
		{
			"buffer":0,
			"byteLength":26232,
			"byteOffset":840296,
			"target":34962
		},
		{
			"buffer":0,
			"byteLength":15600,
			"byteOffset":866528,
			"target":34963
		},
		{
			"buffer":0,
			"byteLength":34164,
			"byteOffset":882128,
			"target":34962
		},
		{
			"buffer":0,
			"byteLength":34164,
			"byteOffset":916292,
			"target":34962
		},
		{
			"buffer":0,
			"byteLength":22776,
			"byteOffset":950456,
			"target":34962
		},
		{
			"buffer":0,
			"byteLength":25968,
			"byteOffset":973232,
			"target":34963
		},
		{
			"buffer":0,
			"byteLength":400,
			"byteOffset":999200
		},
		{
			"buffer":0,
			"byteLength":1200,
			"byteOffset":999600
		},
		{
			"buffer":0,
			"byteLength":8,
			"byteOffset":1000800
		},
		{
			"buffer":0,
			"byteLength":32,
			"byteOffset":1000808
		},
		{
			"buffer":0,
			"byteLength":24,
			"byteOffset":1000840
		}
	],
	"samplers":[
		{
			"magFilter":9729,
			"minFilter":9987
		}
	],
	"buffers":[
		{
			"byteLength":1000864,
			"uri":"Schmelze.bin"
		}
	]
}
