{
	"asset":{
		"generator":"Khronos glTF Blender I/O v4.3.47",
		"version":"2.0"
	},
	"scene":0,
	"scenes":[
		{
			"extras":{
				"bc":{
					"snap":{
						"hit":false,
						"type":"",
						"location":[
							0.0,
							0.0,
							0.0
						],
						"normal":[
							0.0,
							0.0,
							0.0
						],
						"display":0
					},
					"running":0,
					"collection":null,
					"shape":null,
					"original_active":null,
					"last":{
						"surface":"VIEW"
					},
					"plane":null,
					"lattice":null,
					"empty":null,
					"location":[
						0.0,
						0.0,
						0.0
					],
					"slice":null,
					"inset":null,
					"bevel":null,
					"wedge_point":1,
					"stored_shape":{},
					"recall_collection":{},
					"start_operation":0,
					"mirror_axis":[
						1,
						1,
						0
					],
					"mirror_axis_flip":[
						0,
						0,
						0
					],
					"snap_type":"",
					"wedge_slim":1
				},
				"hops":{
					"collection":null
				},
				"GodotPipelineProps":{
					"mesh_data":0,
					"export_UI":1,
					"save_path":"//..\\..\\..\\..\\source\\repos\\Main_Game\\AstromortisRenderer\\Building Models\\Windrad_01\\Windrad.gltf",
					"counter":15
				}
			},
			"name":"Scene",
			"nodes":[
				0,
				1
			]
		}
	],
	"nodes":[
		{
			"extras":{
				"hops":{},
				"bc":{}
			},
			"mesh":0,
			"name":"Windrad_Main",
			"rotation":[
				0,
				0.7071068286895752,
				0,
				0.7071068286895752
			]
		},
		{
			"extras":{
				"hops":{},
				"bc":{}
			},
			"mesh":1,
			"name":"Windrad_Radiator",
			"rotation":[
				0,
				0.7071068286895752,
				0,
				0.7071068286895752
			],
			"translation":[
				0,
				11.839999198913574,
				0
			]
		}
	],
	"animations":[
		{
			"channels":[
				{
					"sampler":0,
					"target":{
						"node":1,
						"path":"translation"
					}
				},
				{
					"sampler":1,
					"target":{
						"node":1,
						"path":"rotation"
					}
				},
				{
					"sampler":2,
					"target":{
						"node":1,
						"path":"scale"
					}
				}
			],
			"name":"Windrad_Anim",
			"samplers":[
				{
					"input":16,
					"interpolation":"STEP",
					"output":17
				},
				{
					"input":18,
					"interpolation":"LINEAR",
					"output":19
				},
				{
					"input":16,
					"interpolation":"STEP",
					"output":20
				}
			]
		}
	],
	"materials":[
		{
			"doubleSided":true,
			"name":"Main_Bronze_M",
			"normalTexture":{
				"index":0
			},
			"pbrMetallicRoughness":{
				"baseColorTexture":{
					"index":1
				},
				"metallicRoughnessTexture":{
					"index":2
				}
			}
		},
		{
			"doubleSided":true,
			"name":"Main_Metal_M",
			"normalTexture":{
				"index":3
			},
			"pbrMetallicRoughness":{
				"baseColorTexture":{
					"index":4
				},
				"metallicRoughnessTexture":{
					"index":5
				}
			}
		}
	],
	"meshes":[
		{
			"extras":{
				"hops":{},
				"auto_smooth_angle":1.0471975803375244,
				"use_auto_smooth":1,
				"bc":{}
			},
			"name":"Windrad_Main",
			"primitives":[
				{
					"attributes":{
						"POSITION":0,
						"NORMAL":1,
						"TEXCOORD_0":2
					},
					"indices":3,
					"material":0
				},
				{
					"attributes":{
						"POSITION":4,
						"NORMAL":5,
						"TEXCOORD_0":6
					},
					"indices":7,
					"material":1
				}
			]
		},
		{
			"extras":{
				"hops":{},
				"auto_smooth_angle":1.0471975803375244,
				"use_auto_smooth":1,
				"bc":{}
			},
			"name":"Windrad_Radiator",
			"primitives":[
				{
					"attributes":{
						"POSITION":8,
						"NORMAL":9,
						"TEXCOORD_0":10
					},
					"indices":11,
					"material":0
				},
				{
					"attributes":{
						"POSITION":12,
						"NORMAL":13,
						"TEXCOORD_0":14
					},
					"indices":15,
					"material":1
				}
			]
		}
	],
	"textures":[
		{
			"sampler":0,
			"source":0
		},
		{
			"sampler":0,
			"source":1
		},
		{
			"sampler":0,
			"source":2
		},
		{
			"sampler":0,
			"source":0
		},
		{
			"sampler":0,
			"source":3
		},
		{
			"sampler":0,
			"source":4
		}
	],
	"images":[
		{
			"mimeType":"image/jpeg",
			"name":"Main_Bronze_Metal_Plates_M_Normal_1k",
			"uri":"Main_Bronze_Metal_Plates_M_Normal_1k.jpg"
		},
		{
			"mimeType":"image/jpeg",
			"name":"Main_Bronze_Metal_Plates_M_Color_1k",
			"uri":"Main_Bronze_Metal_Plates_M_Color_1k.jpg"
		},
		{
			"mimeType":"image/png",
			"name":"Main_Bronze_Metal_Plates_M_metalness_1k-Main_Bronze_Metal_Plates_M_Roughness_1k",
			"uri":"Main_Bronze_Metal_Plates_M_metalness_1k-Main_Bronze_Metal_Plates_M_Roughness_1k.png"
		},
		{
			"mimeType":"image/jpeg",
			"name":"Main_Metal_Metal_Plates_M_Color1k",
			"uri":"Main_Metal_Metal_Plates_M_Color1k.jpg"
		},
		{
			"mimeType":"image/png",
			"name":"Main_Bronze_Metal_Plates_M_metalness_1k.png-Main_Bronze_Metal_Plates_M_Roughness_1k.jpg",
			"uri":"Main_Bronze_Metal_Plates_M_metalness_1k_png-Main_Bronze_Metal_Plates_M_Roughness_1k_jpg.png"
		}
	],
	"accessors":[
		{
			"bufferView":0,
			"componentType":5126,
			"count":18709,
			"max":[
				4.795675754547119,
				12.328067779541016,
				4.718674182891846
			],
			"min":[
				-4.718674182891846,
				-0.029852144420146942,
				-4.795675754547119
			],
			"type":"VEC3"
		},
		{
			"bufferView":1,
			"componentType":5126,
			"count":18709,
			"type":"VEC3"
		},
		{
			"bufferView":2,
			"componentType":5126,
			"count":18709,
			"type":"VEC2"
		},
		{
			"bufferView":3,
			"componentType":5123,
			"count":81666,
			"type":"SCALAR"
		},
		{
			"bufferView":4,
			"componentType":5126,
			"count":43378,
			"max":[
				4.7946062088012695,
				12.450420379638672,
				4.717605113983154
			],
			"min":[
				-4.717605113983154,
				0.006415612995624542,
				-4.7946062088012695
			],
			"type":"VEC3"
		},
		{
			"bufferView":5,
			"componentType":5126,
			"count":43378,
			"type":"VEC3"
		},
		{
			"bufferView":6,
			"componentType":5126,
			"count":43378,
			"type":"VEC2"
		},
		{
			"bufferView":7,
			"componentType":5123,
			"count":187872,
			"type":"SCALAR"
		},
		{
			"bufferView":8,
			"componentType":5126,
			"count":894,
			"max":[
				3.8867225646972656,
				4.364681243896484,
				1.9438846111297607
			],
			"min":[
				-3.8867175579071045,
				-2.3673179149627686,
				-0.29751619696617126
			],
			"type":"VEC3"
		},
		{
			"bufferView":9,
			"componentType":5126,
			"count":894,
			"type":"VEC3"
		},
		{
			"bufferView":10,
			"componentType":5126,
			"count":894,
			"type":"VEC2"
		},
		{
			"bufferView":11,
			"componentType":5123,
			"count":3354,
			"type":"SCALAR"
		},
		{
			"bufferView":12,
			"componentType":5126,
			"count":1222,
			"max":[
				4.642534255981445,
				5.319034576416016,
				2.2826099395751953
			],
			"min":[
				-4.642528533935547,
				-2.722066640853882,
				-0.29751619696617126
			],
			"type":"VEC3"
		},
		{
			"bufferView":13,
			"componentType":5126,
			"count":1222,
			"type":"VEC3"
		},
		{
			"bufferView":14,
			"componentType":5126,
			"count":1222,
			"type":"VEC2"
		},
		{
			"bufferView":15,
			"componentType":5123,
			"count":4008,
			"type":"SCALAR"
		},
		{
			"bufferView":16,
			"componentType":5126,
			"count":2,
			"max":[
				4.166666666666667
			],
			"min":[
				0
			],
			"type":"SCALAR"
		},
		{
			"bufferView":17,
			"componentType":5126,
			"count":2,
			"type":"VEC3"
		},
		{
			"bufferView":18,
			"componentType":5126,
			"count":101,
			"max":[
				4.166666666666667
			],
			"min":[
				0
			],
			"type":"SCALAR"
		},
		{
			"bufferView":19,
			"componentType":5126,
			"count":101,
			"type":"VEC4"
		},
		{
			"bufferView":20,
			"componentType":5126,
			"count":2,
			"type":"VEC3"
		}
	],
	"bufferViews":[
		{
			"buffer":0,
			"byteLength":224508,
			"byteOffset":0,
			"target":34962
		},
		{
			"buffer":0,
			"byteLength":224508,
			"byteOffset":224508,
			"target":34962
		},
		{
			"buffer":0,
			"byteLength":149672,
			"byteOffset":449016,
			"target":34962
		},
		{
			"buffer":0,
			"byteLength":163332,
			"byteOffset":598688,
			"target":34963
		},
		{
			"buffer":0,
			"byteLength":520536,
			"byteOffset":762020,
			"target":34962
		},
		{
			"buffer":0,
			"byteLength":520536,
			"byteOffset":1282556,
			"target":34962
		},
		{
			"buffer":0,
			"byteLength":347024,
			"byteOffset":1803092,
			"target":34962
		},
		{
			"buffer":0,
			"byteLength":375744,
			"byteOffset":2150116,
			"target":34963
		},
		{
			"buffer":0,
			"byteLength":10728,
			"byteOffset":2525860,
			"target":34962
		},
		{
			"buffer":0,
			"byteLength":10728,
			"byteOffset":2536588,
			"target":34962
		},
		{
			"buffer":0,
			"byteLength":7152,
			"byteOffset":2547316,
			"target":34962
		},
		{
			"buffer":0,
			"byteLength":6708,
			"byteOffset":2554468,
			"target":34963
		},
		{
			"buffer":0,
			"byteLength":14664,
			"byteOffset":2561176,
			"target":34962
		},
		{
			"buffer":0,
			"byteLength":14664,
			"byteOffset":2575840,
			"target":34962
		},
		{
			"buffer":0,
			"byteLength":9776,
			"byteOffset":2590504,
			"target":34962
		},
		{
			"buffer":0,
			"byteLength":8016,
			"byteOffset":2600280,
			"target":34963
		},
		{
			"buffer":0,
			"byteLength":8,
			"byteOffset":2608296
		},
		{
			"buffer":0,
			"byteLength":24,
			"byteOffset":2608304
		},
		{
			"buffer":0,
			"byteLength":404,
			"byteOffset":2608328
		},
		{
			"buffer":0,
			"byteLength":1616,
			"byteOffset":2608732
		},
		{
			"buffer":0,
			"byteLength":24,
			"byteOffset":2610348
		}
	],
	"samplers":[
		{
			"magFilter":9729,
			"minFilter":9987
		}
	],
	"buffers":[
		{
			"byteLength":2610372,
			"uri":"Windrad.bin"
		}
	]
}
