{
	"asset":{
		"generator":"Khronos glTF Blender I/O v4.3.47",
		"version":"2.0"
	},
	"scene":0,
	"scenes":[
		{
			"extras":{
				"bc":{
					"snap":{
						"hit":false,
						"type":"",
						"location":[
							0.0,
							0.0,
							0.0
						],
						"normal":[
							-0.628529965877533,
							0.4533097743988037,
							0.632028341293335
						],
						"display":0
					},
					"running":0,
					"collection":null,
					"shape":null,
					"original_active":null,
					"last":{
						"surface":"VIEW"
					},
					"plane":null,
					"lattice":null,
					"empty":null,
					"location":[
						0.0,
						0.0,
						0.0
					],
					"slice":null,
					"inset":null,
					"bevel":null,
					"wedge_point":0,
					"stored_shape":{},
					"recall_collection":{},
					"start_operation":0,
					"mirror_axis":[
						1,
						1,
						0
					],
					"mirror_axis_flip":[
						0,
						0,
						0
					],
					"snap_type":"",
					"wedge_slim":1
				},
				"hops":{
					"collection":null
				},
				"GodotPipelineProps":{
					"mesh_data":0,
					"export_UI":1,
					"save_path":"//..\\..\\..\\..\\source\\repos\\Main_Game\\AstromortisRenderer\\Building Models\\Farm\\Farm.gltf",
					"counter":18
				}
			},
			"name":"Scene",
			"nodes":[
				0
			]
		}
	],
	"nodes":[
		{
			"extras":{
				"hops":{},
				"bc":{}
			},
			"mesh":0,
			"name":"Fram",
			"scale":[
				13.799999237060547,
				13.799999237060547,
				13.799999237060547
			]
		}
	],
	"materials":[
		{
			"doubleSided":true,
			"name":"Main_Bronze_M",
			"normalTexture":{
				"index":0
			},
			"pbrMetallicRoughness":{
				"baseColorTexture":{
					"index":1
				},
				"metallicRoughnessTexture":{
					"index":2
				}
			}
		},
		{
			"doubleSided":true,
			"name":"Main_Metal_M",
			"normalTexture":{
				"index":3
			},
			"pbrMetallicRoughness":{
				"baseColorTexture":{
					"index":4
				},
				"metallicRoughnessTexture":{
					"index":5
				}
			}
		},
		{
			"alphaMode":"BLEND",
			"doubleSided":true,
			"name":"Gew\u00e4chshaus_Glas_M",
			"pbrMetallicRoughness":{
				"baseColorFactor":[
					0.16700729727745056,
					0.18055252730846405,
					0.1703367531299591,
					0.4000000059604645
				],
				"metallicFactor":0,
				"roughnessFactor":0.5
			}
		},
		{
			"doubleSided":true,
			"name":"Gew\u00e4chshaus_Ground_M",
			"normalTexture":{
				"index":6
			},
			"pbrMetallicRoughness":{
				"baseColorTexture":{
					"index":7
				},
				"metallicFactor":0,
				"metallicRoughnessTexture":{
					"index":8
				}
			}
		}
	],
	"meshes":[
		{
			"extras":{
				"hops":{},
				"bc":{}
			},
			"name":"Farm",
			"primitives":[
				{
					"attributes":{
						"POSITION":0,
						"NORMAL":1,
						"TEXCOORD_0":2
					},
					"indices":3,
					"material":0
				},
				{
					"attributes":{
						"POSITION":4,
						"NORMAL":5,
						"TEXCOORD_0":6
					},
					"indices":7,
					"material":1
				},
				{
					"attributes":{
						"POSITION":8,
						"NORMAL":9,
						"TEXCOORD_0":10
					},
					"indices":11,
					"material":2
				},
				{
					"attributes":{
						"POSITION":12,
						"NORMAL":13,
						"TEXCOORD_0":14
					},
					"indices":15,
					"material":3
				}
			]
		}
	],
	"textures":[
		{
			"sampler":0,
			"source":0
		},
		{
			"sampler":0,
			"source":1
		},
		{
			"sampler":0,
			"source":2
		},
		{
			"sampler":0,
			"source":0
		},
		{
			"sampler":0,
			"source":3
		},
		{
			"sampler":0,
			"source":4
		},
		{
			"sampler":0,
			"source":5
		},
		{
			"sampler":0,
			"source":6
		},
		{
			"sampler":0,
			"source":7
		}
	],
	"images":[
		{
			"mimeType":"image/jpeg",
			"name":"Main_Bronze_Metal_Plates_M_Normal_1k",
			"uri":"Main_Bronze_Metal_Plates_M_Normal_1k.jpg"
		},
		{
			"mimeType":"image/jpeg",
			"name":"Main_Bronze_Metal_Plates_M_Color_1k",
			"uri":"Main_Bronze_Metal_Plates_M_Color_1k.jpg"
		},
		{
			"mimeType":"image/png",
			"name":"Main_Bronze_Metal_Plates_M_metalness_1k-Main_Bronze_Metal_Plates_M_Roughness_1k",
			"uri":"Main_Bronze_Metal_Plates_M_metalness_1k-Main_Bronze_Metal_Plates_M_Roughness_1k.png"
		},
		{
			"mimeType":"image/jpeg",
			"name":"Main_Metal_Metal_Plates_M_Color1k",
			"uri":"Main_Metal_Metal_Plates_M_Color1k.jpg"
		},
		{
			"mimeType":"image/png",
			"name":"Main_Bronze_Metal_Plates_M_metalness_1k.png-Main_Bronze_Metal_Plates_M_Roughness_1k.jpg",
			"uri":"Main_Bronze_Metal_Plates_M_metalness_1k_png-Main_Bronze_Metal_Plates_M_Roughness_1k_jpg.png"
		},
		{
			"mimeType":"image/jpeg",
			"name":"Ground075_1K-JPG_NormalGL",
			"uri":"Ground075_1K-JPG_NormalGL.jpg"
		},
		{
			"mimeType":"image/jpeg",
			"name":"Ground075_1K-JPG_Color",
			"uri":"Ground075_1K-JPG_Color.jpg"
		},
		{
			"mimeType":"image/png",
			"name":"Ground075_1K-JPG_Roughness",
			"uri":"Ground075_1K-JPG_Roughness.png"
		}
	],
	"accessors":[
		{
			"bufferView":0,
			"componentType":5126,
			"count":2913,
			"max":[
				0.6470317244529724,
				0.6345899105072021,
				0.6470317244529724
			],
			"min":[
				-0.6470317244529724,
				0,
				-0.6470317244529724
			],
			"type":"VEC3"
		},
		{
			"bufferView":1,
			"componentType":5126,
			"count":2913,
			"type":"VEC3"
		},
		{
			"bufferView":2,
			"componentType":5126,
			"count":2913,
			"type":"VEC2"
		},
		{
			"bufferView":3,
			"componentType":5123,
			"count":5100,
			"type":"SCALAR"
		},
		{
			"bufferView":4,
			"componentType":5126,
			"count":1160,
			"max":[
				0.6352112293243408,
				0.6381518244743347,
				0.6352112293243408
			],
			"min":[
				-0.6352112293243408,
				0,
				-0.6352112293243408
			],
			"type":"VEC3"
		},
		{
			"bufferView":5,
			"componentType":5126,
			"count":1160,
			"type":"VEC3"
		},
		{
			"bufferView":6,
			"componentType":5126,
			"count":1160,
			"type":"VEC2"
		},
		{
			"bufferView":7,
			"componentType":5123,
			"count":1860,
			"type":"SCALAR"
		},
		{
			"bufferView":8,
			"componentType":5126,
			"count":1176,
			"max":[
				0.5828166007995605,
				0.6347078680992126,
				0.582817554473877
			],
			"min":[
				-0.5828180313110352,
				0.07139955461025238,
				-0.582817554473877
			],
			"type":"VEC3"
		},
		{
			"bufferView":9,
			"componentType":5126,
			"count":1176,
			"type":"VEC3"
		},
		{
			"bufferView":10,
			"componentType":5126,
			"count":1176,
			"type":"VEC2"
		},
		{
			"bufferView":11,
			"componentType":5123,
			"count":2100,
			"type":"SCALAR"
		},
		{
			"bufferView":12,
			"componentType":5126,
			"count":388,
			"max":[
				0.5996271371841431,
				0.4526062607765198,
				0.5996271371841431
			],
			"min":[
				-0.5996271371841431,
				0,
				-0.5996271371841431
			],
			"type":"VEC3"
		},
		{
			"bufferView":13,
			"componentType":5126,
			"count":388,
			"type":"VEC3"
		},
		{
			"bufferView":14,
			"componentType":5126,
			"count":388,
			"type":"VEC2"
		},
		{
			"bufferView":15,
			"componentType":5123,
			"count":942,
			"type":"SCALAR"
		}
	],
	"bufferViews":[
		{
			"buffer":0,
			"byteLength":34956,
			"byteOffset":0,
			"target":34962
		},
		{
			"buffer":0,
			"byteLength":34956,
			"byteOffset":34956,
			"target":34962
		},
		{
			"buffer":0,
			"byteLength":23304,
			"byteOffset":69912,
			"target":34962
		},
		{
			"buffer":0,
			"byteLength":10200,
			"byteOffset":93216,
			"target":34963
		},
		{
			"buffer":0,
			"byteLength":13920,
			"byteOffset":103416,
			"target":34962
		},
		{
			"buffer":0,
			"byteLength":13920,
			"byteOffset":117336,
			"target":34962
		},
		{
			"buffer":0,
			"byteLength":9280,
			"byteOffset":131256,
			"target":34962
		},
		{
			"buffer":0,
			"byteLength":3720,
			"byteOffset":140536,
			"target":34963
		},
		{
			"buffer":0,
			"byteLength":14112,
			"byteOffset":144256,
			"target":34962
		},
		{
			"buffer":0,
			"byteLength":14112,
			"byteOffset":158368,
			"target":34962
		},
		{
			"buffer":0,
			"byteLength":9408,
			"byteOffset":172480,
			"target":34962
		},
		{
			"buffer":0,
			"byteLength":4200,
			"byteOffset":181888,
			"target":34963
		},
		{
			"buffer":0,
			"byteLength":4656,
			"byteOffset":186088,
			"target":34962
		},
		{
			"buffer":0,
			"byteLength":4656,
			"byteOffset":190744,
			"target":34962
		},
		{
			"buffer":0,
			"byteLength":3104,
			"byteOffset":195400,
			"target":34962
		},
		{
			"buffer":0,
			"byteLength":1884,
			"byteOffset":198504,
			"target":34963
		}
	],
	"samplers":[
		{
			"magFilter":9729,
			"minFilter":9987
		}
	],
	"buffers":[
		{
			"byteLength":200388,
			"uri":"Farm.bin"
		}
	]
}
