{
	"asset":{
		"generator":"Khronos glTF Blender I/O v4.3.47",
		"version":"2.0"
	},
	"scene":0,
	"scenes":[
		{
			"extras":{
				"bc":{
					"snap":{
						"hit":false
					},
					"running":0,
					"collection":null,
					"shape":null
				},
				"GodotPipelineProps":{
					"mesh_data":0,
					"export_UI":1,
					"counter":3,
					"save_path":"//..\\..\\..\\..\\source\\repos\\Main_Game\\AstromortisRenderer\\Building Models\\Erholungscenter_2.0\\New_Erholungscenter.gltf"
				}
			},
			"name":"Scene",
			"nodes":[
				0,
				1
			]
		}
	],
	"nodes":[
		{
			"extras":{
				"hops":{}
			},
			"mesh":0,
			"name":"Sphere"
		},
		{
			"extras":{
				"hops":{}
			},
			"mesh":1,
			"name":"Sphere.001"
		}
	],
	"materials":[
		{
			"doubleSided":true,
			"name":"Space_Metal_Rust_1",
			"normalTexture":{
				"index":0
			},
			"pbrMetallicRoughness":{
				"baseColorTexture":{
					"index":1
				},
				"metallicRoughnessTexture":{
					"index":2
				}
			}
		},
		{
			"alphaMode":"BLEND",
			"doubleSided":true,
			"name":"Space_Glas",
			"pbrMetallicRoughness":{
				"baseColorFactor":[
					0.8001489639282227,
					0.22129836678504944,
					0.12329214066267014,
					0.39563804864883423
				],
				"metallicFactor":0,
				"roughnessFactor":0.5
			}
		},
		{
			"doubleSided":true,
			"name":"Space_Metal_Rust_2",
			"normalTexture":{
				"index":3
			},
			"pbrMetallicRoughness":{
				"baseColorTexture":{
					"index":4
				},
				"metallicRoughnessTexture":{
					"index":5
				}
			}
		},
		{
			"alphaMode":"BLEND",
			"doubleSided":true,
			"name":"Space_Gitter_Rust_1",
			"normalTexture":{
				"index":6
			},
			"pbrMetallicRoughness":{
				"baseColorTexture":{
					"index":7
				},
				"metallicRoughnessTexture":{
					"index":8
				}
			}
		}
	],
	"meshes":[
		{
			"extras":{
				"hops":{}
			},
			"name":"Sphere",
			"primitives":[
				{
					"attributes":{
						"POSITION":0,
						"NORMAL":1,
						"TEXCOORD_0":2
					},
					"indices":3,
					"material":0
				},
				{
					"attributes":{
						"POSITION":4,
						"NORMAL":5,
						"TEXCOORD_0":6
					},
					"indices":7,
					"material":1
				},
				{
					"attributes":{
						"POSITION":8,
						"NORMAL":9,
						"TEXCOORD_0":10
					},
					"indices":11,
					"material":2
				}
			]
		},
		{
			"extras":{
				"hops":{}
			},
			"name":"Sphere.001",
			"primitives":[
				{
					"attributes":{
						"POSITION":12,
						"NORMAL":13,
						"TEXCOORD_0":14
					},
					"indices":15,
					"material":3
				}
			]
		}
	],
	"textures":[
		{
			"sampler":0,
			"source":0
		},
		{
			"sampler":0,
			"source":1
		},
		{
			"sampler":0,
			"source":2
		},
		{
			"sampler":0,
			"source":3
		},
		{
			"sampler":0,
			"source":4
		},
		{
			"sampler":0,
			"source":5
		},
		{
			"sampler":0,
			"source":6
		},
		{
			"sampler":0,
			"source":7
		},
		{
			"sampler":0,
			"source":8
		}
	],
	"images":[
		{
			"mimeType":"image/jpeg",
			"name":"MetalPlates011_1K-JPG_NormalGL",
			"uri":"MetalPlates011_1K-JPG_NormalGL.jpg"
		},
		{
			"mimeType":"image/jpeg",
			"name":"MetalPlates011_1K-JPG_Color",
			"uri":"MetalPlates011_1K-JPG_Color.jpg"
		},
		{
			"mimeType":"image/png",
			"name":"MetalPlates011_1K-JPG_Metalness-MetalPlates011_1K-JPG_Roughness",
			"uri":"MetalPlates011_1K-JPG_Metalness-MetalPlates011_1K-JPG_Roughness.png"
		},
		{
			"mimeType":"image/jpeg",
			"name":"MetalPlates010_1K-JPG_NormalGL",
			"uri":"MetalPlates010_1K-JPG_NormalGL.jpg"
		},
		{
			"mimeType":"image/jpeg",
			"name":"MetalPlates010_1K-JPG_Color",
			"uri":"MetalPlates010_1K-JPG_Color.jpg"
		},
		{
			"mimeType":"image/png",
			"name":"MetalPlates010_1K-JPG_Metalness-MetalPlates010_1K-JPG_Roughness",
			"uri":"MetalPlates010_1K-JPG_Metalness-MetalPlates010_1K-JPG_Roughness.png"
		},
		{
			"mimeType":"image/jpeg",
			"name":"MetalWalkway002_1K-JPG_NormalGL",
			"uri":"MetalWalkway002_1K-JPG_NormalGL.jpg"
		},
		{
			"mimeType":"image/png",
			"name":"MetalWalkway002_1K-JPG_Color-MetalWalkway002_1K-JPG_Opacity",
			"uri":"MetalWalkway002_1K-JPG_Color-MetalWalkway002_1K-JPG_Opacity.png"
		},
		{
			"mimeType":"image/png",
			"name":"MetalWalkway002_1K-JPG_Metalness-MetalWalkway002_1K-JPG_Roughness",
			"uri":"MetalWalkway002_1K-JPG_Metalness-MetalWalkway002_1K-JPG_Roughness.png"
		}
	],
	"accessors":[
		{
			"bufferView":0,
			"componentType":5126,
			"count":1023,
			"max":[
				5.769484996795654,
				7.234622001647949,
				5.573557376861572
			],
			"min":[
				-5.769484519958496,
				-0.038661837577819824,
				-5.5735578536987305
			],
			"type":"VEC3"
		},
		{
			"bufferView":1,
			"componentType":5126,
			"count":1023,
			"type":"VEC3"
		},
		{
			"bufferView":2,
			"componentType":5126,
			"count":1023,
			"type":"VEC2"
		},
		{
			"bufferView":3,
			"componentType":5123,
			"count":3150,
			"type":"SCALAR"
		},
		{
			"bufferView":4,
			"componentType":5126,
			"count":218,
			"max":[
				4.23101806640625,
				7.600000381469727,
				4.588579177856445
			],
			"min":[
				-4.231016159057617,
				2.947758674621582,
				-4.5885820388793945
			],
			"type":"VEC3"
		},
		{
			"bufferView":5,
			"componentType":5126,
			"count":218,
			"type":"VEC3"
		},
		{
			"bufferView":6,
			"componentType":5126,
			"count":218,
			"type":"VEC2"
		},
		{
			"bufferView":7,
			"componentType":5123,
			"count":648,
			"type":"SCALAR"
		},
		{
			"bufferView":8,
			"componentType":5126,
			"count":65,
			"max":[
				-2.042433738708496,
				2.397451639175415,
				-3.4787063598632812
			],
			"min":[
				-3.6807379722595215,
				0.12164348363876343,
				-4.62585973739624
			],
			"type":"VEC3"
		},
		{
			"bufferView":9,
			"componentType":5126,
			"count":65,
			"type":"VEC3"
		},
		{
			"bufferView":10,
			"componentType":5126,
			"count":65,
			"type":"VEC2"
		},
		{
			"bufferView":11,
			"componentType":5123,
			"count":279,
			"type":"SCALAR"
		},
		{
			"bufferView":12,
			"componentType":5126,
			"count":224,
			"max":[
				4.892340183258057,
				7.234622001647949,
				4.808151721954346
			],
			"min":[
				-4.892536163330078,
				1.8635663986206055,
				-4.808151721954346
			],
			"type":"VEC3"
		},
		{
			"bufferView":13,
			"componentType":5126,
			"count":224,
			"type":"VEC3"
		},
		{
			"bufferView":14,
			"componentType":5126,
			"count":224,
			"type":"VEC2"
		},
		{
			"bufferView":15,
			"componentType":5123,
			"count":336,
			"type":"SCALAR"
		}
	],
	"bufferViews":[
		{
			"buffer":0,
			"byteLength":12276,
			"byteOffset":0,
			"target":34962
		},
		{
			"buffer":0,
			"byteLength":12276,
			"byteOffset":12276,
			"target":34962
		},
		{
			"buffer":0,
			"byteLength":8184,
			"byteOffset":24552,
			"target":34962
		},
		{
			"buffer":0,
			"byteLength":6300,
			"byteOffset":32736,
			"target":34963
		},
		{
			"buffer":0,
			"byteLength":2616,
			"byteOffset":39036,
			"target":34962
		},
		{
			"buffer":0,
			"byteLength":2616,
			"byteOffset":41652,
			"target":34962
		},
		{
			"buffer":0,
			"byteLength":1744,
			"byteOffset":44268,
			"target":34962
		},
		{
			"buffer":0,
			"byteLength":1296,
			"byteOffset":46012,
			"target":34963
		},
		{
			"buffer":0,
			"byteLength":780,
			"byteOffset":47308,
			"target":34962
		},
		{
			"buffer":0,
			"byteLength":780,
			"byteOffset":48088,
			"target":34962
		},
		{
			"buffer":0,
			"byteLength":520,
			"byteOffset":48868,
			"target":34962
		},
		{
			"buffer":0,
			"byteLength":558,
			"byteOffset":49388,
			"target":34963
		},
		{
			"buffer":0,
			"byteLength":2688,
			"byteOffset":49948,
			"target":34962
		},
		{
			"buffer":0,
			"byteLength":2688,
			"byteOffset":52636,
			"target":34962
		},
		{
			"buffer":0,
			"byteLength":1792,
			"byteOffset":55324,
			"target":34962
		},
		{
			"buffer":0,
			"byteLength":672,
			"byteOffset":57116,
			"target":34963
		}
	],
	"samplers":[
		{
			"magFilter":9729,
			"minFilter":9987
		}
	],
	"buffers":[
		{
			"byteLength":57788,
			"uri":"New_Erholungscenter.bin"
		}
	]
}
