{
	"asset":{
		"generator":"Khronos glTF Blender I/O v4.3.47",
		"version":"2.0"
	},
	"scene":0,
	"scenes":[
		{
			"extras":{
				"bc":{
					"snap":{
						"hit":false,
						"type":"",
						"location":[
							0.0,
							0.0,
							0.0
						],
						"normal":[
							0.0,
							0.0,
							0.0
						],
						"display":0
					},
					"running":0,
					"collection":null,
					"shape":null,
					"original_active":null,
					"last":{
						"surface":"VIEW"
					},
					"plane":null,
					"lattice":null,
					"empty":null,
					"location":[
						0.0,
						0.0,
						0.0
					],
					"slice":null,
					"inset":null,
					"bevel":null,
					"wedge_point":1,
					"stored_shape":{},
					"recall_collection":{},
					"start_operation":0,
					"mirror_axis":[
						1,
						1,
						0
					],
					"mirror_axis_flip":[
						0,
						0,
						0
					],
					"snap_type":"",
					"wedge_slim":1
				},
				"hops":{
					"collection":null
				},
				"GodotPipelineProps":{
					"mesh_data":0,
					"export_UI":1,
					"save_path":"//..\\..\\..\\..\\source\\repos\\Main_Game\\AstromortisRenderer\\Building Models\\Living_Quater\\Living_Quater.gltf",
					"counter":21
				}
			},
			"name":"Scene",
			"nodes":[
				0
			]
		}
	],
	"nodes":[
		{
			"extras":{
				"hops":{}
			},
			"mesh":0,
			"name":"Living_Quater",
			"rotation":[
				0,
				0.3826834261417389,
				0,
				0.9238795638084412
			],
			"scale":[
				11.289599418640137,
				11.289599418640137,
				11.289599418640137
			]
		}
	],
	"materials":[
		{
			"alphaMode":"BLEND",
			"doubleSided":true,
			"name":"Glas_Living_Quater_M",
			"pbrMetallicRoughness":{
				"baseColorFactor":[
					0.21727809309959412,
					0.5577172636985779,
					0.8000156879425049,
					0.3252032399177551
				],
				"metallicFactor":0,
				"roughnessFactor":0.41463416814804077
			}
		},
		{
			"doubleSided":true,
			"name":"Kuppelger\u00fcst_Living_Quater_M",
			"pbrMetallicRoughness":{
				"baseColorFactor":[
					0.800000011920929,
					0.800000011920929,
					0.800000011920929,
					1
				]
			}
		},
		{
			"doubleSided":true,
			"name":"Boden_Living_Quater_M",
			"pbrMetallicRoughness":{
				"baseColorFactor":[
					0.9856688976287842,
					0.9714425802230835,
					1,
					1
				]
			}
		},
		{
			"doubleSided":true,
			"name":"Geb\u00e4ude_Living_Quater_M"
		},
		{
			"doubleSided":true,
			"name":"Geb\u00e4udeboden_Living_Quater_M",
			"pbrMetallicRoughness":{
				"baseColorFactor":[
					0.800000011920929,
					0.800000011920929,
					0.800000011920929,
					1
				],
				"metallicFactor":0,
				"roughnessFactor":0.5
			}
		}
	],
	"meshes":[
		{
			"extras":{
				"hops":{}
			},
			"name":"Living_Quater",
			"primitives":[
				{
					"attributes":{
						"POSITION":0,
						"NORMAL":1,
						"TEXCOORD_0":2
					},
					"indices":3,
					"material":0
				},
				{
					"attributes":{
						"POSITION":4,
						"NORMAL":5,
						"TEXCOORD_0":6
					},
					"indices":7,
					"material":1
				},
				{
					"attributes":{
						"POSITION":8,
						"NORMAL":9,
						"TEXCOORD_0":10
					},
					"indices":11,
					"material":2
				},
				{
					"attributes":{
						"POSITION":12,
						"NORMAL":13,
						"TEXCOORD_0":14
					},
					"indices":15,
					"material":3
				},
				{
					"attributes":{
						"POSITION":16,
						"NORMAL":17,
						"TEXCOORD_0":18
					},
					"indices":19,
					"material":4
				}
			]
		}
	],
	"accessors":[
		{
			"bufferView":0,
			"componentType":5126,
			"count":224,
			"max":[
				0.9491701126098633,
				0.9900436401367188,
				0.9886555075645447
			],
			"min":[
				-0.9477108716964722,
				0.01490718126296997,
				-0.9886555075645447
			],
			"type":"VEC3"
		},
		{
			"bufferView":1,
			"componentType":5126,
			"count":224,
			"type":"VEC3"
		},
		{
			"bufferView":2,
			"componentType":5126,
			"count":224,
			"type":"VEC2"
		},
		{
			"bufferView":3,
			"componentType":5123,
			"count":336,
			"type":"SCALAR"
		},
		{
			"bufferView":4,
			"componentType":5126,
			"count":314,
			"max":[
				0.9510578513145447,
				1,
				0.9999999403953552
			],
			"min":[
				-0.9510578513145447,
				0,
				-0.9999999403953552
			],
			"type":"VEC3"
		},
		{
			"bufferView":5,
			"componentType":5126,
			"count":314,
			"type":"VEC3"
		},
		{
			"bufferView":6,
			"componentType":5126,
			"count":314,
			"type":"VEC2"
		},
		{
			"bufferView":7,
			"componentType":5123,
			"count":720,
			"type":"SCALAR"
		},
		{
			"bufferView":8,
			"componentType":5126,
			"count":70,
			"max":[
				0.9558336734771729,
				0.013072961941361427,
				1.0050216913223267
			],
			"min":[
				-0.9558336734771729,
				0,
				-1.0050216913223267
			],
			"type":"VEC3"
		},
		{
			"bufferView":9,
			"componentType":5126,
			"count":70,
			"type":"VEC3"
		},
		{
			"bufferView":10,
			"componentType":5126,
			"count":70,
			"type":"VEC2"
		},
		{
			"bufferView":11,
			"componentType":5123,
			"count":204,
			"type":"SCALAR"
		},
		{
			"bufferView":12,
			"componentType":5126,
			"count":575,
			"max":[
				0.8273290991783142,
				0.7142857313156128,
				0.831648588180542
			],
			"min":[
				-0.831648588180542,
				0.007817886769771576,
				-0.8273290991783142
			],
			"type":"VEC3"
		},
		{
			"bufferView":13,
			"componentType":5126,
			"count":575,
			"type":"VEC3"
		},
		{
			"bufferView":14,
			"componentType":5126,
			"count":575,
			"type":"VEC2"
		},
		{
			"bufferView":15,
			"componentType":5123,
			"count":2352,
			"type":"SCALAR"
		},
		{
			"bufferView":16,
			"componentType":5126,
			"count":269,
			"max":[
				0.8273290991783142,
				0.3571428656578064,
				0.831648588180542
			],
			"min":[
				-0.831648588180542,
				0.007817886769771576,
				-0.8273290991783142
			],
			"type":"VEC3"
		},
		{
			"bufferView":17,
			"componentType":5126,
			"count":269,
			"type":"VEC3"
		},
		{
			"bufferView":18,
			"componentType":5126,
			"count":269,
			"type":"VEC2"
		},
		{
			"bufferView":19,
			"componentType":5123,
			"count":918,
			"type":"SCALAR"
		}
	],
	"bufferViews":[
		{
			"buffer":0,
			"byteLength":2688,
			"byteOffset":0,
			"target":34962
		},
		{
			"buffer":0,
			"byteLength":2688,
			"byteOffset":2688,
			"target":34962
		},
		{
			"buffer":0,
			"byteLength":1792,
			"byteOffset":5376,
			"target":34962
		},
		{
			"buffer":0,
			"byteLength":672,
			"byteOffset":7168,
			"target":34963
		},
		{
			"buffer":0,
			"byteLength":3768,
			"byteOffset":7840,
			"target":34962
		},
		{
			"buffer":0,
			"byteLength":3768,
			"byteOffset":11608,
			"target":34962
		},
		{
			"buffer":0,
			"byteLength":2512,
			"byteOffset":15376,
			"target":34962
		},
		{
			"buffer":0,
			"byteLength":1440,
			"byteOffset":17888,
			"target":34963
		},
		{
			"buffer":0,
			"byteLength":840,
			"byteOffset":19328,
			"target":34962
		},
		{
			"buffer":0,
			"byteLength":840,
			"byteOffset":20168,
			"target":34962
		},
		{
			"buffer":0,
			"byteLength":560,
			"byteOffset":21008,
			"target":34962
		},
		{
			"buffer":0,
			"byteLength":408,
			"byteOffset":21568,
			"target":34963
		},
		{
			"buffer":0,
			"byteLength":6900,
			"byteOffset":21976,
			"target":34962
		},
		{
			"buffer":0,
			"byteLength":6900,
			"byteOffset":28876,
			"target":34962
		},
		{
			"buffer":0,
			"byteLength":4600,
			"byteOffset":35776,
			"target":34962
		},
		{
			"buffer":0,
			"byteLength":4704,
			"byteOffset":40376,
			"target":34963
		},
		{
			"buffer":0,
			"byteLength":3228,
			"byteOffset":45080,
			"target":34962
		},
		{
			"buffer":0,
			"byteLength":3228,
			"byteOffset":48308,
			"target":34962
		},
		{
			"buffer":0,
			"byteLength":2152,
			"byteOffset":51536,
			"target":34962
		},
		{
			"buffer":0,
			"byteLength":1836,
			"byteOffset":53688,
			"target":34963
		}
	],
	"buffers":[
		{
			"byteLength":55524,
			"uri":"Living_Quater.bin"
		}
	]
}
