{
	"asset":{
		"generator":"Khronos glTF Blender I/O v4.3.47",
		"version":"2.0"
	},
	"scene":0,
	"scenes":[
		{
			"extras":{
				"bc":{
					"snap":{
						"hit":false,
						"type":"",
						"location":[
							0.0,
							0.0,
							0.0
						],
						"normal":[
							0.0,
							0.0,
							0.0
						],
						"display":0
					},
					"running":0,
					"collection":null,
					"shape":null,
					"original_active":null,
					"last":{
						"surface":"VIEW"
					},
					"plane":null,
					"lattice":null,
					"empty":null,
					"location":[
						0.0,
						0.0,
						0.0
					],
					"slice":null,
					"inset":null,
					"bevel":null,
					"wedge_point":1,
					"stored_shape":{},
					"recall_collection":{},
					"start_operation":0,
					"mirror_axis":[
						1,
						1,
						0
					],
					"mirror_axis_flip":[
						0,
						0,
						0
					],
					"snap_type":"",
					"wedge_slim":1
				},
				"hops":{
					"collection":null
				},
				"GodotPipelineProps":{
					"mesh_data":0,
					"export_UI":1,
					"save_path":"//..\\..\\..\\..\\source\\repos\\Main_Game\\AstromortisRenderer\\Building Models\\Living_Quater\\Living_Quater.gltf",
					"counter":25
				}
			},
			"name":"Scene",
			"nodes":[
				0
			]
		}
	],
	"nodes":[
		{
			"extras":{
				"hops":{}
			},
			"mesh":0,
			"name":"Living_Quater",
			"rotation":[
				0,
				0.3826834261417389,
				0,
				0.9238795638084412
			],
			"scale":[
				11.289599418640137,
				11.289599418640137,
				11.289599418640137
			]
		}
	],
	"materials":[
		{
			"alphaMode":"BLEND",
			"doubleSided":true,
			"name":"Glas_Living_Quater_M",
			"pbrMetallicRoughness":{
				"baseColorFactor":[
					0.21727809309959412,
					0.5577172636985779,
					0.8000156879425049,
					0.3252032399177551
				],
				"metallicFactor":0,
				"roughnessFactor":0.41463416814804077
			}
		},
		{
			"doubleSided":true,
			"name":"Kuppelger\u00fcst_Living_Quater_M",
			"pbrMetallicRoughness":{
				"baseColorFactor":[
					0.800000011920929,
					0.800000011920929,
					0.800000011920929,
					1
				]
			}
		},
		{
			"doubleSided":true,
			"name":"Boden_Living_Quater_M",
			"pbrMetallicRoughness":{
				"baseColorFactor":[
					0.9856688976287842,
					0.9714425802230835,
					1,
					1
				]
			}
		}
	],
	"meshes":[
		{
			"extras":{
				"hops":{}
			},
			"name":"Living_Quater",
			"primitives":[
				{
					"attributes":{
						"POSITION":0,
						"NORMAL":1,
						"TEXCOORD_0":2
					},
					"indices":3,
					"material":0
				},
				{
					"attributes":{
						"POSITION":4,
						"NORMAL":5,
						"TEXCOORD_0":6
					},
					"indices":7,
					"material":1
				},
				{
					"attributes":{
						"POSITION":8,
						"NORMAL":9,
						"TEXCOORD_0":10
					},
					"indices":11,
					"material":2
				}
			]
		}
	],
	"accessors":[
		{
			"bufferView":0,
			"componentType":5126,
			"count":117,
			"max":[
				0.9491701126098633,
				1.0786207914352417,
				0.9886555075645447
			],
			"min":[
				-0.9477108716964722,
				0.10348428785800934,
				-0.9886555075645447
			],
			"type":"VEC3"
		},
		{
			"bufferView":1,
			"componentType":5126,
			"count":117,
			"type":"VEC3"
		},
		{
			"bufferView":2,
			"componentType":5126,
			"count":117,
			"type":"VEC2"
		},
		{
			"bufferView":3,
			"componentType":5123,
			"count":117,
			"type":"SCALAR"
		},
		{
			"bufferView":4,
			"componentType":5126,
			"count":346,
			"max":[
				0.9510578513145447,
				1.088577151298523,
				0.9999999403953552
			],
			"min":[
				-0.9510578513145447,
				0,
				-0.9999999403953552
			],
			"type":"VEC3"
		},
		{
			"bufferView":5,
			"componentType":5126,
			"count":346,
			"type":"VEC3"
		},
		{
			"bufferView":6,
			"componentType":5126,
			"count":346,
			"type":"VEC2"
		},
		{
			"bufferView":7,
			"componentType":5123,
			"count":762,
			"type":"SCALAR"
		},
		{
			"bufferView":8,
			"componentType":5126,
			"count":70,
			"max":[
				0.9558336734771729,
				0.10165006667375565,
				1.0050216913223267
			],
			"min":[
				-0.9558336734771729,
				0,
				-1.0050216913223267
			],
			"type":"VEC3"
		},
		{
			"bufferView":9,
			"componentType":5126,
			"count":70,
			"type":"VEC3"
		},
		{
			"bufferView":10,
			"componentType":5126,
			"count":70,
			"type":"VEC2"
		},
		{
			"bufferView":11,
			"componentType":5123,
			"count":204,
			"type":"SCALAR"
		}
	],
	"bufferViews":[
		{
			"buffer":0,
			"byteLength":1404,
			"byteOffset":0,
			"target":34962
		},
		{
			"buffer":0,
			"byteLength":1404,
			"byteOffset":1404,
			"target":34962
		},
		{
			"buffer":0,
			"byteLength":936,
			"byteOffset":2808,
			"target":34962
		},
		{
			"buffer":0,
			"byteLength":234,
			"byteOffset":3744,
			"target":34963
		},
		{
			"buffer":0,
			"byteLength":4152,
			"byteOffset":3980,
			"target":34962
		},
		{
			"buffer":0,
			"byteLength":4152,
			"byteOffset":8132,
			"target":34962
		},
		{
			"buffer":0,
			"byteLength":2768,
			"byteOffset":12284,
			"target":34962
		},
		{
			"buffer":0,
			"byteLength":1524,
			"byteOffset":15052,
			"target":34963
		},
		{
			"buffer":0,
			"byteLength":840,
			"byteOffset":16576,
			"target":34962
		},
		{
			"buffer":0,
			"byteLength":840,
			"byteOffset":17416,
			"target":34962
		},
		{
			"buffer":0,
			"byteLength":560,
			"byteOffset":18256,
			"target":34962
		},
		{
			"buffer":0,
			"byteLength":408,
			"byteOffset":18816,
			"target":34963
		}
	],
	"buffers":[
		{
			"byteLength":19224,
			"uri":"Living_Quater.bin"
		}
	]
}
