{
	"asset":{
		"generator":"Khronos glTF Blender I/O v4.3.47",
		"version":"2.0"
	},
	"scene":0,
	"scenes":[
		{
			"extras":{
				"bc":{
					"snap":{
						"hit":false,
						"type":"",
						"location":[
							0.0,
							0.0,
							0.0
						],
						"normal":[
							0.0,
							0.0,
							0.0
						],
						"display":0
					},
					"running":0,
					"collection":null,
					"shape":null,
					"original_active":null,
					"last":{
						"surface":"VIEW"
					},
					"plane":null,
					"lattice":null,
					"empty":null,
					"location":[
						0.0,
						0.0,
						0.0
					],
					"slice":null,
					"inset":null,
					"bevel":null,
					"wedge_point":1,
					"stored_shape":{},
					"recall_collection":{},
					"start_operation":0,
					"mirror_axis":[
						1,
						1,
						0
					],
					"mirror_axis_flip":[
						0,
						0,
						0
					],
					"snap_type":"",
					"wedge_slim":1
				},
				"hops":{
					"collection":null
				},
				"GodotPipelineProps":{
					"mesh_data":0,
					"export_UI":1,
					"save_path":"//..\\..\\..\\..\\source\\repos\\Main_Game\\AstromortisRenderer\\Building Models\\Living_Quater\\Living_Quater.gltf",
					"counter":38
				}
			},
			"name":"Scene",
			"nodes":[
				0,
				1
			]
		}
	],
	"nodes":[
		{
			"extras":{
				"hops":{}
			},
			"mesh":0,
			"name":"Cube"
		},
		{
			"extras":{
				"hops":{}
			},
			"mesh":1,
			"name":"Living_Quater",
			"rotation":[
				0,
				0.3826834261417389,
				0,
				0.9238795638084412
			],
			"scale":[
				11.289599418640137,
				11.289599418640137,
				11.289599418640137
			]
		}
	],
	"materials":[
		{
			"doubleSided":true,
			"name":"Living_Quater_Builidng_Fasade01",
			"normalTexture":{
				"index":0
			},
			"pbrMetallicRoughness":{
				"baseColorTexture":{
					"index":1
				},
				"metallicRoughnessTexture":{
					"index":2
				}
			}
		},
		{
			"alphaMode":"BLEND",
			"doubleSided":true,
			"name":"Glas_Living_Quater_M",
			"pbrMetallicRoughness":{
				"baseColorFactor":[
					0.21727809309959412,
					0.5577172636985779,
					0.8000156879425049,
					0.3252032399177551
				],
				"metallicFactor":0,
				"roughnessFactor":0.41463416814804077
			}
		},
		{
			"doubleSided":true,
			"name":"Kuppelger\u00fcst_Living_Quater_M",
			"pbrMetallicRoughness":{
				"baseColorFactor":[
					0.800000011920929,
					0.800000011920929,
					0.800000011920929,
					1
				]
			}
		},
		{
			"doubleSided":true,
			"name":"Boden_Living_Quater_M",
			"normalTexture":{
				"index":3
			},
			"pbrMetallicRoughness":{
				"baseColorTexture":{
					"index":4
				},
				"metallicRoughnessTexture":{
					"index":5
				}
			}
		}
	],
	"meshes":[
		{
			"extras":{
				"hops":{}
			},
			"name":"Cube.001",
			"primitives":[
				{
					"attributes":{
						"POSITION":0,
						"NORMAL":1,
						"TEXCOORD_0":2
					},
					"indices":3,
					"material":0
				}
			]
		},
		{
			"extras":{
				"hops":{}
			},
			"name":"Living_Quater",
			"primitives":[
				{
					"attributes":{
						"POSITION":4,
						"NORMAL":5,
						"TEXCOORD_0":6
					},
					"indices":7,
					"material":1
				},
				{
					"attributes":{
						"POSITION":8,
						"NORMAL":9,
						"TEXCOORD_0":10
					},
					"indices":11,
					"material":2
				},
				{
					"attributes":{
						"POSITION":12,
						"NORMAL":13,
						"TEXCOORD_0":14
					},
					"indices":15,
					"material":3
				}
			]
		}
	],
	"textures":[
		{
			"sampler":0,
			"source":0
		},
		{
			"sampler":0,
			"source":1
		},
		{
			"sampler":0,
			"source":2
		},
		{
			"sampler":0,
			"source":3
		},
		{
			"sampler":0,
			"source":4
		},
		{
			"sampler":0,
			"source":5
		}
	],
	"images":[
		{
			"mimeType":"image/png",
			"name":"Facade006_1K-PNG_NormalGL",
			"uri":"Facade006_1K-PNG_NormalGL.png"
		},
		{
			"mimeType":"image/png",
			"name":"Facade006_1K-PNG_Color",
			"uri":"Facade006_1K-PNG_Color.png"
		},
		{
			"mimeType":"image/png",
			"name":"Facade006_1K-PNG_Metalness-Facade006_1K-PNG_Roughness",
			"uri":"Facade006_1K-PNG_Metalness-Facade006_1K-PNG_Roughness.png"
		},
		{
			"mimeType":"image/png",
			"name":"MetalPlates004_1K-PNG_NormalGL",
			"uri":"MetalPlates004_1K-PNG_NormalGL.png"
		},
		{
			"mimeType":"image/png",
			"name":"MetalPlates004_1K-PNG_Color",
			"uri":"MetalPlates004_1K-PNG_Color.png"
		},
		{
			"mimeType":"image/png",
			"name":"MetalPlates004_1K-PNG_Metalness-MetalPlates004_1K-PNG_Roughness",
			"uri":"MetalPlates004_1K-PNG_Metalness-MetalPlates004_1K-PNG_Roughness.png"
		}
	],
	"accessors":[
		{
			"bufferView":0,
			"componentType":5126,
			"count":202,
			"max":[
				9,
				9,
				8.197200775146484
			],
			"min":[
				-10,
				1,
				-8.197200775146484
			],
			"type":"VEC3"
		},
		{
			"bufferView":1,
			"componentType":5126,
			"count":202,
			"type":"VEC3"
		},
		{
			"bufferView":2,
			"componentType":5126,
			"count":202,
			"type":"VEC2"
		},
		{
			"bufferView":3,
			"componentType":5123,
			"count":348,
			"type":"SCALAR"
		},
		{
			"bufferView":4,
			"componentType":5126,
			"count":120,
			"max":[
				0.9491701126098633,
				1.0786207914352417,
				0.9886555075645447
			],
			"min":[
				-0.9477108716964722,
				0.10348428785800934,
				-0.9886555075645447
			],
			"type":"VEC3"
		},
		{
			"bufferView":5,
			"componentType":5126,
			"count":120,
			"type":"VEC3"
		},
		{
			"bufferView":6,
			"componentType":5126,
			"count":120,
			"type":"VEC2"
		},
		{
			"bufferView":7,
			"componentType":5123,
			"count":120,
			"type":"SCALAR"
		},
		{
			"bufferView":8,
			"componentType":5126,
			"count":386,
			"max":[
				0.9510578513145447,
				1.088577151298523,
				0.9999999403953552
			],
			"min":[
				-0.9510578513145447,
				0,
				-0.9999999403953552
			],
			"type":"VEC3"
		},
		{
			"bufferView":9,
			"componentType":5126,
			"count":386,
			"type":"VEC3"
		},
		{
			"bufferView":10,
			"componentType":5126,
			"count":386,
			"type":"VEC2"
		},
		{
			"bufferView":11,
			"componentType":5123,
			"count":846,
			"type":"SCALAR"
		},
		{
			"bufferView":12,
			"componentType":5126,
			"count":110,
			"max":[
				0.9510578513145447,
				0.08857710659503937,
				0.9999999403953552
			],
			"min":[
				-0.9510578513145447,
				0,
				-0.9999999403953552
			],
			"type":"VEC3"
		},
		{
			"bufferView":13,
			"componentType":5126,
			"count":110,
			"type":"VEC3"
		},
		{
			"bufferView":14,
			"componentType":5126,
			"count":110,
			"type":"VEC2"
		},
		{
			"bufferView":15,
			"componentType":5123,
			"count":324,
			"type":"SCALAR"
		}
	],
	"bufferViews":[
		{
			"buffer":0,
			"byteLength":2424,
			"byteOffset":0,
			"target":34962
		},
		{
			"buffer":0,
			"byteLength":2424,
			"byteOffset":2424,
			"target":34962
		},
		{
			"buffer":0,
			"byteLength":1616,
			"byteOffset":4848,
			"target":34962
		},
		{
			"buffer":0,
			"byteLength":696,
			"byteOffset":6464,
			"target":34963
		},
		{
			"buffer":0,
			"byteLength":1440,
			"byteOffset":7160,
			"target":34962
		},
		{
			"buffer":0,
			"byteLength":1440,
			"byteOffset":8600,
			"target":34962
		},
		{
			"buffer":0,
			"byteLength":960,
			"byteOffset":10040,
			"target":34962
		},
		{
			"buffer":0,
			"byteLength":240,
			"byteOffset":11000,
			"target":34963
		},
		{
			"buffer":0,
			"byteLength":4632,
			"byteOffset":11240,
			"target":34962
		},
		{
			"buffer":0,
			"byteLength":4632,
			"byteOffset":15872,
			"target":34962
		},
		{
			"buffer":0,
			"byteLength":3088,
			"byteOffset":20504,
			"target":34962
		},
		{
			"buffer":0,
			"byteLength":1692,
			"byteOffset":23592,
			"target":34963
		},
		{
			"buffer":0,
			"byteLength":1320,
			"byteOffset":25284,
			"target":34962
		},
		{
			"buffer":0,
			"byteLength":1320,
			"byteOffset":26604,
			"target":34962
		},
		{
			"buffer":0,
			"byteLength":880,
			"byteOffset":27924,
			"target":34962
		},
		{
			"buffer":0,
			"byteLength":648,
			"byteOffset":28804,
			"target":34963
		}
	],
	"samplers":[
		{
			"magFilter":9729,
			"minFilter":9987
		}
	],
	"buffers":[
		{
			"byteLength":29452,
			"uri":"Living_Quater.bin"
		}
	]
}
