{
	"asset":{
		"generator":"Khronos glTF Blender I/O v4.3.47",
		"version":"2.0"
	},
	"extensionsUsed":[
		"KHR_texture_transform"
	],
	"extensionsRequired":[
		"KHR_texture_transform"
	],
	"scene":0,
	"scenes":[
		{
			"extras":{
				"bc":{
					"snap":{
						"hit":false,
						"type":"",
						"location":[
							0.0,
							0.0,
							0.0
						],
						"normal":[
							-0.6736758351325989,
							0.6551207900047302,
							-0.34202003479003906
						],
						"display":0
					},
					"running":0,
					"collection":null,
					"shape":null,
					"original_active":null,
					"last":{
						"surface":"VIEW"
					},
					"plane":null,
					"lattice":null,
					"empty":null,
					"location":[
						0.0,
						0.0,
						0.0
					],
					"slice":null,
					"inset":null,
					"bevel":null,
					"wedge_point":3,
					"stored_shape":{},
					"recall_collection":{},
					"start_operation":0,
					"mirror_axis":[
						1,
						1,
						0
					],
					"mirror_axis_flip":[
						0,
						0,
						0
					],
					"snap_type":"",
					"wedge_slim":1
				},
				"hops":{
					"collection":null
				},
				"GodotPipelineProps":{
					"export_UI":1,
					"save_path":"//..\\..\\..\\..\\source\\repos\\Main_Game\\AstromortisRenderer\\Building Models\\Main_Factory\\Main_Factory.gltf",
					"counter":15,
					"mesh_data":0
				}
			},
			"name":"Scene",
			"nodes":[
				0
			]
		}
	],
	"nodes":[
		{
			"extras":{
				"hops":{}
			},
			"mesh":0,
			"name":"Plane",
			"scale":[
				0.3499999940395355,
				0.3499999940395355,
				0.3499999940395355
			]
		}
	],
	"materials":[
		{
			"doubleSided":true,
			"name":"Main_Factory_Beh\u00e4lter",
			"normalTexture":{
				"index":0,
				"scale":0
			},
			"pbrMetallicRoughness":{
				"baseColorTexture":{
					"index":1
				},
				"metallicRoughnessTexture":{
					"index":2
				}
			}
		},
		{
			"alphaMode":"BLEND",
			"doubleSided":true,
			"name":"Main_Factory_Beh\u00e4lter_Top",
			"normalTexture":{
				"index":3
			},
			"pbrMetallicRoughness":{
				"baseColorTexture":{
					"index":4
				},
				"metallicRoughnessTexture":{
					"index":5
				}
			}
		},
		{
			"doubleSided":true,
			"name":"Main_Factory_Asphalt",
			"normalTexture":{
				"extensions":{
					"KHR_texture_transform":{
						"offset":[
							0,
							-4
						],
						"scale":[
							5,
							5
						]
					}
				},
				"index":6
			},
			"pbrMetallicRoughness":{
				"baseColorTexture":{
					"extensions":{
						"KHR_texture_transform":{
							"offset":[
								0,
								-4
							],
							"scale":[
								5,
								5
							]
						}
					},
					"index":7
				},
				"metallicFactor":0,
				"metallicRoughnessTexture":{
					"extensions":{
						"KHR_texture_transform":{
							"offset":[
								0,
								-4
							],
							"scale":[
								5,
								5
							]
						}
					},
					"index":8
				}
			}
		},
		{
			"doubleSided":true,
			"name":"Main_Factory_3",
			"normalTexture":{
				"index":9
			},
			"pbrMetallicRoughness":{
				"baseColorTexture":{
					"index":10
				},
				"metallicRoughnessTexture":{
					"index":11
				}
			}
		},
		{
			"doubleSided":true,
			"name":"Main_Metal_M",
			"normalTexture":{
				"index":12,
				"scale":0.20000000298023224
			},
			"pbrMetallicRoughness":{
				"baseColorTexture":{
					"index":13
				},
				"metallicRoughnessTexture":{
					"index":14
				}
			}
		},
		{
			"doubleSided":true,
			"name":"MainFactory_Tents",
			"normalTexture":{
				"index":15
			},
			"pbrMetallicRoughness":{
				"baseColorTexture":{
					"index":16
				},
				"metallicFactor":0,
				"metallicRoughnessTexture":{
					"index":17
				}
			}
		},
		{
			"doubleSided":true,
			"name":"Main_Factory_Outside",
			"normalTexture":{
				"index":18
			},
			"pbrMetallicRoughness":{
				"baseColorTexture":{
					"index":19
				},
				"metallicRoughnessTexture":{
					"index":20
				}
			}
		},
		{
			"doubleSided":true,
			"name":"Main_Factory_Facade",
			"normalTexture":{
				"index":21
			},
			"pbrMetallicRoughness":{
				"baseColorTexture":{
					"index":22
				},
				"metallicRoughnessTexture":{
					"index":23
				}
			}
		}
	],
	"meshes":[
		{
			"extras":{
				"hops":{},
				"use_auto_smooth":1,
				"auto_smooth_angle":1.0471975803375244
			},
			"name":"Plane",
			"primitives":[
				{
					"attributes":{
						"POSITION":0,
						"NORMAL":1,
						"TEXCOORD_0":2
					},
					"indices":3,
					"material":0
				},
				{
					"attributes":{
						"POSITION":4,
						"NORMAL":5,
						"TEXCOORD_0":6
					},
					"indices":7,
					"material":1
				},
				{
					"attributes":{
						"POSITION":8,
						"NORMAL":9,
						"TEXCOORD_0":10
					},
					"indices":11,
					"material":2
				},
				{
					"attributes":{
						"POSITION":12,
						"NORMAL":13,
						"TEXCOORD_0":14
					},
					"indices":15,
					"material":3
				},
				{
					"attributes":{
						"POSITION":16,
						"NORMAL":17,
						"TEXCOORD_0":18
					},
					"indices":19,
					"material":4
				},
				{
					"attributes":{
						"POSITION":20,
						"NORMAL":21,
						"TEXCOORD_0":22
					},
					"indices":23,
					"material":5
				},
				{
					"attributes":{
						"POSITION":24,
						"NORMAL":25,
						"TEXCOORD_0":26
					},
					"indices":27,
					"material":6
				},
				{
					"attributes":{
						"POSITION":28,
						"NORMAL":29,
						"TEXCOORD_0":30
					},
					"indices":31,
					"material":7
				}
			]
		}
	],
	"textures":[
		{
			"sampler":0,
			"source":0
		},
		{
			"sampler":0,
			"source":1
		},
		{
			"sampler":0,
			"source":2
		},
		{
			"sampler":0,
			"source":3
		},
		{
			"sampler":0,
			"source":4
		},
		{
			"sampler":0,
			"source":5
		},
		{
			"sampler":0,
			"source":6
		},
		{
			"sampler":0,
			"source":7
		},
		{
			"sampler":0,
			"source":8
		},
		{
			"sampler":0,
			"source":9
		},
		{
			"sampler":0,
			"source":10
		},
		{
			"sampler":0,
			"source":11
		},
		{
			"sampler":0,
			"source":12
		},
		{
			"sampler":0,
			"source":13
		},
		{
			"sampler":0,
			"source":14
		},
		{
			"sampler":0,
			"source":15
		},
		{
			"sampler":0,
			"source":16
		},
		{
			"sampler":0,
			"source":17
		},
		{
			"sampler":0,
			"source":0
		},
		{
			"sampler":0,
			"source":1
		},
		{
			"sampler":0,
			"source":18
		},
		{
			"sampler":0,
			"source":19
		},
		{
			"sampler":0,
			"source":20
		},
		{
			"sampler":0,
			"source":21
		}
	],
	"images":[
		{
			"mimeType":"image/jpeg",
			"name":"CorrugatedSteel005_1K-JPG_NormalGL",
			"uri":"CorrugatedSteel005_1K-JPG_NormalGL.jpg"
		},
		{
			"mimeType":"image/jpeg",
			"name":"CorrugatedSteel005_1K-JPG_Color",
			"uri":"CorrugatedSteel005_1K-JPG_Color.jpg"
		},
		{
			"mimeType":"image/png",
			"name":"CorrugatedSteel005_1K-JPG_Metalness-CorrugatedSteel005_1K-JPG_Roughness",
			"uri":"CorrugatedSteel005_1K-JPG_Metalness-CorrugatedSteel005_1K-JPG_Roughness.png"
		},
		{
			"mimeType":"image/png",
			"name":"MetalWalkway011_1K-PNG_NormalGL",
			"uri":"MetalWalkway011_1K-PNG_NormalGL.png"
		},
		{
			"mimeType":"image/png",
			"name":"MetalWalkway011_1K-PNG_Color-MetalWalkway011_1K-PNG_Opacity",
			"uri":"MetalWalkway011_1K-PNG_Color-MetalWalkway011_1K-PNG_Opacity.png"
		},
		{
			"mimeType":"image/png",
			"name":"MetalWalkway011_1K-PNG_Metalness-MetalWalkway011_1K-PNG_Roughness",
			"uri":"MetalWalkway011_1K-PNG_Metalness-MetalWalkway011_1K-PNG_Roughness.png"
		},
		{
			"mimeType":"image/jpeg",
			"name":"Concrete033_1K-JPG_NormalGL",
			"uri":"Concrete033_1K-JPG_NormalGL.jpg"
		},
		{
			"mimeType":"image/jpeg",
			"name":"Concrete033_1K-JPG_Color",
			"uri":"Concrete033_1K-JPG_Color.jpg"
		},
		{
			"mimeType":"image/png",
			"name":"Concrete033_1K-JPG_Roughness",
			"uri":"Concrete033_1K-JPG_Roughness.png"
		},
		{
			"mimeType":"image/png",
			"name":"MetalPlates004_1K-PNG_NormalGL",
			"uri":"MetalPlates004_1K-PNG_NormalGL.png"
		},
		{
			"mimeType":"image/png",
			"name":"MetalPlates004_1K-PNG_Color_hell",
			"uri":"MetalPlates004_1K-PNG_Color_hell.png"
		},
		{
			"mimeType":"image/png",
			"name":"MetalPlates004_1K-PNG_Metalness-MetalPlates004_1K-PNG_Roughness",
			"uri":"MetalPlates004_1K-PNG_Metalness-MetalPlates004_1K-PNG_Roughness.png"
		},
		{
			"mimeType":"image/jpeg",
			"name":"Main_Bronze_Metal_Plates_M_Normal_1k",
			"uri":"Main_Bronze_Metal_Plates_M_Normal_1k.jpg"
		},
		{
			"mimeType":"image/jpeg",
			"name":"Main_Metal_Metal_Plates_M_Color1k",
			"uri":"Main_Metal_Metal_Plates_M_Color1k.jpg"
		},
		{
			"mimeType":"image/png",
			"name":"Main_Bronze_Metal_Plates_M_metalness_1k.png-Main_Bronze_Metal_Plates_M_Roughness_1k.jpg",
			"uri":"Main_Bronze_Metal_Plates_M_metalness_1k_png-Main_Bronze_Metal_Plates_M_Roughness_1k_jpg.png"
		},
		{
			"mimeType":"image/png",
			"name":"Fabric048_1K-PNG_NormalGL",
			"uri":"Fabric048_1K-PNG_NormalGL.png"
		},
		{
			"mimeType":"image/png",
			"name":"Fabric048_1K-PNG_Color",
			"uri":"Fabric048_1K-PNG_Color.png"
		},
		{
			"mimeType":"image/png",
			"name":"Fabric048_1K-PNG_Roughness",
			"uri":"Fabric048_1K-PNG_Roughness.png"
		},
		{
			"mimeType":"image/png",
			"name":"CorrugatedSteel005_1K-JPG_Metalness.jpg-CorrugatedSteel005_1K-JPG_Roughness.jpg",
			"uri":"CorrugatedSteel005_1K-JPG_Metalness_jpg-CorrugatedSteel005_1K-JPG_Roughness_jpg.png"
		},
		{
			"mimeType":"image/png",
			"name":"Facade001_1K-PNG_NormalGL",
			"uri":"Facade001_1K-PNG_NormalGL.png"
		},
		{
			"mimeType":"image/png",
			"name":"Facade001_1K-PNG_Color",
			"uri":"Facade001_1K-PNG_Color.png"
		},
		{
			"mimeType":"image/png",
			"name":"Facade001_1K-PNG_Metalness-Facade001_1K-PNG_Roughness",
			"uri":"Facade001_1K-PNG_Metalness-Facade001_1K-PNG_Roughness.png"
		}
	],
	"accessors":[
		{
			"bufferView":0,
			"componentType":5126,
			"count":344,
			"max":[
				62.67510223388672,
				19.00990104675293,
				38.400001525878906
			],
			"min":[
				-62.67510223388672,
				-0.22760915756225586,
				-38.400001525878906
			],
			"type":"VEC3"
		},
		{
			"bufferView":1,
			"componentType":5126,
			"count":344,
			"type":"VEC3"
		},
		{
			"bufferView":2,
			"componentType":5126,
			"count":344,
			"type":"VEC2"
		},
		{
			"bufferView":3,
			"componentType":5123,
			"count":648,
			"type":"SCALAR"
		},
		{
			"bufferView":4,
			"componentType":5126,
			"count":170,
			"max":[
				54.54190444946289,
				19,
				38.12962341308594
			],
			"min":[
				-54.54190444946289,
				18,
				-38.12962341308594
			],
			"type":"VEC3"
		},
		{
			"bufferView":5,
			"componentType":5126,
			"count":170,
			"type":"VEC3"
		},
		{
			"bufferView":6,
			"componentType":5126,
			"count":170,
			"type":"VEC2"
		},
		{
			"bufferView":7,
			"componentType":5123,
			"count":336,
			"type":"SCALAR"
		},
		{
			"bufferView":8,
			"componentType":5126,
			"count":62,
			"max":[
				68.67881774902344,
				1.4285714626312256,
				40
			],
			"min":[
				-68.67881774902344,
				0,
				-40
			],
			"type":"VEC3"
		},
		{
			"bufferView":9,
			"componentType":5126,
			"count":62,
			"type":"VEC3"
		},
		{
			"bufferView":10,
			"componentType":5126,
			"count":62,
			"type":"VEC2"
		},
		{
			"bufferView":11,
			"componentType":5123,
			"count":168,
			"type":"SCALAR"
		},
		{
			"bufferView":12,
			"componentType":5126,
			"count":508,
			"max":[
				66.20317840576172,
				18,
				38.400001525878906
			],
			"min":[
				-66.20317840576172,
				5.980135917663574,
				-38.400001525878906
			],
			"type":"VEC3"
		},
		{
			"bufferView":13,
			"componentType":5126,
			"count":508,
			"type":"VEC3"
		},
		{
			"bufferView":14,
			"componentType":5126,
			"count":508,
			"type":"VEC2"
		},
		{
			"bufferView":15,
			"componentType":5123,
			"count":864,
			"type":"SCALAR"
		},
		{
			"bufferView":16,
			"componentType":5126,
			"count":18,
			"max":[
				60.1712646484375,
				16.797019958496094,
				38.400001525878906
			],
			"min":[
				-60.1712646484375,
				16.797019958496094,
				-38.400001525878906
			],
			"type":"VEC3"
		},
		{
			"bufferView":17,
			"componentType":5126,
			"count":18,
			"type":"VEC3"
		},
		{
			"bufferView":18,
			"componentType":5126,
			"count":18,
			"type":"VEC2"
		},
		{
			"bufferView":19,
			"componentType":5123,
			"count":48,
			"type":"SCALAR"
		},
		{
			"bufferView":20,
			"componentType":5126,
			"count":1024,
			"max":[
				30.45713996887207,
				36.17142868041992,
				29.871915817260742
			],
			"min":[
				-30.45713996887207,
				5.714284420013428,
				-29.871915817260742
			],
			"type":"VEC3"
		},
		{
			"bufferView":21,
			"componentType":5126,
			"count":1024,
			"type":"VEC3"
		},
		{
			"bufferView":22,
			"componentType":5126,
			"count":1024,
			"type":"VEC2"
		},
		{
			"bufferView":23,
			"componentType":5123,
			"count":1584,
			"type":"SCALAR"
		},
		{
			"bufferView":24,
			"componentType":5126,
			"count":452,
			"max":[
				66.20317840576172,
				17.369731903076172,
				38.400001525878906
			],
			"min":[
				-66.20317840576172,
				-0.22760915756225586,
				-38.400001525878906
			],
			"type":"VEC3"
		},
		{
			"bufferView":25,
			"componentType":5126,
			"count":452,
			"type":"VEC3"
		},
		{
			"bufferView":26,
			"componentType":5126,
			"count":452,
			"type":"VEC2"
		},
		{
			"bufferView":27,
			"componentType":5123,
			"count":744,
			"type":"SCALAR"
		},
		{
			"bufferView":28,
			"componentType":5126,
			"count":446,
			"max":[
				62.81916046142578,
				18,
				38.400001525878906
			],
			"min":[
				-62.81916046142578,
				-0.22760915756225586,
				-38.400001525878906
			],
			"type":"VEC3"
		},
		{
			"bufferView":29,
			"componentType":5126,
			"count":446,
			"type":"VEC3"
		},
		{
			"bufferView":30,
			"componentType":5126,
			"count":446,
			"type":"VEC2"
		},
		{
			"bufferView":31,
			"componentType":5123,
			"count":696,
			"type":"SCALAR"
		}
	],
	"bufferViews":[
		{
			"buffer":0,
			"byteLength":4128,
			"byteOffset":0,
			"target":34962
		},
		{
			"buffer":0,
			"byteLength":4128,
			"byteOffset":4128,
			"target":34962
		},
		{
			"buffer":0,
			"byteLength":2752,
			"byteOffset":8256,
			"target":34962
		},
		{
			"buffer":0,
			"byteLength":1296,
			"byteOffset":11008,
			"target":34963
		},
		{
			"buffer":0,
			"byteLength":2040,
			"byteOffset":12304,
			"target":34962
		},
		{
			"buffer":0,
			"byteLength":2040,
			"byteOffset":14344,
			"target":34962
		},
		{
			"buffer":0,
			"byteLength":1360,
			"byteOffset":16384,
			"target":34962
		},
		{
			"buffer":0,
			"byteLength":672,
			"byteOffset":17744,
			"target":34963
		},
		{
			"buffer":0,
			"byteLength":744,
			"byteOffset":18416,
			"target":34962
		},
		{
			"buffer":0,
			"byteLength":744,
			"byteOffset":19160,
			"target":34962
		},
		{
			"buffer":0,
			"byteLength":496,
			"byteOffset":19904,
			"target":34962
		},
		{
			"buffer":0,
			"byteLength":336,
			"byteOffset":20400,
			"target":34963
		},
		{
			"buffer":0,
			"byteLength":6096,
			"byteOffset":20736,
			"target":34962
		},
		{
			"buffer":0,
			"byteLength":6096,
			"byteOffset":26832,
			"target":34962
		},
		{
			"buffer":0,
			"byteLength":4064,
			"byteOffset":32928,
			"target":34962
		},
		{
			"buffer":0,
			"byteLength":1728,
			"byteOffset":36992,
			"target":34963
		},
		{
			"buffer":0,
			"byteLength":216,
			"byteOffset":38720,
			"target":34962
		},
		{
			"buffer":0,
			"byteLength":216,
			"byteOffset":38936,
			"target":34962
		},
		{
			"buffer":0,
			"byteLength":144,
			"byteOffset":39152,
			"target":34962
		},
		{
			"buffer":0,
			"byteLength":96,
			"byteOffset":39296,
			"target":34963
		},
		{
			"buffer":0,
			"byteLength":12288,
			"byteOffset":39392,
			"target":34962
		},
		{
			"buffer":0,
			"byteLength":12288,
			"byteOffset":51680,
			"target":34962
		},
		{
			"buffer":0,
			"byteLength":8192,
			"byteOffset":63968,
			"target":34962
		},
		{
			"buffer":0,
			"byteLength":3168,
			"byteOffset":72160,
			"target":34963
		},
		{
			"buffer":0,
			"byteLength":5424,
			"byteOffset":75328,
			"target":34962
		},
		{
			"buffer":0,
			"byteLength":5424,
			"byteOffset":80752,
			"target":34962
		},
		{
			"buffer":0,
			"byteLength":3616,
			"byteOffset":86176,
			"target":34962
		},
		{
			"buffer":0,
			"byteLength":1488,
			"byteOffset":89792,
			"target":34963
		},
		{
			"buffer":0,
			"byteLength":5352,
			"byteOffset":91280,
			"target":34962
		},
		{
			"buffer":0,
			"byteLength":5352,
			"byteOffset":96632,
			"target":34962
		},
		{
			"buffer":0,
			"byteLength":3568,
			"byteOffset":101984,
			"target":34962
		},
		{
			"buffer":0,
			"byteLength":1392,
			"byteOffset":105552,
			"target":34963
		}
	],
	"samplers":[
		{
			"magFilter":9729,
			"minFilter":9987
		}
	],
	"buffers":[
		{
			"byteLength":106944,
			"uri":"Main_Factory.bin"
		}
	]
}
