{
	"asset":{
		"generator":"Khronos glTF Blender I/O v4.3.47",
		"version":"2.0"
	},
	"extensionsUsed":[
		"KHR_texture_transform"
	],
	"extensionsRequired":[
		"KHR_texture_transform"
	],
	"scene":0,
	"scenes":[
		{
			"extras":{
				"bc":{
					"snap":{
						"hit":false,
						"type":"",
						"location":[
							0.0,
							0.0,
							0.0
						],
						"normal":[
							0.0,
							0.0,
							0.0
						],
						"display":0
					},
					"running":0,
					"collection":null,
					"shape":null,
					"original_active":null,
					"last":{
						"surface":"VIEW"
					},
					"plane":null,
					"lattice":null,
					"empty":null,
					"location":[
						0.0,
						0.0,
						0.0
					],
					"slice":null,
					"inset":null,
					"bevel":null,
					"wedge_point":1,
					"stored_shape":{},
					"recall_collection":{},
					"start_operation":0,
					"mirror_axis":[
						1,
						1,
						0
					],
					"mirror_axis_flip":[
						0,
						0,
						0
					],
					"snap_type":"",
					"wedge_slim":1
				},
				"hops":{
					"collection":null
				},
				"GodotPipelineProps":{
					"mesh_data":0,
					"export_UI":1,
					"counter":19,
					"save_path":"//..\\..\\..\\..\\source\\repos\\Main_Game\\AstromortisRenderer\\Building Models\\Erholungscenter\\Erholungscenter.gltf"
				}
			},
			"name":"Scene",
			"nodes":[
				0
			]
		}
	],
	"nodes":[
		{
			"extras":{
				"hops":{}
			},
			"mesh":0,
			"name":"Erholungscenter",
			"scale":[
				15.971199035644531,
				15.971199035644531,
				15.971199035644531
			],
			"translation":[
				0,
				0.12259998917579651,
				0
			]
		}
	],
	"materials":[
		{
			"alphaMode":"BLEND",
			"doubleSided":true,
			"name":"Erholungscenter_Glas_M",
			"pbrMetallicRoughness":{
				"baseColorFactor":[
					0.21727809309959412,
					0.5577172636985779,
					0.8000156879425049,
					0.3252032399177551
				],
				"metallicFactor":0,
				"roughnessFactor":0.41463416814804077
			}
		},
		{
			"doubleSided":true,
			"name":"Erholungscenter_Kuppelger\u00fcst_M",
			"pbrMetallicRoughness":{
				"baseColorFactor":[
					0.800000011920929,
					0.800000011920929,
					0.800000011920929,
					1
				]
			}
		},
		{
			"doubleSided":true,
			"name":"Erholungscenter_Fussg\u00e4ngerweg_M",
			"normalTexture":{
				"extensions":{
					"KHR_texture_transform":{
						"offset":[
							0,
							-3
						],
						"scale":[
							4,
							4
						]
					}
				},
				"index":0
			},
			"pbrMetallicRoughness":{
				"baseColorTexture":{
					"extensions":{
						"KHR_texture_transform":{
							"offset":[
								0,
								-3
							],
							"scale":[
								4,
								4
							]
						}
					},
					"index":1
				},
				"metallicFactor":0,
				"metallicRoughnessTexture":{
					"extensions":{
						"KHR_texture_transform":{
							"offset":[
								0,
								-3
							],
							"scale":[
								4,
								4
							]
						}
					},
					"index":2
				}
			}
		},
		{
			"doubleSided":true,
			"name":"Erholungscenter_Gras_M",
			"normalTexture":{
				"index":3
			},
			"pbrMetallicRoughness":{
				"baseColorTexture":{
					"index":4
				},
				"metallicFactor":0,
				"metallicRoughnessTexture":{
					"index":5
				}
			}
		},
		{
			"doubleSided":true,
			"name":"Erholungscenter_Hecke_M",
			"normalTexture":{
				"index":6
			},
			"pbrMetallicRoughness":{
				"baseColorTexture":{
					"index":7
				},
				"metallicRoughnessTexture":{
					"index":8
				}
			}
		},
		{
			"doubleSided":true,
			"name":"Erholungscenter_Kuppelbogen_M",
			"pbrMetallicRoughness":{
				"baseColorFactor":[
					0.800000011920929,
					0.800000011920929,
					0.800000011920929,
					1
				],
				"metallicFactor":0,
				"roughnessFactor":0.5
			}
		},
		{
			"alphaMode":"BLEND",
			"doubleSided":true,
			"name":"Erholungscenter_Hohe_Gr\u00e4ser_1_M",
			"normalTexture":{
				"index":9
			},
			"pbrMetallicRoughness":{
				"baseColorTexture":{
					"index":10
				},
				"metallicFactor":0,
				"metallicRoughnessTexture":{
					"index":11
				}
			}
		},
		{
			"doubleSided":true,
			"name":"Erholungscenter_Kunsttoff_M"
		}
	],
	"meshes":[
		{
			"extras":{
				"hops":{}
			},
			"name":"Erholungscenter",
			"primitives":[
				{
					"attributes":{
						"POSITION":0,
						"NORMAL":1,
						"TEXCOORD_0":2
					},
					"indices":3,
					"material":0
				},
				{
					"attributes":{
						"POSITION":4,
						"NORMAL":5,
						"TEXCOORD_0":6
					},
					"indices":7,
					"material":1
				},
				{
					"attributes":{
						"POSITION":8,
						"NORMAL":9,
						"TEXCOORD_0":10
					},
					"indices":11,
					"material":2
				},
				{
					"attributes":{
						"POSITION":12,
						"NORMAL":13,
						"TEXCOORD_0":14
					},
					"indices":15,
					"material":3
				},
				{
					"attributes":{
						"POSITION":16,
						"NORMAL":17,
						"TEXCOORD_0":18
					},
					"indices":19,
					"material":4
				},
				{
					"attributes":{
						"POSITION":20,
						"NORMAL":21,
						"TEXCOORD_0":22
					},
					"indices":23,
					"material":5
				},
				{
					"attributes":{
						"POSITION":24,
						"NORMAL":25,
						"TEXCOORD_0":26
					},
					"indices":27,
					"material":6
				},
				{
					"attributes":{
						"POSITION":28,
						"NORMAL":29,
						"TEXCOORD_0":30
					},
					"indices":31,
					"material":7
				}
			]
		}
	],
	"textures":[
		{
			"sampler":0,
			"source":0
		},
		{
			"sampler":0,
			"source":1
		},
		{
			"sampler":0,
			"source":2
		},
		{
			"sampler":0,
			"source":3
		},
		{
			"sampler":0,
			"source":4
		},
		{
			"sampler":0,
			"source":5
		},
		{
			"sampler":0,
			"source":6
		},
		{
			"sampler":0,
			"source":7
		},
		{
			"sampler":0,
			"source":8
		},
		{
			"sampler":0,
			"source":9
		},
		{
			"sampler":0,
			"source":10
		},
		{
			"sampler":0,
			"source":11
		}
	],
	"images":[
		{
			"mimeType":"image/jpeg",
			"name":"PavingStones130_1K-JPG_NormalGL",
			"uri":"PavingStones130_1K-JPG_NormalGL.jpg"
		},
		{
			"mimeType":"image/jpeg",
			"name":"PavingStones130_1K-JPG_Color",
			"uri":"PavingStones130_1K-JPG_Color.jpg"
		},
		{
			"mimeType":"image/png",
			"name":"PavingStones130_1K-JPG_Roughness",
			"uri":"PavingStones130_1K-JPG_Roughness.png"
		},
		{
			"mimeType":"image/jpeg",
			"name":"Ground075_1K-JPG_NormalGL",
			"uri":"Ground075_1K-JPG_NormalGL.jpg"
		},
		{
			"mimeType":"image/jpeg",
			"name":"Ground075_1K-JPG_Color",
			"uri":"Ground075_1K-JPG_Color.jpg"
		},
		{
			"mimeType":"image/png",
			"name":"Ground075_1K-JPG_Roughness",
			"uri":"Ground075_1K-JPG_Roughness.png"
		},
		{
			"mimeType":"image/jpeg",
			"name":"Moss002_1K-JPG_NormalGL",
			"uri":"Moss002_1K-JPG_NormalGL.jpg"
		},
		{
			"mimeType":"image/jpeg",
			"name":"Moss002_1K-JPG_Color",
			"uri":"Moss002_1K-JPG_Color.jpg"
		},
		{
			"mimeType":"image/png",
			"name":"Moss002_1K-JPG_Roughness",
			"uri":"Moss002_1K-JPG_Roughness.png"
		},
		{
			"mimeType":"image/png",
			"name":"Foliage001_1K-PNG_NormalGL",
			"uri":"Foliage001_1K-PNG_NormalGL.png"
		},
		{
			"mimeType":"image/png",
			"name":"Foliage001_1K-PNG_Color-Foliage001_1K-PNG_Opacity",
			"uri":"Foliage001_1K-PNG_Color-Foliage001_1K-PNG_Opacity.png"
		},
		{
			"mimeType":"image/png",
			"name":"Foliage001_1K-PNG_Roughness",
			"uri":"Foliage001_1K-PNG_Roughness.png"
		}
	],
	"accessors":[
		{
			"bufferView":0,
			"componentType":5126,
			"count":120,
			"max":[
				0.9491701126098633,
				1.0007579326629639,
				0.9886555075645447
			],
			"min":[
				-0.9477108716964722,
				0.02562146633863449,
				-0.9886555075645447
			],
			"type":"VEC3"
		},
		{
			"bufferView":1,
			"componentType":5126,
			"count":120,
			"type":"VEC3"
		},
		{
			"bufferView":2,
			"componentType":5126,
			"count":120,
			"type":"VEC2"
		},
		{
			"bufferView":3,
			"componentType":5123,
			"count":120,
			"type":"SCALAR"
		},
		{
			"bufferView":4,
			"componentType":5126,
			"count":344,
			"max":[
				0.9510578513145447,
				1.0107142925262451,
				0.9999999403953552
			],
			"min":[
				-0.9510578513145447,
				0.010714286006987095,
				-0.9999999403953552
			],
			"type":"VEC3"
		},
		{
			"bufferView":5,
			"componentType":5126,
			"count":344,
			"type":"VEC3"
		},
		{
			"bufferView":6,
			"componentType":5126,
			"count":344,
			"type":"VEC2"
		},
		{
			"bufferView":7,
			"componentType":5123,
			"count":810,
			"type":"SCALAR"
		},
		{
			"bufferView":8,
			"componentType":5126,
			"count":16,
			"max":[
				0.9436438083648682,
				0.02118751034140587,
				0.9436438083648682
			],
			"min":[
				-0.9436438679695129,
				0.02118751034140587,
				-0.9436438083648682
			],
			"type":"VEC3"
		},
		{
			"bufferView":9,
			"componentType":5126,
			"count":16,
			"type":"VEC3"
		},
		{
			"bufferView":10,
			"componentType":5126,
			"count":16,
			"type":"VEC2"
		},
		{
			"bufferView":11,
			"componentType":5123,
			"count":24,
			"type":"SCALAR"
		},
		{
			"bufferView":12,
			"componentType":5126,
			"count":309,
			"max":[
				0.9510578513145447,
				0.010714286006987095,
				0.9999999403953552
			],
			"min":[
				-0.9510578513145447,
				0.010714286006987095,
				-0.9999999403953552
			],
			"type":"VEC3"
		},
		{
			"bufferView":13,
			"componentType":5126,
			"count":309,
			"type":"VEC3"
		},
		{
			"bufferView":14,
			"componentType":5126,
			"count":309,
			"type":"VEC2"
		},
		{
			"bufferView":15,
			"componentType":5123,
			"count":1680,
			"type":"SCALAR"
		},
		{
			"bufferView":16,
			"componentType":5126,
			"count":269,
			"max":[
				0.9510578513145447,
				0.2571248710155487,
				0.9999999403953552
			],
			"min":[
				-9.800131817172542e-10,
				0.010714286006987095,
				-0.5283957719802856
			],
			"type":"VEC3"
		},
		{
			"bufferView":17,
			"componentType":5126,
			"count":269,
			"type":"VEC3"
		},
		{
			"bufferView":18,
			"componentType":5126,
			"count":269,
			"type":"VEC2"
		},
		{
			"bufferView":19,
			"componentType":5123,
			"count":798,
			"type":"SCALAR"
		},
		{
			"bufferView":20,
			"componentType":5126,
			"count":150,
			"max":[
				0.9558336138725281,
				0.023787248879671097,
				1.005021572113037
			],
			"min":[
				-0.9558336138725281,
				0,
				-1.005021572113037
			],
			"type":"VEC3"
		},
		{
			"bufferView":21,
			"componentType":5126,
			"count":150,
			"type":"VEC3"
		},
		{
			"bufferView":22,
			"componentType":5126,
			"count":150,
			"type":"VEC2"
		},
		{
			"bufferView":23,
			"componentType":5123,
			"count":504,
			"type":"SCALAR"
		},
		{
			"bufferView":24,
			"componentType":5126,
			"count":5136,
			"max":[
				0.7771078944206238,
				0.20044375956058502,
				0.9503852128982544
			],
			"min":[
				-0.4196445345878601,
				0.004349664784967899,
				-0.902302622795105
			],
			"type":"VEC3"
		},
		{
			"bufferView":25,
			"componentType":5126,
			"count":5136,
			"type":"VEC3"
		},
		{
			"bufferView":26,
			"componentType":5126,
			"count":5136,
			"type":"VEC2"
		},
		{
			"bufferView":27,
			"componentType":5123,
			"count":11625,
			"type":"SCALAR"
		},
		{
			"bufferView":28,
			"componentType":5126,
			"count":210,
			"max":[
				-0.16353575885295868,
				0.3654361963272095,
				0.9158279895782471
			],
			"min":[
				-0.7960988283157349,
				0.01121207233518362,
				-0.6585179567337036
			],
			"type":"VEC3"
		},
		{
			"bufferView":29,
			"componentType":5126,
			"count":210,
			"type":"VEC3"
		},
		{
			"bufferView":30,
			"componentType":5126,
			"count":210,
			"type":"VEC2"
		},
		{
			"bufferView":31,
			"componentType":5123,
			"count":348,
			"type":"SCALAR"
		}
	],
	"bufferViews":[
		{
			"buffer":0,
			"byteLength":1440,
			"byteOffset":0,
			"target":34962
		},
		{
			"buffer":0,
			"byteLength":1440,
			"byteOffset":1440,
			"target":34962
		},
		{
			"buffer":0,
			"byteLength":960,
			"byteOffset":2880,
			"target":34962
		},
		{
			"buffer":0,
			"byteLength":240,
			"byteOffset":3840,
			"target":34963
		},
		{
			"buffer":0,
			"byteLength":4128,
			"byteOffset":4080,
			"target":34962
		},
		{
			"buffer":0,
			"byteLength":4128,
			"byteOffset":8208,
			"target":34962
		},
		{
			"buffer":0,
			"byteLength":2752,
			"byteOffset":12336,
			"target":34962
		},
		{
			"buffer":0,
			"byteLength":1620,
			"byteOffset":15088,
			"target":34963
		},
		{
			"buffer":0,
			"byteLength":192,
			"byteOffset":16708,
			"target":34962
		},
		{
			"buffer":0,
			"byteLength":192,
			"byteOffset":16900,
			"target":34962
		},
		{
			"buffer":0,
			"byteLength":128,
			"byteOffset":17092,
			"target":34962
		},
		{
			"buffer":0,
			"byteLength":48,
			"byteOffset":17220,
			"target":34963
		},
		{
			"buffer":0,
			"byteLength":3708,
			"byteOffset":17268,
			"target":34962
		},
		{
			"buffer":0,
			"byteLength":3708,
			"byteOffset":20976,
			"target":34962
		},
		{
			"buffer":0,
			"byteLength":2472,
			"byteOffset":24684,
			"target":34962
		},
		{
			"buffer":0,
			"byteLength":3360,
			"byteOffset":27156,
			"target":34963
		},
		{
			"buffer":0,
			"byteLength":3228,
			"byteOffset":30516,
			"target":34962
		},
		{
			"buffer":0,
			"byteLength":3228,
			"byteOffset":33744,
			"target":34962
		},
		{
			"buffer":0,
			"byteLength":2152,
			"byteOffset":36972,
			"target":34962
		},
		{
			"buffer":0,
			"byteLength":1596,
			"byteOffset":39124,
			"target":34963
		},
		{
			"buffer":0,
			"byteLength":1800,
			"byteOffset":40720,
			"target":34962
		},
		{
			"buffer":0,
			"byteLength":1800,
			"byteOffset":42520,
			"target":34962
		},
		{
			"buffer":0,
			"byteLength":1200,
			"byteOffset":44320,
			"target":34962
		},
		{
			"buffer":0,
			"byteLength":1008,
			"byteOffset":45520,
			"target":34963
		},
		{
			"buffer":0,
			"byteLength":61632,
			"byteOffset":46528,
			"target":34962
		},
		{
			"buffer":0,
			"byteLength":61632,
			"byteOffset":108160,
			"target":34962
		},
		{
			"buffer":0,
			"byteLength":41088,
			"byteOffset":169792,
			"target":34962
		},
		{
			"buffer":0,
			"byteLength":23250,
			"byteOffset":210880,
			"target":34963
		},
		{
			"buffer":0,
			"byteLength":2520,
			"byteOffset":234132,
			"target":34962
		},
		{
			"buffer":0,
			"byteLength":2520,
			"byteOffset":236652,
			"target":34962
		},
		{
			"buffer":0,
			"byteLength":1680,
			"byteOffset":239172,
			"target":34962
		},
		{
			"buffer":0,
			"byteLength":696,
			"byteOffset":240852,
			"target":34963
		}
	],
	"samplers":[
		{
			"magFilter":9729,
			"minFilter":9987
		}
	],
	"buffers":[
		{
			"byteLength":241548,
			"uri":"Erholungscenter.bin"
		}
	]
}
