{
	"asset":{
		"generator":"Khronos glTF Blender I/O v4.3.47",
		"version":"2.0"
	},
	"extensionsUsed":[
		"KHR_texture_transform"
	],
	"extensionsRequired":[
		"KHR_texture_transform"
	],
	"scene":0,
	"scenes":[
		{
			"extras":{
				"bc":{
					"snap":{
						"hit":false,
						"type":"",
						"location":[
							0.0,
							0.0,
							0.0
						],
						"normal":[
							-0.6736758351325989,
							0.6551207900047302,
							-0.34202003479003906
						],
						"display":0
					},
					"running":0,
					"collection":null,
					"shape":null,
					"original_active":null,
					"last":{
						"surface":"VIEW"
					},
					"plane":null,
					"lattice":null,
					"empty":null,
					"location":[
						0.0,
						0.0,
						0.0
					],
					"slice":null,
					"inset":null,
					"bevel":null,
					"wedge_point":3,
					"stored_shape":{},
					"recall_collection":{},
					"start_operation":0,
					"mirror_axis":[
						1,
						1,
						0
					],
					"mirror_axis_flip":[
						0,
						0,
						0
					],
					"snap_type":"",
					"wedge_slim":1
				},
				"hops":{
					"collection":null
				},
				"GodotPipelineProps":{
					"export_UI":1,
					"save_path":"//..\\..\\..\\..\\source\\repos\\Main_Game\\AstromortisRenderer\\Building Models\\Chemical_Factory\\Chemical_Factory.gltf",
					"counter":56,
					"mesh_data":0
				}
			},
			"name":"Scene",
			"nodes":[
				0
			]
		}
	],
	"nodes":[
		{
			"extras":{
				"hops":{}
			},
			"mesh":0,
			"name":"Plane",
			"scale":[
				0.5,
				0.5,
				0.5
			]
		}
	],
	"materials":[
		{
			"doubleSided":true,
			"name":"Chemical_Factory_Beh\u00e4lter",
			"normalTexture":{
				"index":0,
				"scale":0
			},
			"pbrMetallicRoughness":{
				"baseColorTexture":{
					"index":1
				},
				"metallicRoughnessTexture":{
					"index":2
				}
			}
		},
		{
			"alphaMode":"BLEND",
			"doubleSided":true,
			"name":"Chemical_Factory_Beh\u00e4lter_Top",
			"normalTexture":{
				"index":3
			},
			"pbrMetallicRoughness":{
				"baseColorTexture":{
					"index":4
				},
				"metallicRoughnessTexture":{
					"index":5
				}
			}
		},
		{
			"doubleSided":true,
			"name":"Chemical_Factory_Asphalt",
			"normalTexture":{
				"extensions":{
					"KHR_texture_transform":{
						"offset":[
							0,
							-4
						],
						"scale":[
							5,
							5
						]
					}
				},
				"index":6
			},
			"pbrMetallicRoughness":{
				"baseColorTexture":{
					"extensions":{
						"KHR_texture_transform":{
							"offset":[
								0,
								-4
							],
							"scale":[
								5,
								5
							]
						}
					},
					"index":7
				},
				"metallicFactor":0,
				"metallicRoughnessTexture":{
					"extensions":{
						"KHR_texture_transform":{
							"offset":[
								0,
								-4
							],
							"scale":[
								5,
								5
							]
						}
					},
					"index":8
				}
			}
		},
		{
			"doubleSided":true,
			"name":"Chemical_Factory_3",
			"normalTexture":{
				"index":9
			},
			"pbrMetallicRoughness":{
				"baseColorTexture":{
					"index":10
				},
				"metallicRoughnessTexture":{
					"index":11
				}
			}
		},
		{
			"doubleSided":true,
			"name":"Main_Metal_M",
			"normalTexture":{
				"index":12,
				"scale":0.20000000298023224
			},
			"pbrMetallicRoughness":{
				"baseColorTexture":{
					"index":13
				},
				"metallicRoughnessTexture":{
					"index":14
				}
			}
		},
		{
			"doubleSided":true,
			"name":"Chemical_Factory_Outside",
			"normalTexture":{
				"index":15
			},
			"pbrMetallicRoughness":{
				"baseColorTexture":{
					"index":16
				},
				"metallicRoughnessTexture":{
					"index":17
				}
			}
		},
		{
			"doubleSided":true,
			"name":"Chemical_Factory_Facade",
			"normalTexture":{
				"index":18
			},
			"pbrMetallicRoughness":{
				"baseColorTexture":{
					"index":19
				},
				"metallicRoughnessTexture":{
					"index":20
				}
			}
		}
	],
	"meshes":[
		{
			"extras":{
				"hops":{},
				"use_auto_smooth":1,
				"auto_smooth_angle":1.0471975803375244
			},
			"name":"Plane",
			"primitives":[
				{
					"attributes":{
						"POSITION":0,
						"NORMAL":1,
						"TEXCOORD_0":2
					},
					"indices":3,
					"material":0
				},
				{
					"attributes":{
						"POSITION":4,
						"NORMAL":5,
						"TEXCOORD_0":6
					},
					"indices":7,
					"material":1
				},
				{
					"attributes":{
						"POSITION":8,
						"NORMAL":9,
						"TEXCOORD_0":10
					},
					"indices":11,
					"material":2
				},
				{
					"attributes":{
						"POSITION":12,
						"NORMAL":13,
						"TEXCOORD_0":14
					},
					"indices":15,
					"material":3
				},
				{
					"attributes":{
						"POSITION":16,
						"NORMAL":17,
						"TEXCOORD_0":18
					},
					"indices":19,
					"material":4
				},
				{
					"attributes":{
						"POSITION":20,
						"NORMAL":21,
						"TEXCOORD_0":22
					},
					"indices":23,
					"material":5
				},
				{
					"attributes":{
						"POSITION":24,
						"NORMAL":25,
						"TEXCOORD_0":26
					},
					"indices":27,
					"material":6
				}
			]
		}
	],
	"textures":[
		{
			"sampler":0,
			"source":0
		},
		{
			"sampler":0,
			"source":1
		},
		{
			"sampler":0,
			"source":2
		},
		{
			"sampler":0,
			"source":3
		},
		{
			"sampler":0,
			"source":4
		},
		{
			"sampler":0,
			"source":5
		},
		{
			"sampler":0,
			"source":6
		},
		{
			"sampler":0,
			"source":7
		},
		{
			"sampler":0,
			"source":8
		},
		{
			"sampler":0,
			"source":9
		},
		{
			"sampler":0,
			"source":10
		},
		{
			"sampler":0,
			"source":11
		},
		{
			"sampler":0,
			"source":12
		},
		{
			"sampler":0,
			"source":13
		},
		{
			"sampler":0,
			"source":14
		},
		{
			"sampler":0,
			"source":0
		},
		{
			"sampler":0,
			"source":1
		},
		{
			"sampler":0,
			"source":15
		},
		{
			"sampler":0,
			"source":16
		},
		{
			"sampler":0,
			"source":17
		},
		{
			"sampler":0,
			"source":18
		}
	],
	"images":[
		{
			"mimeType":"image/jpeg",
			"name":"CorrugatedSteel005_1K-JPG_NormalGL",
			"uri":"CorrugatedSteel005_1K-JPG_NormalGL.jpg"
		},
		{
			"mimeType":"image/jpeg",
			"name":"CorrugatedSteel005_1K-JPG_Color",
			"uri":"CorrugatedSteel005_1K-JPG_Color.jpg"
		},
		{
			"mimeType":"image/png",
			"name":"CorrugatedSteel005_1K-JPG_Metalness-CorrugatedSteel005_1K-JPG_Roughness",
			"uri":"CorrugatedSteel005_1K-JPG_Metalness-CorrugatedSteel005_1K-JPG_Roughness.png"
		},
		{
			"mimeType":"image/png",
			"name":"MetalWalkway011_1K-PNG_NormalGL",
			"uri":"MetalWalkway011_1K-PNG_NormalGL.png"
		},
		{
			"mimeType":"image/png",
			"name":"MetalWalkway011_1K-PNG_Color-MetalWalkway011_1K-PNG_Opacity",
			"uri":"MetalWalkway011_1K-PNG_Color-MetalWalkway011_1K-PNG_Opacity.png"
		},
		{
			"mimeType":"image/png",
			"name":"MetalWalkway011_1K-PNG_Metalness-MetalWalkway011_1K-PNG_Roughness",
			"uri":"MetalWalkway011_1K-PNG_Metalness-MetalWalkway011_1K-PNG_Roughness.png"
		},
		{
			"mimeType":"image/jpeg",
			"name":"Concrete033_1K-JPG_NormalGL",
			"uri":"Concrete033_1K-JPG_NormalGL.jpg"
		},
		{
			"mimeType":"image/jpeg",
			"name":"Concrete033_1K-JPG_Color",
			"uri":"Concrete033_1K-JPG_Color.jpg"
		},
		{
			"mimeType":"image/png",
			"name":"Concrete033_1K-JPG_Roughness",
			"uri":"Concrete033_1K-JPG_Roughness.png"
		},
		{
			"mimeType":"image/png",
			"name":"MetalPlates004_1K-PNG_NormalGL",
			"uri":"MetalPlates004_1K-PNG_NormalGL.png"
		},
		{
			"mimeType":"image/png",
			"name":"MetalPlates004_1K-PNG_Color",
			"uri":"MetalPlates004_1K-PNG_Color.png"
		},
		{
			"mimeType":"image/png",
			"name":"MetalPlates004_1K-PNG_Metalness-MetalPlates004_1K-PNG_Roughness",
			"uri":"MetalPlates004_1K-PNG_Metalness-MetalPlates004_1K-PNG_Roughness.png"
		},
		{
			"mimeType":"image/jpeg",
			"name":"Main_Bronze_Metal_Plates_M_Normal_1k",
			"uri":"Main_Bronze_Metal_Plates_M_Normal_1k.jpg"
		},
		{
			"mimeType":"image/jpeg",
			"name":"Main_Metal_Metal_Plates_M_Color1k",
			"uri":"Main_Metal_Metal_Plates_M_Color1k.jpg"
		},
		{
			"mimeType":"image/png",
			"name":"Main_Bronze_Metal_Plates_M_metalness_1k.png-Main_Bronze_Metal_Plates_M_Roughness_1k.jpg",
			"uri":"Main_Bronze_Metal_Plates_M_metalness_1k_png-Main_Bronze_Metal_Plates_M_Roughness_1k_jpg.png"
		},
		{
			"mimeType":"image/png",
			"name":"CorrugatedSteel005_1K-JPG_Metalness.jpg-CorrugatedSteel005_1K-JPG_Roughness.jpg",
			"uri":"CorrugatedSteel005_1K-JPG_Metalness_jpg-CorrugatedSteel005_1K-JPG_Roughness_jpg.png"
		},
		{
			"mimeType":"image/png",
			"name":"Facade001_1K-PNG_NormalGL",
			"uri":"Facade001_1K-PNG_NormalGL.png"
		},
		{
			"mimeType":"image/png",
			"name":"Facade001_1K-PNG_Color",
			"uri":"Facade001_1K-PNG_Color.png"
		},
		{
			"mimeType":"image/png",
			"name":"Facade001_1K-PNG_Metalness-Facade001_1K-PNG_Roughness",
			"uri":"Facade001_1K-PNG_Metalness-Facade001_1K-PNG_Roughness.png"
		}
	],
	"accessors":[
		{
			"bufferView":0,
			"componentType":5126,
			"count":26247,
			"max":[
				27.43587303161621,
				38,
				38.5
			],
			"min":[
				-18.999996185302734,
				-0.8708813190460205,
				-38.400001525878906
			],
			"type":"VEC3"
		},
		{
			"bufferView":1,
			"componentType":5126,
			"count":26247,
			"type":"VEC3"
		},
		{
			"bufferView":2,
			"componentType":5126,
			"count":26247,
			"type":"VEC2"
		},
		{
			"bufferView":3,
			"componentType":5123,
			"count":45009,
			"type":"SCALAR"
		},
		{
			"bufferView":4,
			"componentType":5126,
			"count":2272,
			"max":[
				28.161474227905273,
				34.9888916015625,
				39.30387496948242
			],
			"min":[
				-19.580259323120117,
				0.8132424354553223,
				-39.242496490478516
			],
			"type":"VEC3"
		},
		{
			"bufferView":5,
			"componentType":5126,
			"count":2272,
			"type":"VEC3"
		},
		{
			"bufferView":6,
			"componentType":5126,
			"count":2272,
			"type":"VEC2"
		},
		{
			"bufferView":7,
			"componentType":5123,
			"count":5154,
			"type":"SCALAR"
		},
		{
			"bufferView":8,
			"componentType":5126,
			"count":24,
			"max":[
				30.0000057220459,
				1,
				40.000003814697266
			],
			"min":[
				-19.999998092651367,
				0,
				-40
			],
			"type":"VEC3"
		},
		{
			"bufferView":9,
			"componentType":5126,
			"count":24,
			"type":"VEC3"
		},
		{
			"bufferView":10,
			"componentType":5126,
			"count":24,
			"type":"VEC2"
		},
		{
			"bufferView":11,
			"componentType":5123,
			"count":36,
			"type":"SCALAR"
		},
		{
			"bufferView":12,
			"componentType":5126,
			"count":550,
			"max":[
				27.597278594970703,
				10.003911972045898,
				38.4002685546875
			],
			"min":[
				-18.999996185302734,
				0.8428727984428406,
				-38.400001525878906
			],
			"type":"VEC3"
		},
		{
			"bufferView":13,
			"componentType":5126,
			"count":550,
			"type":"VEC3"
		},
		{
			"bufferView":14,
			"componentType":5126,
			"count":550,
			"type":"VEC2"
		},
		{
			"bufferView":15,
			"componentType":5123,
			"count":1458,
			"type":"SCALAR"
		},
		{
			"bufferView":16,
			"componentType":5126,
			"count":10347,
			"max":[
				28.056324005126953,
				23.333683013916016,
				38.4002685546875
			],
			"min":[
				-11.599830627441406,
				-0.8708813190460205,
				-38.400001525878906
			],
			"type":"VEC3"
		},
		{
			"bufferView":17,
			"componentType":5126,
			"count":10347,
			"type":"VEC3"
		},
		{
			"bufferView":18,
			"componentType":5126,
			"count":10347,
			"type":"VEC2"
		},
		{
			"bufferView":19,
			"componentType":5123,
			"count":19683,
			"type":"SCALAR"
		},
		{
			"bufferView":20,
			"componentType":5126,
			"count":130,
			"max":[
				27.597278594970703,
				10.003911972045898,
				38.4002685546875
			],
			"min":[
				-11.599830627441406,
				0,
				-38.400001525878906
			],
			"type":"VEC3"
		},
		{
			"bufferView":21,
			"componentType":5126,
			"count":130,
			"type":"VEC3"
		},
		{
			"bufferView":22,
			"componentType":5126,
			"count":130,
			"type":"VEC2"
		},
		{
			"bufferView":23,
			"componentType":5123,
			"count":240,
			"type":"SCALAR"
		},
		{
			"bufferView":24,
			"componentType":5126,
			"count":108,
			"max":[
				21.347278594970703,
				14.642653465270996,
				38.42146301269531
			],
			"min":[
				-10.39999771118164,
				2.531090259552002,
				-38.41638946533203
			],
			"type":"VEC3"
		},
		{
			"bufferView":25,
			"componentType":5126,
			"count":108,
			"type":"VEC3"
		},
		{
			"bufferView":26,
			"componentType":5126,
			"count":108,
			"type":"VEC2"
		},
		{
			"bufferView":27,
			"componentType":5123,
			"count":168,
			"type":"SCALAR"
		}
	],
	"bufferViews":[
		{
			"buffer":0,
			"byteLength":314964,
			"byteOffset":0,
			"target":34962
		},
		{
			"buffer":0,
			"byteLength":314964,
			"byteOffset":314964,
			"target":34962
		},
		{
			"buffer":0,
			"byteLength":209976,
			"byteOffset":629928,
			"target":34962
		},
		{
			"buffer":0,
			"byteLength":90018,
			"byteOffset":839904,
			"target":34963
		},
		{
			"buffer":0,
			"byteLength":27264,
			"byteOffset":929924,
			"target":34962
		},
		{
			"buffer":0,
			"byteLength":27264,
			"byteOffset":957188,
			"target":34962
		},
		{
			"buffer":0,
			"byteLength":18176,
			"byteOffset":984452,
			"target":34962
		},
		{
			"buffer":0,
			"byteLength":10308,
			"byteOffset":1002628,
			"target":34963
		},
		{
			"buffer":0,
			"byteLength":288,
			"byteOffset":1012936,
			"target":34962
		},
		{
			"buffer":0,
			"byteLength":288,
			"byteOffset":1013224,
			"target":34962
		},
		{
			"buffer":0,
			"byteLength":192,
			"byteOffset":1013512,
			"target":34962
		},
		{
			"buffer":0,
			"byteLength":72,
			"byteOffset":1013704,
			"target":34963
		},
		{
			"buffer":0,
			"byteLength":6600,
			"byteOffset":1013776,
			"target":34962
		},
		{
			"buffer":0,
			"byteLength":6600,
			"byteOffset":1020376,
			"target":34962
		},
		{
			"buffer":0,
			"byteLength":4400,
			"byteOffset":1026976,
			"target":34962
		},
		{
			"buffer":0,
			"byteLength":2916,
			"byteOffset":1031376,
			"target":34963
		},
		{
			"buffer":0,
			"byteLength":124164,
			"byteOffset":1034292,
			"target":34962
		},
		{
			"buffer":0,
			"byteLength":124164,
			"byteOffset":1158456,
			"target":34962
		},
		{
			"buffer":0,
			"byteLength":82776,
			"byteOffset":1282620,
			"target":34962
		},
		{
			"buffer":0,
			"byteLength":39366,
			"byteOffset":1365396,
			"target":34963
		},
		{
			"buffer":0,
			"byteLength":1560,
			"byteOffset":1404764,
			"target":34962
		},
		{
			"buffer":0,
			"byteLength":1560,
			"byteOffset":1406324,
			"target":34962
		},
		{
			"buffer":0,
			"byteLength":1040,
			"byteOffset":1407884,
			"target":34962
		},
		{
			"buffer":0,
			"byteLength":480,
			"byteOffset":1408924,
			"target":34963
		},
		{
			"buffer":0,
			"byteLength":1296,
			"byteOffset":1409404,
			"target":34962
		},
		{
			"buffer":0,
			"byteLength":1296,
			"byteOffset":1410700,
			"target":34962
		},
		{
			"buffer":0,
			"byteLength":864,
			"byteOffset":1411996,
			"target":34962
		},
		{
			"buffer":0,
			"byteLength":336,
			"byteOffset":1412860,
			"target":34963
		}
	],
	"samplers":[
		{
			"magFilter":9729,
			"minFilter":9987
		}
	],
	"buffers":[
		{
			"byteLength":1413196,
			"uri":"Chemical_Factory.bin"
		}
	]
}
