{
	"asset":{
		"generator":"Khronos glTF Blender I/O v4.3.47",
		"version":"2.0"
	},
	"extensionsUsed":[
		"KHR_texture_transform"
	],
	"extensionsRequired":[
		"KHR_texture_transform"
	],
	"scene":0,
	"scenes":[
		{
			"extras":{
				"bc":{
					"snap":{
						"hit":false,
						"type":"",
						"location":[
							0.0,
							0.0,
							0.0
						],
						"normal":[
							0.0,
							0.0,
							0.0
						],
						"display":0
					},
					"running":0,
					"collection":null,
					"shape":null,
					"original_active":null,
					"last":{
						"surface":"VIEW"
					},
					"plane":null,
					"lattice":null,
					"empty":null,
					"location":[
						0.0,
						0.0,
						0.0
					],
					"slice":null,
					"inset":null,
					"bevel":null,
					"wedge_point":1,
					"stored_shape":{},
					"recall_collection":{},
					"start_operation":0,
					"mirror_axis":[
						1,
						1,
						0
					],
					"mirror_axis_flip":[
						0,
						0,
						0
					],
					"snap_type":"",
					"wedge_slim":1
				},
				"hops":{
					"collection":null
				},
				"GodotPipelineProps":{
					"export_UI":1,
					"save_path":"//..\\..\\..\\..\\source\\repos\\Main_Game\\AstromortisRenderer\\models\\Abfallentsorgungsanlage.gltf",
					"counter":15
				}
			},
			"name":"Scene",
			"nodes":[
				0
			]
		}
	],
	"nodes":[
		{
			"extras":{
				"hops":{}
			},
			"mesh":0,
			"name":"Abfallenstorgungsanlage",
			"scale":[
				4.356865406036377,
				4.356865406036377,
				4.356865406036377
			]
		}
	],
	"materials":[
		{
			"alphaMode":"BLEND",
			"doubleSided":true,
			"name":"Abfallentsorgungsanlage_Glas_M",
			"pbrMetallicRoughness":{
				"baseColorFactor":[
					0.21727809309959412,
					0.5577172636985779,
					0.8000156879425049,
					0.3252032399177551
				],
				"metallicFactor":0,
				"roughnessFactor":0.41463416814804077
			}
		},
		{
			"doubleSided":true,
			"name":"Abfallentsorgungsanlage_Rundbogen_M",
			"pbrMetallicRoughness":{
				"baseColorFactor":[
					0.22593533992767334,
					0.22593533992767334,
					0.22593533992767334,
					1
				],
				"roughnessFactor":0.8048780560493469
			}
		},
		{
			"doubleSided":true,
			"name":"Abfallentsorgungsanlage_Kuppel_M",
			"normalTexture":{
				"extensions":{
					"KHR_texture_transform":{
						"offset":[
							0,
							-1
						],
						"scale":[
							2,
							2
						]
					}
				},
				"index":0,
				"scale":0.5
			},
			"pbrMetallicRoughness":{
				"baseColorTexture":{
					"extensions":{
						"KHR_texture_transform":{
							"offset":[
								0,
								-1
							],
							"scale":[
								2,
								2
							]
						}
					},
					"index":1
				},
				"metallicRoughnessTexture":{
					"extensions":{
						"KHR_texture_transform":{
							"offset":[
								0,
								-1
							],
							"scale":[
								2,
								2
							]
						}
					},
					"index":2
				}
			}
		},
		{
			"doubleSided":true,
			"name":"Abfallentsorgungsanlage_KuppelBoden_M",
			"normalTexture":{
				"extensions":{
					"KHR_texture_transform":{
						"offset":[
							0,
							-2
						],
						"scale":[
							3,
							3
						]
					}
				},
				"index":3
			},
			"pbrMetallicRoughness":{
				"baseColorTexture":{
					"extensions":{
						"KHR_texture_transform":{
							"offset":[
								0,
								-2
							],
							"scale":[
								3,
								3
							]
						}
					},
					"index":4
				},
				"metallicFactor":0,
				"metallicRoughnessTexture":{
					"extensions":{
						"KHR_texture_transform":{
							"offset":[
								0,
								-2
							],
							"scale":[
								3,
								3
							]
						}
					},
					"index":5
				}
			}
		},
		{
			"doubleSided":true,
			"name":"Abfallentsorgungsanlage_Dachstreben_M",
			"pbrMetallicRoughness":{
				"baseColorFactor":[
					0.0751301646232605,
					0.0751301646232605,
					0.0751301646232605,
					1
				]
			}
		},
		{
			"doubleSided":true,
			"name":"Abfallentsorgungsanlage_Container_1_M",
			"normalTexture":{
				"index":6
			},
			"pbrMetallicRoughness":{
				"baseColorTexture":{
					"index":7
				},
				"metallicRoughnessTexture":{
					"index":8
				}
			}
		},
		{
			"doubleSided":true,
			"name":"Abfallentsorgungsanlage_Container_3_M",
			"normalTexture":{
				"index":9
			},
			"pbrMetallicRoughness":{
				"baseColorTexture":{
					"index":10
				},
				"metallicRoughnessTexture":{
					"index":11
				}
			}
		},
		{
			"doubleSided":true,
			"name":"Abfallentsorgungsanlage_Container_2_M",
			"normalTexture":{
				"index":12
			},
			"pbrMetallicRoughness":{
				"baseColorTexture":{
					"index":13
				},
				"metallicRoughnessTexture":{
					"index":14
				}
			}
		}
	],
	"meshes":[
		{
			"extras":{
				"hops":{}
			},
			"name":"Abfallenstorgungsanlage",
			"primitives":[
				{
					"attributes":{
						"POSITION":0,
						"NORMAL":1,
						"TEXCOORD_0":2
					},
					"indices":3,
					"material":0
				},
				{
					"attributes":{
						"POSITION":4,
						"NORMAL":5,
						"TEXCOORD_0":6
					},
					"indices":7,
					"material":1
				},
				{
					"attributes":{
						"POSITION":8,
						"NORMAL":9,
						"TEXCOORD_0":10
					},
					"indices":11,
					"material":2
				},
				{
					"attributes":{
						"POSITION":12,
						"NORMAL":13,
						"TEXCOORD_0":14
					},
					"indices":15,
					"material":3
				},
				{
					"attributes":{
						"POSITION":16,
						"NORMAL":17,
						"TEXCOORD_0":18
					},
					"indices":19,
					"material":4
				},
				{
					"attributes":{
						"POSITION":20,
						"NORMAL":21,
						"TEXCOORD_0":22
					},
					"indices":23,
					"material":5
				},
				{
					"attributes":{
						"POSITION":24,
						"NORMAL":25,
						"TEXCOORD_0":26
					},
					"indices":27,
					"material":6
				},
				{
					"attributes":{
						"POSITION":28,
						"NORMAL":29,
						"TEXCOORD_0":30
					},
					"indices":27,
					"material":7
				}
			]
		}
	],
	"textures":[
		{
			"sampler":0,
			"source":0
		},
		{
			"sampler":0,
			"source":1
		},
		{
			"sampler":0,
			"source":2
		},
		{
			"sampler":0,
			"source":3
		},
		{
			"sampler":0,
			"source":4
		},
		{
			"sampler":0,
			"source":5
		},
		{
			"sampler":0,
			"source":6
		},
		{
			"sampler":0,
			"source":7
		},
		{
			"sampler":0,
			"source":8
		},
		{
			"sampler":0,
			"source":6
		},
		{
			"sampler":0,
			"source":9
		},
		{
			"sampler":0,
			"source":10
		},
		{
			"sampler":0,
			"source":6
		},
		{
			"sampler":0,
			"source":11
		},
		{
			"sampler":0,
			"source":10
		}
	],
	"images":[
		{
			"mimeType":"image/jpeg",
			"name":"DiamondPlate006C_1K-JPG_NormalGL",
			"uri":"DiamondPlate006C_1K-JPG_NormalGL.jpg"
		},
		{
			"mimeType":"image/jpeg",
			"name":"DiamondPlate006C_1K-JPG_Color(Blue)",
			"uri":"DiamondPlate006C_1K-JPG_ColorBlue.jpg"
		},
		{
			"mimeType":"image/png",
			"name":"DiamondPlate006C_1K-JPG_Metalness-DiamondPlate006C_1K-JPG_Roughness",
			"uri":"DiamondPlate006C_1K-JPG_Metalness-DiamondPlate006C_1K-JPG_Roughness.png"
		},
		{
			"mimeType":"image/jpeg",
			"name":"PavingStones130_1K-JPG_NormalGL",
			"uri":"PavingStones130_1K-JPG_NormalGL.jpg"
		},
		{
			"mimeType":"image/jpeg",
			"name":"PavingStones130_1K-JPG_Color",
			"uri":"PavingStones130_1K-JPG_Color.jpg"
		},
		{
			"mimeType":"image/png",
			"name":"PavingStones130_1K-JPG_Roughness",
			"uri":"PavingStones130_1K-JPG_Roughness.png"
		},
		{
			"mimeType":"image/png",
			"name":"box_profile_metal_sheet_nor_gl_2k",
			"uri":"box_profile_metal_sheet_nor_gl_2k.png"
		},
		{
			"mimeType":"image/png",
			"name":"box_profile_metal_sheet_diff_512(red)",
			"uri":"box_profile_metal_sheet_diff_512red.png"
		},
		{
			"mimeType":"image/png",
			"name":"box_profile_metal_sheet_metal_2k-box_profile_metal_sheet_rough_2k",
			"uri":"box_profile_metal_sheet_metal_2k-box_profile_metal_sheet_rough_2k.png"
		},
		{
			"mimeType":"image/png",
			"name":"box_profile_metal_sheet_diff_512(green)",
			"uri":"box_profile_metal_sheet_diff_512green.png"
		},
		{
			"mimeType":"image/png",
			"name":"box_profile_metal_sheet_metal_2k.png-box_profile_metal_sheet_rough_2k.png",
			"uri":"box_profile_metal_sheet_metal_2k_png-box_profile_metal_sheet_rough_2k_png.png"
		},
		{
			"mimeType":"image/png",
			"name":"box_profile_metal_sheet_diff_512(blue)",
			"uri":"box_profile_metal_sheet_diff_512blue.png"
		}
	],
	"accessors":[
		{
			"bufferView":0,
			"componentType":5126,
			"count":356,
			"max":[
				1.878807544708252,
				1.4662004709243774,
				1.8788074254989624
			],
			"min":[
				-1.8788073062896729,
				0.7892749309539795,
				-1.878807544708252
			],
			"type":"VEC3"
		},
		{
			"bufferView":1,
			"componentType":5126,
			"count":356,
			"type":"VEC3"
		},
		{
			"bufferView":2,
			"componentType":5126,
			"count":356,
			"type":"VEC2"
		},
		{
			"bufferView":3,
			"componentType":5123,
			"count":1536,
			"type":"SCALAR"
		},
		{
			"bufferView":4,
			"componentType":5126,
			"count":816,
			"max":[
				2.0431132316589355,
				0.11490152031183243,
				2.0431129932403564
			],
			"min":[
				-2.0431129932403564,
				0.0001436717575415969,
				-2.0431132316589355
			],
			"type":"VEC3"
		},
		{
			"bufferView":5,
			"componentType":5126,
			"count":816,
			"type":"VEC3"
		},
		{
			"bufferView":6,
			"componentType":5126,
			"count":816,
			"type":"VEC2"
		},
		{
			"bufferView":7,
			"componentType":5123,
			"count":3072,
			"type":"SCALAR"
		},
		{
			"bufferView":8,
			"componentType":5126,
			"count":2214,
			"max":[
				2.034801721572876,
				2.081818103790283,
				2.034801721572876
			],
			"min":[
				-2.034801721572876,
				0.11490149796009064,
				-2.034801959991455
			],
			"type":"VEC3"
		},
		{
			"bufferView":9,
			"componentType":5126,
			"count":2214,
			"type":"VEC3"
		},
		{
			"bufferView":10,
			"componentType":5126,
			"count":2214,
			"type":"VEC2"
		},
		{
			"bufferView":11,
			"componentType":5123,
			"count":11904,
			"type":"SCALAR"
		},
		{
			"bufferView":12,
			"componentType":5126,
			"count":865,
			"max":[
				1.9780291318893433,
				0.000489048077724874,
				1.9780290126800537
			],
			"min":[
				-1.9780291318893433,
				0.0001436717575415969,
				-1.9780291318893433
			],
			"type":"VEC3"
		},
		{
			"bufferView":13,
			"componentType":5126,
			"count":865,
			"type":"VEC3"
		},
		{
			"bufferView":14,
			"componentType":5126,
			"count":865,
			"type":"VEC2"
		},
		{
			"bufferView":15,
			"componentType":5123,
			"count":4992,
			"type":"SCALAR"
		},
		{
			"bufferView":16,
			"componentType":5126,
			"count":96,
			"max":[
				1.1442471742630005,
				1.3232074975967407,
				0.9095689058303833
			],
			"min":[
				-1.1442471742630005,
				1.288682222366333,
				-0.4032379388809204
			],
			"type":"VEC3"
		},
		{
			"bufferView":17,
			"componentType":5126,
			"count":96,
			"type":"VEC3"
		},
		{
			"bufferView":18,
			"componentType":5126,
			"count":96,
			"type":"VEC2"
		},
		{
			"bufferView":19,
			"componentType":5123,
			"count":144,
			"type":"SCALAR"
		},
		{
			"bufferView":20,
			"componentType":5126,
			"count":72,
			"max":[
				0.7380374073982239,
				0.590880811214447,
				1.0874040126800537
			],
			"min":[
				-1.736960530281067,
				0.002621868159621954,
				-1.7338876724243164
			],
			"type":"VEC3"
		},
		{
			"bufferView":21,
			"componentType":5126,
			"count":72,
			"type":"VEC3"
		},
		{
			"bufferView":22,
			"componentType":5126,
			"count":72,
			"type":"VEC2"
		},
		{
			"bufferView":23,
			"componentType":5123,
			"count":108,
			"type":"SCALAR"
		},
		{
			"bufferView":24,
			"componentType":5126,
			"count":24,
			"max":[
				0.7380374073982239,
				0.590880811214447,
				-0.4761064648628235
			],
			"min":[
				-0.7380374073982239,
				0.00963221862912178,
				-1.0953400135040283
			],
			"type":"VEC3"
		},
		{
			"bufferView":25,
			"componentType":5126,
			"count":24,
			"type":"VEC3"
		},
		{
			"bufferView":26,
			"componentType":5126,
			"count":24,
			"type":"VEC2"
		},
		{
			"bufferView":27,
			"componentType":5123,
			"count":36,
			"type":"SCALAR"
		},
		{
			"bufferView":28,
			"componentType":5126,
			"count":24,
			"max":[
				0.7380374073982239,
				0.590880811214447,
				0.30961674451828003
			],
			"min":[
				-0.7380374073982239,
				0.012918386608362198,
				-0.30961674451828003
			],
			"type":"VEC3"
		},
		{
			"bufferView":29,
			"componentType":5126,
			"count":24,
			"type":"VEC3"
		},
		{
			"bufferView":30,
			"componentType":5126,
			"count":24,
			"type":"VEC2"
		}
	],
	"bufferViews":[
		{
			"buffer":0,
			"byteLength":4272,
			"byteOffset":0,
			"target":34962
		},
		{
			"buffer":0,
			"byteLength":4272,
			"byteOffset":4272,
			"target":34962
		},
		{
			"buffer":0,
			"byteLength":2848,
			"byteOffset":8544,
			"target":34962
		},
		{
			"buffer":0,
			"byteLength":3072,
			"byteOffset":11392,
			"target":34963
		},
		{
			"buffer":0,
			"byteLength":9792,
			"byteOffset":14464,
			"target":34962
		},
		{
			"buffer":0,
			"byteLength":9792,
			"byteOffset":24256,
			"target":34962
		},
		{
			"buffer":0,
			"byteLength":6528,
			"byteOffset":34048,
			"target":34962
		},
		{
			"buffer":0,
			"byteLength":6144,
			"byteOffset":40576,
			"target":34963
		},
		{
			"buffer":0,
			"byteLength":26568,
			"byteOffset":46720,
			"target":34962
		},
		{
			"buffer":0,
			"byteLength":26568,
			"byteOffset":73288,
			"target":34962
		},
		{
			"buffer":0,
			"byteLength":17712,
			"byteOffset":99856,
			"target":34962
		},
		{
			"buffer":0,
			"byteLength":23808,
			"byteOffset":117568,
			"target":34963
		},
		{
			"buffer":0,
			"byteLength":10380,
			"byteOffset":141376,
			"target":34962
		},
		{
			"buffer":0,
			"byteLength":10380,
			"byteOffset":151756,
			"target":34962
		},
		{
			"buffer":0,
			"byteLength":6920,
			"byteOffset":162136,
			"target":34962
		},
		{
			"buffer":0,
			"byteLength":9984,
			"byteOffset":169056,
			"target":34963
		},
		{
			"buffer":0,
			"byteLength":1152,
			"byteOffset":179040,
			"target":34962
		},
		{
			"buffer":0,
			"byteLength":1152,
			"byteOffset":180192,
			"target":34962
		},
		{
			"buffer":0,
			"byteLength":768,
			"byteOffset":181344,
			"target":34962
		},
		{
			"buffer":0,
			"byteLength":288,
			"byteOffset":182112,
			"target":34963
		},
		{
			"buffer":0,
			"byteLength":864,
			"byteOffset":182400,
			"target":34962
		},
		{
			"buffer":0,
			"byteLength":864,
			"byteOffset":183264,
			"target":34962
		},
		{
			"buffer":0,
			"byteLength":576,
			"byteOffset":184128,
			"target":34962
		},
		{
			"buffer":0,
			"byteLength":216,
			"byteOffset":184704,
			"target":34963
		},
		{
			"buffer":0,
			"byteLength":288,
			"byteOffset":184920,
			"target":34962
		},
		{
			"buffer":0,
			"byteLength":288,
			"byteOffset":185208,
			"target":34962
		},
		{
			"buffer":0,
			"byteLength":192,
			"byteOffset":185496,
			"target":34962
		},
		{
			"buffer":0,
			"byteLength":72,
			"byteOffset":185688,
			"target":34963
		},
		{
			"buffer":0,
			"byteLength":288,
			"byteOffset":185760,
			"target":34962
		},
		{
			"buffer":0,
			"byteLength":288,
			"byteOffset":186048,
			"target":34962
		},
		{
			"buffer":0,
			"byteLength":192,
			"byteOffset":186336,
			"target":34962
		}
	],
	"samplers":[
		{
			"magFilter":9729,
			"minFilter":9987
		}
	],
	"buffers":[
		{
			"byteLength":186528,
			"uri":"Abfallentsorgungsanlage.bin"
		}
	]
}
