{
	"asset":{
		"generator":"Khronos glTF Blender I/O v4.3.47",
		"version":"2.0"
	},
	"scene":0,
	"scenes":[
		{
			"extras":{
				"bc":{
					"snap":{
						"hit":false,
						"type":"",
						"location":[
							0.0,
							0.0,
							0.0
						],
						"normal":[
							0.3221392035484314,
							0.9462804794311523,
							0.027921151369810104
						],
						"display":0
					},
					"running":0,
					"collection":null,
					"shape":null,
					"original_active":null,
					"last":{
						"surface":"VIEW"
					},
					"plane":null,
					"lattice":null,
					"empty":null,
					"location":[
						0.0,
						0.0,
						0.0
					],
					"slice":null,
					"inset":null,
					"bevel":null,
					"wedge_point":3,
					"stored_shape":{},
					"recall_collection":{},
					"start_operation":0,
					"mirror_axis":[
						1,
						1,
						0
					],
					"mirror_axis_flip":[
						0,
						0,
						0
					],
					"snap_type":"",
					"wedge_slim":1
				},
				"hops":{
					"collection":null
				},
				"GodotPipelineProps":{
					"mesh_data":0,
					"export_UI":1,
					"save_path":"//..\\..\\..\\..\\source\\repos\\Main_Game\\AstromortisRenderer\\models\\Energy_Storage.gltf",
					"counter":32
				},
				"animall_properties":{
					"key_point_location":1,
					"key_selected":0
				}
			},
			"name":"Scene",
			"nodes":[
				0,
				1
			]
		}
	],
	"nodes":[
		{
			"extras":{
				"hops":{}
			},
			"mesh":0,
			"name":"Energy_Storage"
		},
		{
			"extras":{
				"hops":{}
			},
			"mesh":1,
			"name":"Energy_Storage_Wheel",
			"translation":[
				0.7496819496154785,
				2.73576021194458,
				-2.3886752128601074
			]
		}
	],
	"animations":[
		{
			"channels":[
				{
					"sampler":0,
					"target":{
						"node":1,
						"path":"translation"
					}
				},
				{
					"sampler":1,
					"target":{
						"node":1,
						"path":"rotation"
					}
				},
				{
					"sampler":2,
					"target":{
						"node":1,
						"path":"scale"
					}
				}
			],
			"name":"Energy_Storage_Wheel_Anim",
			"samplers":[
				{
					"input":20,
					"interpolation":"STEP",
					"output":21
				},
				{
					"input":22,
					"interpolation":"LINEAR",
					"output":23
				},
				{
					"input":20,
					"interpolation":"STEP",
					"output":24
				}
			]
		}
	],
	"materials":[
		{
			"doubleSided":true,
			"name":"Energy_Storage_Main_M",
			"normalTexture":{
				"index":0
			},
			"pbrMetallicRoughness":{
				"baseColorTexture":{
					"index":1
				},
				"metallicFactor":0,
				"metallicRoughnessTexture":{
					"index":2
				}
			}
		},
		{
			"doubleSided":true,
			"name":"Energy_Storage_Chip_M",
			"normalTexture":{
				"index":3
			},
			"pbrMetallicRoughness":{
				"baseColorTexture":{
					"index":4
				},
				"metallicRoughnessTexture":{
					"index":5
				}
			}
		},
		{
			"doubleSided":true,
			"name":"Energy_Storage_M",
			"normalTexture":{
				"index":6
			},
			"pbrMetallicRoughness":{
				"baseColorTexture":{
					"index":7
				},
				"metallicRoughnessTexture":{
					"index":8
				}
			}
		},
		{
			"alphaMode":"BLEND",
			"doubleSided":true,
			"name":"Energy_Storage_Sign_M",
			"normalTexture":{
				"index":9
			},
			"pbrMetallicRoughness":{
				"baseColorTexture":{
					"index":10
				},
				"metallicRoughnessTexture":{
					"index":11
				}
			}
		}
	],
	"meshes":[
		{
			"extras":{
				"hops":{}
			},
			"name":"Energy_Storage",
			"primitives":[
				{
					"attributes":{
						"POSITION":0,
						"NORMAL":1,
						"TEXCOORD_0":2
					},
					"indices":3,
					"material":0
				},
				{
					"attributes":{
						"POSITION":4,
						"NORMAL":5,
						"TEXCOORD_0":6
					},
					"indices":7,
					"material":1
				},
				{
					"attributes":{
						"POSITION":8,
						"NORMAL":9,
						"TEXCOORD_0":10
					},
					"indices":11,
					"material":2
				},
				{
					"attributes":{
						"POSITION":12,
						"NORMAL":13,
						"TEXCOORD_0":14
					},
					"indices":15,
					"material":3
				}
			]
		},
		{
			"extras":{
				"hops":{}
			},
			"name":"Energy_Storage_Wheel",
			"primitives":[
				{
					"attributes":{
						"POSITION":16,
						"NORMAL":17,
						"TEXCOORD_0":18
					},
					"indices":19,
					"material":2
				}
			]
		}
	],
	"textures":[
		{
			"sampler":0,
			"source":0
		},
		{
			"sampler":0,
			"source":1
		},
		{
			"sampler":0,
			"source":2
		},
		{
			"sampler":0,
			"source":3
		},
		{
			"sampler":0,
			"source":4
		},
		{
			"sampler":0,
			"source":5
		},
		{
			"sampler":0,
			"source":6
		},
		{
			"sampler":0,
			"source":7
		},
		{
			"sampler":0,
			"source":8
		},
		{
			"sampler":0,
			"source":9
		},
		{
			"sampler":0,
			"source":10
		},
		{
			"sampler":0,
			"source":11
		}
	],
	"images":[
		{
			"mimeType":"image/png",
			"name":"TactilePaving004_1K-PNG_NormalGL",
			"uri":"TactilePaving004_1K-PNG_NormalGL.png"
		},
		{
			"mimeType":"image/png",
			"name":"TactilePaving004_1K-PNG_Color",
			"uri":"TactilePaving004_1K-PNG_Color.png"
		},
		{
			"mimeType":"image/png",
			"name":"TactilePaving004_1K-PNG_Roughness",
			"uri":"TactilePaving004_1K-PNG_Roughness.png"
		},
		{
			"mimeType":"image/png",
			"name":"Chip001_1K-PNG_NormalGL",
			"uri":"Chip001_1K-PNG_NormalGL.png"
		},
		{
			"mimeType":"image/png",
			"name":"Chip001_1K-PNG_Color",
			"uri":"Chip001_1K-PNG_Color.png"
		},
		{
			"mimeType":"image/png",
			"name":"Chip001_1K-PNG_Metalness.png-Chip001_1K-PNG_Roughness.png",
			"uri":"Chip001_1K-PNG_Metalness_png-Chip001_1K-PNG_Roughness_png.png"
		},
		{
			"mimeType":"image/png",
			"name":"MetalPlates017A_1K-PNG_NormalGL",
			"uri":"MetalPlates017A_1K-PNG_NormalGL.png"
		},
		{
			"mimeType":"image/png",
			"name":"MetalPlates017A_1K-PNG_Color",
			"uri":"MetalPlates017A_1K-PNG_Color.png"
		},
		{
			"mimeType":"image/png",
			"name":"MetalPlates017A_1K-PNG_Metalness.png-MetalPlates017A_1K-PNG_Roughness.png",
			"uri":"MetalPlates017A_1K-PNG_Metalness_png-MetalPlates017A_1K-PNG_Roughness_png.png"
		},
		{
			"mimeType":"image/png",
			"name":"Sign009_1K-PNG_NormalGL",
			"uri":"Sign009_1K-PNG_NormalGL.png"
		},
		{
			"mimeType":"image/png",
			"name":"Sign009_1K-PNG_Color.png-Sign009_1K-PNG_Opacity.png",
			"uri":"Sign009_1K-PNG_Color_png-Sign009_1K-PNG_Opacity_png.png"
		},
		{
			"mimeType":"image/png",
			"name":"Sign009_1K-PNG_Metalness.png-Sign009_1K-PNG_Roughness.png",
			"uri":"Sign009_1K-PNG_Metalness_png-Sign009_1K-PNG_Roughness_png.png"
		}
	],
	"accessors":[
		{
			"bufferView":0,
			"componentType":5126,
			"count":234,
			"max":[
				1.499363899230957,
				3.0027060508728027,
				3
			],
			"min":[
				-1.499363899230957,
				0,
				-3
			],
			"type":"VEC3"
		},
		{
			"bufferView":1,
			"componentType":5126,
			"count":234,
			"type":"VEC3"
		},
		{
			"bufferView":2,
			"componentType":5126,
			"count":234,
			"type":"VEC2"
		},
		{
			"bufferView":3,
			"componentType":5123,
			"count":606,
			"type":"SCALAR"
		},
		{
			"bufferView":4,
			"componentType":5126,
			"count":18,
			"max":[
				1.403875470161438,
				2.4768431186676025,
				2.7846031188964844
			],
			"min":[
				-1.403875470161438,
				0.5258627533912659,
				-2.7846031188964844
			],
			"type":"VEC3"
		},
		{
			"bufferView":5,
			"componentType":5126,
			"count":18,
			"type":"VEC3"
		},
		{
			"bufferView":6,
			"componentType":5126,
			"count":18,
			"type":"VEC2"
		},
		{
			"bufferView":7,
			"componentType":5123,
			"count":48,
			"type":"SCALAR"
		},
		{
			"bufferView":8,
			"componentType":5126,
			"count":370,
			"max":[
				1.4093191623687744,
				3.214416265487671,
				2.754757881164551
			],
			"min":[
				-1.349427580833435,
				0.15013527870178223,
				-2.882107734680176
			],
			"type":"VEC3"
		},
		{
			"bufferView":9,
			"componentType":5126,
			"count":370,
			"type":"VEC3"
		},
		{
			"bufferView":10,
			"componentType":5126,
			"count":370,
			"type":"VEC2"
		},
		{
			"bufferView":11,
			"componentType":5123,
			"count":768,
			"type":"SCALAR"
		},
		{
			"bufferView":12,
			"componentType":5126,
			"count":12,
			"max":[
				-1.4099698066711426,
				1.7445166110992432,
				-1.3436065912246704
			],
			"min":[
				-1.4099698066711426,
				0.9392102360725403,
				-2.1095492839813232
			],
			"type":"VEC3"
		},
		{
			"bufferView":13,
			"componentType":5126,
			"count":12,
			"type":"VEC3"
		},
		{
			"bufferView":14,
			"componentType":5126,
			"count":12,
			"type":"VEC2"
		},
		{
			"bufferView":15,
			"componentType":5123,
			"count":36,
			"type":"SCALAR"
		},
		{
			"bufferView":16,
			"componentType":5126,
			"count":2528,
			"max":[
				0.3386293947696686,
				1.017942190170288,
				0.28988587856292725
			],
			"min":[
				-0.29055994749069214,
				-0.2011186182498932,
				-0.38572800159454346
			],
			"type":"VEC3"
		},
		{
			"bufferView":17,
			"componentType":5126,
			"count":2528,
			"type":"VEC3"
		},
		{
			"bufferView":18,
			"componentType":5126,
			"count":2528,
			"type":"VEC2"
		},
		{
			"bufferView":19,
			"componentType":5123,
			"count":4740,
			"type":"SCALAR"
		},
		{
			"bufferView":20,
			"componentType":5126,
			"count":2,
			"max":[
				4.166666666666667
			],
			"min":[
				0.041666666666666664
			],
			"type":"SCALAR"
		},
		{
			"bufferView":21,
			"componentType":5126,
			"count":2,
			"type":"VEC3"
		},
		{
			"bufferView":22,
			"componentType":5126,
			"count":100,
			"max":[
				4.166666666666667
			],
			"min":[
				0.041666666666666664
			],
			"type":"SCALAR"
		},
		{
			"bufferView":23,
			"componentType":5126,
			"count":100,
			"type":"VEC4"
		},
		{
			"bufferView":24,
			"componentType":5126,
			"count":2,
			"type":"VEC3"
		}
	],
	"bufferViews":[
		{
			"buffer":0,
			"byteLength":2808,
			"byteOffset":0,
			"target":34962
		},
		{
			"buffer":0,
			"byteLength":2808,
			"byteOffset":2808,
			"target":34962
		},
		{
			"buffer":0,
			"byteLength":1872,
			"byteOffset":5616,
			"target":34962
		},
		{
			"buffer":0,
			"byteLength":1212,
			"byteOffset":7488,
			"target":34963
		},
		{
			"buffer":0,
			"byteLength":216,
			"byteOffset":8700,
			"target":34962
		},
		{
			"buffer":0,
			"byteLength":216,
			"byteOffset":8916,
			"target":34962
		},
		{
			"buffer":0,
			"byteLength":144,
			"byteOffset":9132,
			"target":34962
		},
		{
			"buffer":0,
			"byteLength":96,
			"byteOffset":9276,
			"target":34963
		},
		{
			"buffer":0,
			"byteLength":4440,
			"byteOffset":9372,
			"target":34962
		},
		{
			"buffer":0,
			"byteLength":4440,
			"byteOffset":13812,
			"target":34962
		},
		{
			"buffer":0,
			"byteLength":2960,
			"byteOffset":18252,
			"target":34962
		},
		{
			"buffer":0,
			"byteLength":1536,
			"byteOffset":21212,
			"target":34963
		},
		{
			"buffer":0,
			"byteLength":144,
			"byteOffset":22748,
			"target":34962
		},
		{
			"buffer":0,
			"byteLength":144,
			"byteOffset":22892,
			"target":34962
		},
		{
			"buffer":0,
			"byteLength":96,
			"byteOffset":23036,
			"target":34962
		},
		{
			"buffer":0,
			"byteLength":72,
			"byteOffset":23132,
			"target":34963
		},
		{
			"buffer":0,
			"byteLength":30336,
			"byteOffset":23204,
			"target":34962
		},
		{
			"buffer":0,
			"byteLength":30336,
			"byteOffset":53540,
			"target":34962
		},
		{
			"buffer":0,
			"byteLength":20224,
			"byteOffset":83876,
			"target":34962
		},
		{
			"buffer":0,
			"byteLength":9480,
			"byteOffset":104100,
			"target":34963
		},
		{
			"buffer":0,
			"byteLength":8,
			"byteOffset":113580
		},
		{
			"buffer":0,
			"byteLength":24,
			"byteOffset":113588
		},
		{
			"buffer":0,
			"byteLength":400,
			"byteOffset":113612
		},
		{
			"buffer":0,
			"byteLength":1600,
			"byteOffset":114012
		},
		{
			"buffer":0,
			"byteLength":24,
			"byteOffset":115612
		}
	],
	"samplers":[
		{
			"magFilter":9729,
			"minFilter":9987
		}
	],
	"buffers":[
		{
			"byteLength":115636,
			"uri":"Energy_Storage.bin"
		}
	]
}
