{
	"asset":{
		"generator":"Khronos glTF Blender I/O v4.3.47",
		"version":"2.0"
	},
	"scene":0,
	"scenes":[
		{
			"extras":{
				"bc":{
					"snap":{
						"hit":false,
						"type":"",
						"location":[
							0.0,
							0.0,
							0.0
						],
						"normal":[
							0.0,
							0.0,
							0.0
						],
						"display":0
					},
					"running":0,
					"collection":null,
					"shape":null,
					"original_active":null,
					"last":{
						"surface":"VIEW"
					},
					"plane":null,
					"lattice":null,
					"empty":null,
					"location":[
						0.0,
						0.0,
						0.0
					],
					"slice":null,
					"inset":null,
					"bevel":null,
					"wedge_point":1,
					"stored_shape":{},
					"recall_collection":{},
					"start_operation":0,
					"mirror_axis":[
						1,
						1,
						0
					],
					"mirror_axis_flip":[
						0,
						0,
						0
					],
					"snap_type":"",
					"wedge_slim":1
				},
				"hops":{
					"collection":null
				},
				"GodotPipelineProps":{
					"export_UI":1,
					"save_path":"//..\\..\\..\\..\\source\\repos\\Main_Game\\AstromortisRenderer\\models\\Forschungsanlage.gltf",
					"counter":12
				}
			},
			"name":"Scene",
			"nodes":[
				0
			]
		}
	],
	"nodes":[
		{
			"extras":{
				"hops":{}
			},
			"mesh":0,
			"name":"Forschungsanlage",
			"scale":[
				5.059999942779541,
				5.059999942779541,
				5.059999942779541
			]
		}
	],
	"materials":[
		{
			"alphaMode":"BLEND",
			"doubleSided":true,
			"name":"Forschungsanlage_Glas_M",
			"pbrMetallicRoughness":{
				"baseColorFactor":[
					0.21727809309959412,
					0.5577172636985779,
					0.8000156879425049,
					0.3252032399177551
				],
				"metallicFactor":0,
				"roughnessFactor":0.41463416814804077
			}
		},
		{
			"doubleSided":true,
			"name":"Forschungsanlage_Boden_M",
			"normalTexture":{
				"index":0
			},
			"pbrMetallicRoughness":{
				"baseColorTexture":{
					"index":1
				},
				"metallicRoughnessTexture":{
					"index":2
				}
			}
		},
		{
			"doubleSided":true,
			"name":"Forschungsanlage_Kuppelrundbogen_M",
			"pbrMetallicRoughness":{
				"baseColorFactor":[
					0.22593533992767334,
					0.22593533992767334,
					0.22593533992767334,
					1
				],
				"roughnessFactor":0.8048780560493469
			}
		},
		{
			"doubleSided":true,
			"emissiveFactor":[
				0.19999998807907104,
				0.19999998807907104,
				0.19999998807907104
			],
			"emissiveTexture":{
				"index":3
			},
			"name":"Forschungsanlage_Screens_M",
			"pbrMetallicRoughness":{
				"baseColorTexture":{
					"index":4
				},
				"metallicFactor":0,
				"roughnessFactor":0.5
			}
		},
		{
			"doubleSided":true,
			"name":"Forschungsanlage_Centraleinheit_M",
			"normalTexture":{
				"index":5
			},
			"pbrMetallicRoughness":{
				"baseColorTexture":{
					"index":6
				},
				"metallicRoughnessTexture":{
					"index":7
				}
			}
		},
		{
			"doubleSided":true,
			"name":"Forschungsanlage_Tastaturen_M",
			"pbrMetallicRoughness":{
				"baseColorTexture":{
					"index":8
				},
				"metallicFactor":0,
				"roughnessFactor":0.5
			}
		},
		{
			"doubleSided":true,
			"name":"Forschungsanlage_Tr\u00e4ger_M",
			"pbrMetallicRoughness":{
				"baseColorFactor":[
					0,
					0,
					0,
					1
				]
			}
		}
	],
	"meshes":[
		{
			"extras":{
				"hops":{}
			},
			"name":"Froschungsanlage",
			"primitives":[
				{
					"attributes":{
						"POSITION":0,
						"NORMAL":1,
						"TEXCOORD_0":2
					},
					"indices":3,
					"material":0
				},
				{
					"attributes":{
						"POSITION":4,
						"NORMAL":5,
						"TEXCOORD_0":6
					},
					"indices":7,
					"material":1
				},
				{
					"attributes":{
						"POSITION":8,
						"NORMAL":9,
						"TEXCOORD_0":10
					},
					"indices":11,
					"material":2
				},
				{
					"attributes":{
						"POSITION":12,
						"NORMAL":13,
						"TEXCOORD_0":14
					},
					"indices":15,
					"material":3
				},
				{
					"attributes":{
						"POSITION":16,
						"NORMAL":17,
						"TEXCOORD_0":18
					},
					"indices":19,
					"material":4
				},
				{
					"attributes":{
						"POSITION":20,
						"NORMAL":21,
						"TEXCOORD_0":22
					},
					"indices":23,
					"material":5
				},
				{
					"attributes":{
						"POSITION":24,
						"NORMAL":25,
						"TEXCOORD_0":26
					},
					"indices":27,
					"material":6
				}
			]
		}
	],
	"textures":[
		{
			"sampler":0,
			"source":0
		},
		{
			"sampler":0,
			"source":1
		},
		{
			"sampler":0,
			"source":2
		},
		{
			"sampler":0,
			"source":3
		},
		{
			"sampler":0,
			"source":4
		},
		{
			"sampler":0,
			"source":5
		},
		{
			"sampler":0,
			"source":6
		},
		{
			"sampler":0,
			"source":7
		},
		{
			"sampler":0,
			"source":8
		}
	],
	"images":[
		{
			"mimeType":"image/png",
			"name":"MetalPlates017A_1K-PNG_NormalGL",
			"uri":"MetalPlates017A_1K-PNG_NormalGL.png"
		},
		{
			"mimeType":"image/png",
			"name":"MetalPlates017A_1K-PNG_Color",
			"uri":"MetalPlates017A_1K-PNG_Color.png"
		},
		{
			"mimeType":"image/png",
			"name":"MetalPlates017A_1K-PNG_Metalness-MetalPlates017A_1K-PNG_Roughness",
			"uri":"MetalPlates017A_1K-PNG_Metalness-MetalPlates017A_1K-PNG_Roughness.png"
		},
		{
			"mimeType":"image/png",
			"name":"Futuristic Digital Screens Displaying Advanced Data Center Aesthetic",
			"uri":"Futuristic%20Digital%20Screens%20Displaying%20Advanced%20Data%20Center%20Aesthetic.png"
		},
		{
			"mimeType":"image/png",
			"name":"Screens512",
			"uri":"Screens512.png"
		},
		{
			"mimeType":"image/png",
			"name":"MetalPlates004_1K-PNG_NormalGL",
			"uri":"MetalPlates004_1K-PNG_NormalGL.png"
		},
		{
			"mimeType":"image/png",
			"name":"MetalPlates004_1K-PNG_Color",
			"uri":"MetalPlates004_1K-PNG_Color.png"
		},
		{
			"mimeType":"image/png",
			"name":"MetalPlates004_1K-PNG_Metalness-MetalPlates004_1K-PNG_Roughness",
			"uri":"MetalPlates004_1K-PNG_Metalness-MetalPlates004_1K-PNG_Roughness.png"
		},
		{
			"mimeType":"image/png",
			"name":"Tastaturen",
			"uri":"Tastaturen.png"
		}
	],
	"accessors":[
		{
			"bufferView":0,
			"componentType":5126,
			"count":2461,
			"max":[
				2.034801721572876,
				2.092433214187622,
				2.034801721572876
			],
			"min":[
				-2.034801483154297,
				0.12551653385162354,
				-2.034801959991455
			],
			"type":"VEC3"
		},
		{
			"bufferView":1,
			"componentType":5126,
			"count":2461,
			"type":"VEC3"
		},
		{
			"bufferView":2,
			"componentType":5126,
			"count":2461,
			"type":"VEC2"
		},
		{
			"bufferView":3,
			"componentType":5123,
			"count":13440,
			"type":"SCALAR"
		},
		{
			"bufferView":4,
			"componentType":5126,
			"count":865,
			"max":[
				1.9780291318893433,
				0.0003542490303516388,
				1.9780290126800537
			],
			"min":[
				-1.9780291318893433,
				-0.00024831295013427734,
				-1.9780291318893433
			],
			"type":"VEC3"
		},
		{
			"bufferView":5,
			"componentType":5126,
			"count":865,
			"type":"VEC3"
		},
		{
			"bufferView":6,
			"componentType":5126,
			"count":865,
			"type":"VEC2"
		},
		{
			"bufferView":7,
			"componentType":5123,
			"count":4992,
			"type":"SCALAR"
		},
		{
			"bufferView":8,
			"componentType":5126,
			"count":748,
			"max":[
				2.0431132316589355,
				0.12551656365394592,
				2.0431129932403564
			],
			"min":[
				-2.0431129932403564,
				7.553771138191223e-05,
				-2.0431132316589355
			],
			"type":"VEC3"
		},
		{
			"bufferView":9,
			"componentType":5126,
			"count":748,
			"type":"VEC3"
		},
		{
			"bufferView":10,
			"componentType":5126,
			"count":748,
			"type":"VEC2"
		},
		{
			"bufferView":11,
			"componentType":5123,
			"count":3072,
			"type":"SCALAR"
		},
		{
			"bufferView":12,
			"componentType":5126,
			"count":144,
			"max":[
				1.1080000400543213,
				1.0460907220840454,
				1.6021274328231812
			],
			"min":[
				-1.6366639137268066,
				0.014999985694885254,
				-1.6021274328231812
			],
			"type":"VEC3"
		},
		{
			"bufferView":13,
			"componentType":5126,
			"count":144,
			"type":"VEC3"
		},
		{
			"bufferView":14,
			"componentType":5126,
			"count":144,
			"type":"VEC2"
		},
		{
			"bufferView":15,
			"componentType":5123,
			"count":216,
			"type":"SCALAR"
		},
		{
			"bufferView":16,
			"componentType":5126,
			"count":1472,
			"max":[
				1.119999885559082,
				0.5988317728042603,
				1.6673349142074585
			],
			"min":[
				-1.7000000476837158,
				0,
				-1.6673349142074585
			],
			"type":"VEC3"
		},
		{
			"bufferView":17,
			"componentType":5126,
			"count":1472,
			"type":"VEC3"
		},
		{
			"bufferView":18,
			"componentType":5126,
			"count":1472,
			"type":"VEC2"
		},
		{
			"bufferView":19,
			"componentType":5123,
			"count":2604,
			"type":"SCALAR"
		},
		{
			"bufferView":20,
			"componentType":5126,
			"count":56,
			"max":[
				-0.3104340732097626,
				0.2040632963180542,
				1.555910587310791
			],
			"min":[
				-1.5924229621887207,
				0.1866919994354248,
				-1.5607174634933472
			],
			"type":"VEC3"
		},
		{
			"bufferView":21,
			"componentType":5126,
			"count":56,
			"type":"VEC3"
		},
		{
			"bufferView":22,
			"componentType":5126,
			"count":56,
			"type":"VEC2"
		},
		{
			"bufferView":23,
			"componentType":5123,
			"count":84,
			"type":"SCALAR"
		},
		{
			"bufferView":24,
			"componentType":5126,
			"count":704,
			"max":[
				-0.32587993144989014,
				1.0460907220840454,
				1.7885115146636963
			],
			"min":[
				-1.811870813369751,
				0.8978392481803894,
				-1.7885117530822754
			],
			"type":"VEC3"
		},
		{
			"bufferView":25,
			"componentType":5126,
			"count":704,
			"type":"VEC3"
		},
		{
			"bufferView":26,
			"componentType":5126,
			"count":704,
			"type":"VEC2"
		},
		{
			"bufferView":27,
			"componentType":5123,
			"count":2244,
			"type":"SCALAR"
		}
	],
	"bufferViews":[
		{
			"buffer":0,
			"byteLength":29532,
			"byteOffset":0,
			"target":34962
		},
		{
			"buffer":0,
			"byteLength":29532,
			"byteOffset":29532,
			"target":34962
		},
		{
			"buffer":0,
			"byteLength":19688,
			"byteOffset":59064,
			"target":34962
		},
		{
			"buffer":0,
			"byteLength":26880,
			"byteOffset":78752,
			"target":34963
		},
		{
			"buffer":0,
			"byteLength":10380,
			"byteOffset":105632,
			"target":34962
		},
		{
			"buffer":0,
			"byteLength":10380,
			"byteOffset":116012,
			"target":34962
		},
		{
			"buffer":0,
			"byteLength":6920,
			"byteOffset":126392,
			"target":34962
		},
		{
			"buffer":0,
			"byteLength":9984,
			"byteOffset":133312,
			"target":34963
		},
		{
			"buffer":0,
			"byteLength":8976,
			"byteOffset":143296,
			"target":34962
		},
		{
			"buffer":0,
			"byteLength":8976,
			"byteOffset":152272,
			"target":34962
		},
		{
			"buffer":0,
			"byteLength":5984,
			"byteOffset":161248,
			"target":34962
		},
		{
			"buffer":0,
			"byteLength":6144,
			"byteOffset":167232,
			"target":34963
		},
		{
			"buffer":0,
			"byteLength":1728,
			"byteOffset":173376,
			"target":34962
		},
		{
			"buffer":0,
			"byteLength":1728,
			"byteOffset":175104,
			"target":34962
		},
		{
			"buffer":0,
			"byteLength":1152,
			"byteOffset":176832,
			"target":34962
		},
		{
			"buffer":0,
			"byteLength":432,
			"byteOffset":177984,
			"target":34963
		},
		{
			"buffer":0,
			"byteLength":17664,
			"byteOffset":178416,
			"target":34962
		},
		{
			"buffer":0,
			"byteLength":17664,
			"byteOffset":196080,
			"target":34962
		},
		{
			"buffer":0,
			"byteLength":11776,
			"byteOffset":213744,
			"target":34962
		},
		{
			"buffer":0,
			"byteLength":5208,
			"byteOffset":225520,
			"target":34963
		},
		{
			"buffer":0,
			"byteLength":672,
			"byteOffset":230728,
			"target":34962
		},
		{
			"buffer":0,
			"byteLength":672,
			"byteOffset":231400,
			"target":34962
		},
		{
			"buffer":0,
			"byteLength":448,
			"byteOffset":232072,
			"target":34962
		},
		{
			"buffer":0,
			"byteLength":168,
			"byteOffset":232520,
			"target":34963
		},
		{
			"buffer":0,
			"byteLength":8448,
			"byteOffset":232688,
			"target":34962
		},
		{
			"buffer":0,
			"byteLength":8448,
			"byteOffset":241136,
			"target":34962
		},
		{
			"buffer":0,
			"byteLength":5632,
			"byteOffset":249584,
			"target":34962
		},
		{
			"buffer":0,
			"byteLength":4488,
			"byteOffset":255216,
			"target":34963
		}
	],
	"samplers":[
		{
			"magFilter":9729,
			"minFilter":9987
		}
	],
	"buffers":[
		{
			"byteLength":259704,
			"uri":"Forschungsanlage.bin"
		}
	]
}
