{
	"asset":{
		"generator":"Khronos glTF Blender I/O v4.3.47",
		"version":"2.0"
	},
	"extensionsUsed":[
		"KHR_texture_transform"
	],
	"extensionsRequired":[
		"KHR_texture_transform"
	],
	"scene":0,
	"scenes":[
		{
			"extras":{
				"bc":{
					"snap":{
						"hit":false,
						"type":"",
						"location":[
							0.0,
							0.0,
							0.0
						],
						"normal":[
							-0.6736758351325989,
							0.6551207900047302,
							-0.34202003479003906
						],
						"display":0
					},
					"running":0,
					"collection":null,
					"shape":null,
					"original_active":null,
					"last":{
						"surface":"VIEW"
					},
					"plane":null,
					"lattice":null,
					"empty":null,
					"location":[
						0.0,
						0.0,
						0.0
					],
					"slice":null,
					"inset":null,
					"bevel":null,
					"wedge_point":3,
					"stored_shape":{},
					"recall_collection":{},
					"start_operation":0,
					"mirror_axis":[
						1,
						1,
						0
					],
					"mirror_axis_flip":[
						0,
						0,
						0
					],
					"snap_type":"",
					"wedge_slim":1
				},
				"hops":{
					"collection":null
				},
				"GodotPipelineProps":{
					"export_UI":1,
					"save_path":"//..\\..\\..\\..\\source\\repos\\Main_Game\\AstromortisRenderer\\models\\Main_Factory.gltf",
					"counter":94,
					"mesh_data":0
				}
			},
			"name":"Scene",
			"nodes":[
				0
			]
		}
	],
	"nodes":[
		{
			"extras":{
				"hops":{}
			},
			"mesh":0,
			"name":"Plane",
			"scale":[
				0.5,
				0.5,
				0.5
			]
		}
	],
	"materials":[
		{
			"doubleSided":true,
			"name":"Main_Factory_Beh\u00e4lter",
			"normalTexture":{
				"index":0,
				"scale":0
			},
			"pbrMetallicRoughness":{
				"baseColorTexture":{
					"index":1
				},
				"metallicRoughnessTexture":{
					"index":2
				}
			}
		},
		{
			"alphaMode":"BLEND",
			"doubleSided":true,
			"name":"Main_Factory_Beh\u00e4lter_Top",
			"normalTexture":{
				"index":3
			},
			"pbrMetallicRoughness":{
				"baseColorTexture":{
					"index":4
				},
				"metallicRoughnessTexture":{
					"index":5
				}
			}
		},
		{
			"doubleSided":true,
			"name":"Main_Factory_Asphalt",
			"normalTexture":{
				"extensions":{
					"KHR_texture_transform":{
						"offset":[
							0,
							-4
						],
						"scale":[
							5,
							5
						]
					}
				},
				"index":6
			},
			"pbrMetallicRoughness":{
				"baseColorTexture":{
					"extensions":{
						"KHR_texture_transform":{
							"offset":[
								0,
								-4
							],
							"scale":[
								5,
								5
							]
						}
					},
					"index":7
				},
				"metallicFactor":0,
				"metallicRoughnessTexture":{
					"extensions":{
						"KHR_texture_transform":{
							"offset":[
								0,
								-4
							],
							"scale":[
								5,
								5
							]
						}
					},
					"index":8
				}
			}
		},
		{
			"doubleSided":true,
			"name":"Main_Factory_3",
			"normalTexture":{
				"index":9
			},
			"pbrMetallicRoughness":{
				"baseColorTexture":{
					"index":10
				},
				"metallicRoughnessTexture":{
					"index":11
				}
			}
		},
		{
			"doubleSided":true,
			"name":"Main_Metal_M",
			"normalTexture":{
				"index":12,
				"scale":0.20000000298023224
			},
			"pbrMetallicRoughness":{
				"baseColorTexture":{
					"index":13
				},
				"metallicRoughnessTexture":{
					"index":14
				}
			}
		},
		{
			"doubleSided":true,
			"name":"Main_Factory_Outside",
			"normalTexture":{
				"index":15
			},
			"pbrMetallicRoughness":{
				"baseColorTexture":{
					"index":16
				},
				"metallicRoughnessTexture":{
					"index":17
				}
			}
		},
		{
			"doubleSided":true,
			"name":"Main_Factory_Facade",
			"normalTexture":{
				"index":18
			},
			"pbrMetallicRoughness":{
				"baseColorTexture":{
					"index":19
				},
				"metallicRoughnessTexture":{
					"index":20
				}
			}
		}
	],
	"meshes":[
		{
			"extras":{
				"hops":{},
				"use_auto_smooth":1,
				"auto_smooth_angle":1.0471975803375244
			},
			"name":"Plane",
			"primitives":[
				{
					"attributes":{
						"POSITION":0,
						"NORMAL":1,
						"TEXCOORD_0":2
					},
					"indices":3,
					"material":0
				},
				{
					"attributes":{
						"POSITION":4,
						"NORMAL":5,
						"TEXCOORD_0":6
					},
					"indices":7,
					"material":1
				},
				{
					"attributes":{
						"POSITION":8,
						"NORMAL":9,
						"TEXCOORD_0":10
					},
					"indices":11,
					"material":2
				},
				{
					"attributes":{
						"POSITION":12,
						"NORMAL":13,
						"TEXCOORD_0":14
					},
					"indices":15,
					"material":3
				},
				{
					"attributes":{
						"POSITION":16,
						"NORMAL":17,
						"TEXCOORD_0":18
					},
					"indices":19,
					"material":4
				},
				{
					"attributes":{
						"POSITION":20,
						"NORMAL":21,
						"TEXCOORD_0":22
					},
					"indices":23,
					"material":5
				},
				{
					"attributes":{
						"POSITION":24,
						"NORMAL":25,
						"TEXCOORD_0":26
					},
					"indices":27,
					"material":6
				}
			]
		}
	],
	"textures":[
		{
			"sampler":0,
			"source":0
		},
		{
			"sampler":0,
			"source":1
		},
		{
			"sampler":0,
			"source":2
		},
		{
			"sampler":0,
			"source":3
		},
		{
			"sampler":0,
			"source":4
		},
		{
			"sampler":0,
			"source":5
		},
		{
			"sampler":0,
			"source":6
		},
		{
			"sampler":0,
			"source":7
		},
		{
			"sampler":0,
			"source":8
		},
		{
			"sampler":0,
			"source":9
		},
		{
			"sampler":0,
			"source":10
		},
		{
			"sampler":0,
			"source":11
		},
		{
			"sampler":0,
			"source":12
		},
		{
			"sampler":0,
			"source":13
		},
		{
			"sampler":0,
			"source":14
		},
		{
			"sampler":0,
			"source":0
		},
		{
			"sampler":0,
			"source":1
		},
		{
			"sampler":0,
			"source":15
		},
		{
			"sampler":0,
			"source":16
		},
		{
			"sampler":0,
			"source":17
		},
		{
			"sampler":0,
			"source":18
		}
	],
	"images":[
		{
			"mimeType":"image/jpeg",
			"name":"CorrugatedSteel005_1K-JPG_NormalGL",
			"uri":"CorrugatedSteel005_1K-JPG_NormalGL.jpg"
		},
		{
			"mimeType":"image/jpeg",
			"name":"CorrugatedSteel005_1K-JPG_Color",
			"uri":"CorrugatedSteel005_1K-JPG_Color.jpg"
		},
		{
			"mimeType":"image/png",
			"name":"CorrugatedSteel005_1K-JPG_Metalness-CorrugatedSteel005_1K-JPG_Roughness",
			"uri":"CorrugatedSteel005_1K-JPG_Metalness-CorrugatedSteel005_1K-JPG_Roughness.png"
		},
		{
			"mimeType":"image/png",
			"name":"MetalWalkway011_1K-PNG_NormalGL",
			"uri":"MetalWalkway011_1K-PNG_NormalGL.png"
		},
		{
			"mimeType":"image/png",
			"name":"MetalWalkway011_1K-PNG_Color-MetalWalkway011_1K-PNG_Opacity",
			"uri":"MetalWalkway011_1K-PNG_Color-MetalWalkway011_1K-PNG_Opacity.png"
		},
		{
			"mimeType":"image/png",
			"name":"MetalWalkway011_1K-PNG_Metalness-MetalWalkway011_1K-PNG_Roughness",
			"uri":"MetalWalkway011_1K-PNG_Metalness-MetalWalkway011_1K-PNG_Roughness.png"
		},
		{
			"mimeType":"image/jpeg",
			"name":"Concrete033_1K-JPG_NormalGL",
			"uri":"Concrete033_1K-JPG_NormalGL.jpg"
		},
		{
			"mimeType":"image/jpeg",
			"name":"Concrete033_1K-JPG_Color",
			"uri":"Concrete033_1K-JPG_Color.jpg"
		},
		{
			"mimeType":"image/png",
			"name":"Concrete033_1K-JPG_Roughness",
			"uri":"Concrete033_1K-JPG_Roughness.png"
		},
		{
			"mimeType":"image/png",
			"name":"MetalPlates004_1K-PNG_NormalGL",
			"uri":"MetalPlates004_1K-PNG_NormalGL.png"
		},
		{
			"mimeType":"image/png",
			"name":"MetalPlates004_1K-PNG_Color",
			"uri":"MetalPlates004_1K-PNG_Color.png"
		},
		{
			"mimeType":"image/png",
			"name":"MetalPlates004_1K-PNG_Metalness-MetalPlates004_1K-PNG_Roughness",
			"uri":"MetalPlates004_1K-PNG_Metalness-MetalPlates004_1K-PNG_Roughness.png"
		},
		{
			"mimeType":"image/jpeg",
			"name":"Main_Bronze_Metal_Plates_M_Normal_1k",
			"uri":"Main_Bronze_Metal_Plates_M_Normal_1k.jpg"
		},
		{
			"mimeType":"image/jpeg",
			"name":"Main_Metal_Metal_Plates_M_Color1k",
			"uri":"Main_Metal_Metal_Plates_M_Color1k.jpg"
		},
		{
			"mimeType":"image/png",
			"name":"Main_Bronze_Metal_Plates_M_metalness_1k.png-Main_Bronze_Metal_Plates_M_Roughness_1k.jpg",
			"uri":"Main_Bronze_Metal_Plates_M_metalness_1k_png-Main_Bronze_Metal_Plates_M_Roughness_1k_jpg.png"
		},
		{
			"mimeType":"image/png",
			"name":"CorrugatedSteel005_1K-JPG_Metalness.jpg-CorrugatedSteel005_1K-JPG_Roughness.jpg",
			"uri":"CorrugatedSteel005_1K-JPG_Metalness_jpg-CorrugatedSteel005_1K-JPG_Roughness_jpg.png"
		},
		{
			"mimeType":"image/png",
			"name":"Facade001_1K-PNG_NormalGL",
			"uri":"Facade001_1K-PNG_NormalGL.png"
		},
		{
			"mimeType":"image/png",
			"name":"Facade001_1K-PNG_Color",
			"uri":"Facade001_1K-PNG_Color.png"
		},
		{
			"mimeType":"image/png",
			"name":"Facade001_1K-PNG_Metalness-Facade001_1K-PNG_Roughness",
			"uri":"Facade001_1K-PNG_Metalness-Facade001_1K-PNG_Roughness.png"
		}
	],
	"accessors":[
		{
			"bufferView":0,
			"componentType":5126,
			"count":475,
			"max":[
				11.599834442138672,
				16.625438690185547,
				38.400001525878906
			],
			"min":[
				-38.952022552490234,
				0.9796626567840576,
				-38.400001525878906
			],
			"type":"VEC3"
		},
		{
			"bufferView":1,
			"componentType":5126,
			"count":475,
			"type":"VEC3"
		},
		{
			"bufferView":2,
			"componentType":5126,
			"count":475,
			"type":"VEC2"
		},
		{
			"bufferView":3,
			"componentType":5123,
			"count":1032,
			"type":"SCALAR"
		},
		{
			"bufferView":4,
			"componentType":5126,
			"count":548,
			"max":[
				28.161474227905273,
				16.825439453125,
				39.242496490478516
			],
			"min":[
				-39.58026123046875,
				0.9796626567840576,
				-39.242496490478516
			],
			"type":"VEC3"
		},
		{
			"bufferView":5,
			"componentType":5126,
			"count":548,
			"type":"VEC3"
		},
		{
			"bufferView":6,
			"componentType":5126,
			"count":548,
			"type":"VEC2"
		},
		{
			"bufferView":7,
			"componentType":5123,
			"count":936,
			"type":"SCALAR"
		},
		{
			"bufferView":8,
			"componentType":5126,
			"count":52,
			"max":[
				30.0000057220459,
				1,
				40
			],
			"min":[
				-40,
				0,
				-40
			],
			"type":"VEC3"
		},
		{
			"bufferView":9,
			"componentType":5126,
			"count":52,
			"type":"VEC3"
		},
		{
			"bufferView":10,
			"componentType":5126,
			"count":52,
			"type":"VEC2"
		},
		{
			"bufferView":11,
			"componentType":5123,
			"count":96,
			"type":"SCALAR"
		},
		{
			"bufferView":12,
			"componentType":5126,
			"count":695,
			"max":[
				22.886754989624023,
				17,
				38.4002685546875
			],
			"min":[
				-38.952022552490234,
				0,
				-38.4002685546875
			],
			"type":"VEC3"
		},
		{
			"bufferView":13,
			"componentType":5126,
			"count":695,
			"type":"VEC3"
		},
		{
			"bufferView":14,
			"componentType":5126,
			"count":695,
			"type":"VEC2"
		},
		{
			"bufferView":15,
			"componentType":5123,
			"count":1824,
			"type":"SCALAR"
		},
		{
			"bufferView":16,
			"componentType":5126,
			"count":612,
			"max":[
				22.597278594970703,
				15.40365219116211,
				38.400001525878906
			],
			"min":[
				-11.599830627441406,
				0,
				-38.400001525878906
			],
			"type":"VEC3"
		},
		{
			"bufferView":17,
			"componentType":5126,
			"count":612,
			"type":"VEC3"
		},
		{
			"bufferView":18,
			"componentType":5126,
			"count":612,
			"type":"VEC2"
		},
		{
			"bufferView":19,
			"componentType":5123,
			"count":1788,
			"type":"SCALAR"
		},
		{
			"bufferView":20,
			"componentType":5126,
			"count":196,
			"max":[
				22.569555282592773,
				21,
				38.4002685546875
			],
			"min":[
				-38.952022552490234,
				0,
				-38.4002685546875
			],
			"type":"VEC3"
		},
		{
			"bufferView":21,
			"componentType":5126,
			"count":196,
			"type":"VEC3"
		},
		{
			"bufferView":22,
			"componentType":5126,
			"count":196,
			"type":"VEC2"
		},
		{
			"bufferView":23,
			"componentType":5123,
			"count":384,
			"type":"SCALAR"
		},
		{
			"bufferView":24,
			"componentType":5126,
			"count":226,
			"max":[
				22.61799430847168,
				16.97966194152832,
				38.41638946533203
			],
			"min":[
				-39.586944580078125,
				2.531090259552002,
				-38.41638946533203
			],
			"type":"VEC3"
		},
		{
			"bufferView":25,
			"componentType":5126,
			"count":226,
			"type":"VEC3"
		},
		{
			"bufferView":26,
			"componentType":5126,
			"count":226,
			"type":"VEC2"
		},
		{
			"bufferView":27,
			"componentType":5123,
			"count":360,
			"type":"SCALAR"
		}
	],
	"bufferViews":[
		{
			"buffer":0,
			"byteLength":5700,
			"byteOffset":0,
			"target":34962
		},
		{
			"buffer":0,
			"byteLength":5700,
			"byteOffset":5700,
			"target":34962
		},
		{
			"buffer":0,
			"byteLength":3800,
			"byteOffset":11400,
			"target":34962
		},
		{
			"buffer":0,
			"byteLength":2064,
			"byteOffset":15200,
			"target":34963
		},
		{
			"buffer":0,
			"byteLength":6576,
			"byteOffset":17264,
			"target":34962
		},
		{
			"buffer":0,
			"byteLength":6576,
			"byteOffset":23840,
			"target":34962
		},
		{
			"buffer":0,
			"byteLength":4384,
			"byteOffset":30416,
			"target":34962
		},
		{
			"buffer":0,
			"byteLength":1872,
			"byteOffset":34800,
			"target":34963
		},
		{
			"buffer":0,
			"byteLength":624,
			"byteOffset":36672,
			"target":34962
		},
		{
			"buffer":0,
			"byteLength":624,
			"byteOffset":37296,
			"target":34962
		},
		{
			"buffer":0,
			"byteLength":416,
			"byteOffset":37920,
			"target":34962
		},
		{
			"buffer":0,
			"byteLength":192,
			"byteOffset":38336,
			"target":34963
		},
		{
			"buffer":0,
			"byteLength":8340,
			"byteOffset":38528,
			"target":34962
		},
		{
			"buffer":0,
			"byteLength":8340,
			"byteOffset":46868,
			"target":34962
		},
		{
			"buffer":0,
			"byteLength":5560,
			"byteOffset":55208,
			"target":34962
		},
		{
			"buffer":0,
			"byteLength":3648,
			"byteOffset":60768,
			"target":34963
		},
		{
			"buffer":0,
			"byteLength":7344,
			"byteOffset":64416,
			"target":34962
		},
		{
			"buffer":0,
			"byteLength":7344,
			"byteOffset":71760,
			"target":34962
		},
		{
			"buffer":0,
			"byteLength":4896,
			"byteOffset":79104,
			"target":34962
		},
		{
			"buffer":0,
			"byteLength":3576,
			"byteOffset":84000,
			"target":34963
		},
		{
			"buffer":0,
			"byteLength":2352,
			"byteOffset":87576,
			"target":34962
		},
		{
			"buffer":0,
			"byteLength":2352,
			"byteOffset":89928,
			"target":34962
		},
		{
			"buffer":0,
			"byteLength":1568,
			"byteOffset":92280,
			"target":34962
		},
		{
			"buffer":0,
			"byteLength":768,
			"byteOffset":93848,
			"target":34963
		},
		{
			"buffer":0,
			"byteLength":2712,
			"byteOffset":94616,
			"target":34962
		},
		{
			"buffer":0,
			"byteLength":2712,
			"byteOffset":97328,
			"target":34962
		},
		{
			"buffer":0,
			"byteLength":1808,
			"byteOffset":100040,
			"target":34962
		},
		{
			"buffer":0,
			"byteLength":720,
			"byteOffset":101848,
			"target":34963
		}
	],
	"samplers":[
		{
			"magFilter":9729,
			"minFilter":9987
		}
	],
	"buffers":[
		{
			"byteLength":102568,
			"uri":"Main_Factory.bin"
		}
	]
}
