{
	"asset":{
		"generator":"Khronos glTF Blender I/O v4.3.47",
		"version":"2.0"
	},
	"scene":0,
	"scenes":[
		{
			"extras":{
				"bc":{
					"snap":{
						"hit":false,
						"type":"",
						"location":[
							0.0,
							0.0,
							0.0
						],
						"normal":[
							0.0,
							0.0,
							0.0
						],
						"display":0
					},
					"running":0,
					"collection":null,
					"shape":null,
					"original_active":null,
					"last":{
						"surface":"VIEW"
					},
					"plane":null,
					"lattice":null,
					"empty":null,
					"location":[
						0.0,
						0.0,
						0.0
					],
					"slice":null,
					"inset":null,
					"bevel":null,
					"wedge_point":1,
					"stored_shape":{},
					"recall_collection":{},
					"start_operation":0,
					"mirror_axis":[
						1,
						1,
						0
					],
					"mirror_axis_flip":[
						0,
						0,
						0
					],
					"snap_type":"",
					"wedge_slim":1
				},
				"hops":{
					"collection":null
				},
				"GodotPipelineProps":{
					"mesh_data":0,
					"export_UI":1,
					"counter":16,
					"save_path":"//..\\..\\..\\..\\source\\repos\\Main_Game\\AstromortisRenderer\\models\\Main_Satalitenstation.gltf"
				}
			},
			"name":"Scene",
			"nodes":[
				0,
				1
			]
		}
	],
	"nodes":[
		{
			"extras":{
				"hops":{
					"last_array_axis":1
				},
				"bc":{}
			},
			"mesh":0,
			"name":"Main_Satalitenstation_Top",
			"rotation":[
				0,
				-0.9848077893257141,
				0.17364813387393951,
				1.2642844922083896e-05
			],
			"scale":[
				4.680000305175781,
				4.680001258850098,
				4.680001258850098
			],
			"translation":[
				0,
				2.6736974716186523,
				0
			]
		},
		{
			"extras":{
				"hops":{
					"last_array_axis":1
				},
				"bc":{}
			},
			"mesh":1,
			"name":"Main_Satalitenstation_Base_Part",
			"rotation":[
				0,
				3.035868530787411e-06,
				0,
				1
			],
			"scale":[
				4.680000305175781,
				4.680000305175781,
				4.680000305175781
			],
			"translation":[
				0,
				-0.002427279483526945,
				0
			]
		}
	],
	"materials":[
		{
			"doubleSided":true,
			"name":"Main_Bronze_M",
			"normalTexture":{
				"index":0,
				"scale":0.20000000298023224
			},
			"pbrMetallicRoughness":{
				"baseColorTexture":{
					"index":1
				},
				"metallicRoughnessTexture":{
					"index":2
				}
			}
		},
		{
			"doubleSided":true,
			"name":"Main_Metal_M",
			"normalTexture":{
				"index":3,
				"scale":0.20000000298023224
			},
			"pbrMetallicRoughness":{
				"baseColorTexture":{
					"index":4
				},
				"metallicRoughnessTexture":{
					"index":5
				}
			}
		},
		{
			"doubleSided":true,
			"name":"Sataliten_Tech_M",
			"pbrMetallicRoughness":{
				"baseColorFactor":[
					0.24450115859508514,
					0.24450115859508514,
					0.24450115859508514,
					1
				],
				"metallicFactor":0.9674797058105469,
				"roughnessFactor":0.23577235639095306
			}
		}
	],
	"meshes":[
		{
			"extras":{
				"hops":{}
			},
			"name":"Main_Satalitenstation_Top",
			"primitives":[
				{
					"attributes":{
						"POSITION":0,
						"NORMAL":1,
						"TEXCOORD_0":2
					},
					"indices":3,
					"material":0
				},
				{
					"attributes":{
						"POSITION":4,
						"NORMAL":5,
						"TEXCOORD_0":6
					},
					"indices":7,
					"material":1
				},
				{
					"attributes":{
						"POSITION":8,
						"NORMAL":9,
						"TEXCOORD_0":10
					},
					"indices":11,
					"material":2
				}
			]
		},
		{
			"extras":{
				"hops":{}
			},
			"name":"Main_Satalitenstation_Base_Part",
			"primitives":[
				{
					"attributes":{
						"POSITION":12,
						"NORMAL":13,
						"TEXCOORD_0":14
					},
					"indices":15,
					"material":0
				},
				{
					"attributes":{
						"POSITION":16,
						"NORMAL":17,
						"TEXCOORD_0":18
					},
					"indices":19,
					"material":1
				}
			]
		}
	],
	"textures":[
		{
			"sampler":0,
			"source":0
		},
		{
			"sampler":0,
			"source":1
		},
		{
			"sampler":0,
			"source":2
		},
		{
			"sampler":0,
			"source":0
		},
		{
			"sampler":0,
			"source":3
		},
		{
			"sampler":0,
			"source":4
		}
	],
	"images":[
		{
			"mimeType":"image/jpeg",
			"name":"Main_Bronze_Metal_Plates_M_Normal_1k",
			"uri":"Main_Bronze_Metal_Plates_M_Normal_1k.jpg"
		},
		{
			"mimeType":"image/jpeg",
			"name":"Main_Bronze_Metal_Plates_M_Color_1k",
			"uri":"Main_Bronze_Metal_Plates_M_Color_1k.jpg"
		},
		{
			"mimeType":"image/png",
			"name":"Main_Bronze_Metal_Plates_M_metalness_1k-Main_Bronze_Metal_Plates_M_Roughness_1k",
			"uri":"Main_Bronze_Metal_Plates_M_metalness_1k-Main_Bronze_Metal_Plates_M_Roughness_1k.png"
		},
		{
			"mimeType":"image/jpeg",
			"name":"Main_Metal_Metal_Plates_M_Color1k",
			"uri":"Main_Metal_Metal_Plates_M_Color1k.jpg"
		},
		{
			"mimeType":"image/png",
			"name":"Main_Bronze_Metal_Plates_M_metalness_1k.png-Main_Bronze_Metal_Plates_M_Roughness_1k.jpg",
			"uri":"Main_Bronze_Metal_Plates_M_metalness_1k_png-Main_Bronze_Metal_Plates_M_Roughness_1k_jpg.png"
		}
	],
	"accessors":[
		{
			"bufferView":0,
			"componentType":5126,
			"count":9175,
			"max":[
				0.601758599281311,
				0.47792351245880127,
				0.37683334946632385
			],
			"min":[
				-0.6017459034919739,
				-0.10422702878713608,
				-1.0425342321395874
			],
			"type":"VEC3"
		},
		{
			"bufferView":1,
			"componentType":5126,
			"count":9175,
			"type":"VEC3"
		},
		{
			"bufferView":2,
			"componentType":5126,
			"count":9175,
			"type":"VEC2"
		},
		{
			"bufferView":3,
			"componentType":5123,
			"count":19104,
			"type":"SCALAR"
		},
		{
			"bufferView":4,
			"componentType":5126,
			"count":5608,
			"max":[
				0.43242698907852173,
				0.4008822441101074,
				0.38069745898246765
			],
			"min":[
				-0.43242520093917847,
				-0.04734259098768234,
				-0.8777784705162048
			],
			"type":"VEC3"
		},
		{
			"bufferView":5,
			"componentType":5126,
			"count":5608,
			"type":"VEC3"
		},
		{
			"bufferView":6,
			"componentType":5126,
			"count":5608,
			"type":"VEC2"
		},
		{
			"bufferView":7,
			"componentType":5123,
			"count":11964,
			"type":"SCALAR"
		},
		{
			"bufferView":8,
			"componentType":5126,
			"count":22,
			"max":[
				0.586539089679718,
				0.4547802209854126,
				-0.8876821398735046
			],
			"min":[
				-0.5865264534950256,
				-0.07986044138669968,
				-1.0425342321395874
			],
			"type":"VEC3"
		},
		{
			"bufferView":9,
			"componentType":5126,
			"count":22,
			"type":"VEC3"
		},
		{
			"bufferView":10,
			"componentType":5126,
			"count":22,
			"type":"VEC2"
		},
		{
			"bufferView":11,
			"componentType":5123,
			"count":36,
			"type":"SCALAR"
		},
		{
			"bufferView":12,
			"componentType":5126,
			"count":4294,
			"max":[
				0.7599996328353882,
				0.5760980248451233,
				0.7618148326873779
			],
			"min":[
				-0.7600027322769165,
				0.00043383240699768066,
				-0.7618148326873779
			],
			"type":"VEC3"
		},
		{
			"bufferView":13,
			"componentType":5126,
			"count":4294,
			"type":"VEC3"
		},
		{
			"bufferView":14,
			"componentType":5126,
			"count":4294,
			"type":"VEC2"
		},
		{
			"bufferView":15,
			"componentType":5123,
			"count":9096,
			"type":"SCALAR"
		},
		{
			"bufferView":16,
			"componentType":5126,
			"count":2888,
			"max":[
				0.7599996328353882,
				0.5760980248451233,
				0.7618148326873779
			],
			"min":[
				-0.7600027322769165,
				0.0024272799491882324,
				-0.7618148326873779
			],
			"type":"VEC3"
		},
		{
			"bufferView":17,
			"componentType":5126,
			"count":2888,
			"type":"VEC3"
		},
		{
			"bufferView":18,
			"componentType":5126,
			"count":2888,
			"type":"VEC2"
		},
		{
			"bufferView":19,
			"componentType":5123,
			"count":5922,
			"type":"SCALAR"
		}
	],
	"bufferViews":[
		{
			"buffer":0,
			"byteLength":110100,
			"byteOffset":0,
			"target":34962
		},
		{
			"buffer":0,
			"byteLength":110100,
			"byteOffset":110100,
			"target":34962
		},
		{
			"buffer":0,
			"byteLength":73400,
			"byteOffset":220200,
			"target":34962
		},
		{
			"buffer":0,
			"byteLength":38208,
			"byteOffset":293600,
			"target":34963
		},
		{
			"buffer":0,
			"byteLength":67296,
			"byteOffset":331808,
			"target":34962
		},
		{
			"buffer":0,
			"byteLength":67296,
			"byteOffset":399104,
			"target":34962
		},
		{
			"buffer":0,
			"byteLength":44864,
			"byteOffset":466400,
			"target":34962
		},
		{
			"buffer":0,
			"byteLength":23928,
			"byteOffset":511264,
			"target":34963
		},
		{
			"buffer":0,
			"byteLength":264,
			"byteOffset":535192,
			"target":34962
		},
		{
			"buffer":0,
			"byteLength":264,
			"byteOffset":535456,
			"target":34962
		},
		{
			"buffer":0,
			"byteLength":176,
			"byteOffset":535720,
			"target":34962
		},
		{
			"buffer":0,
			"byteLength":72,
			"byteOffset":535896,
			"target":34963
		},
		{
			"buffer":0,
			"byteLength":51528,
			"byteOffset":535968,
			"target":34962
		},
		{
			"buffer":0,
			"byteLength":51528,
			"byteOffset":587496,
			"target":34962
		},
		{
			"buffer":0,
			"byteLength":34352,
			"byteOffset":639024,
			"target":34962
		},
		{
			"buffer":0,
			"byteLength":18192,
			"byteOffset":673376,
			"target":34963
		},
		{
			"buffer":0,
			"byteLength":34656,
			"byteOffset":691568,
			"target":34962
		},
		{
			"buffer":0,
			"byteLength":34656,
			"byteOffset":726224,
			"target":34962
		},
		{
			"buffer":0,
			"byteLength":23104,
			"byteOffset":760880,
			"target":34962
		},
		{
			"buffer":0,
			"byteLength":11844,
			"byteOffset":783984,
			"target":34963
		}
	],
	"samplers":[
		{
			"magFilter":9729,
			"minFilter":9987
		}
	],
	"buffers":[
		{
			"byteLength":795828,
			"uri":"Main_Satalitenstation.bin"
		}
	]
}
