{
	"asset":{
		"generator":"Khronos glTF Blender I/O v4.3.47",
		"version":"2.0"
	},
	"extensionsUsed":[
		"KHR_texture_transform"
	],
	"extensionsRequired":[
		"KHR_texture_transform"
	],
	"scene":0,
	"scenes":[
		{
			"extras":{
				"bc":{
					"snap":{
						"hit":false,
						"type":"",
						"location":[
							0.0,
							0.0,
							0.0
						],
						"normal":[
							0.3221392035484314,
							0.9462804794311523,
							0.027921151369810104
						],
						"display":0
					},
					"running":0,
					"collection":null,
					"shape":null,
					"original_active":null,
					"last":{
						"surface":"VIEW"
					},
					"plane":null,
					"lattice":null,
					"empty":null,
					"location":[
						0.0,
						0.0,
						0.0
					],
					"slice":null,
					"inset":null,
					"bevel":null,
					"wedge_point":3,
					"stored_shape":{},
					"recall_collection":{},
					"start_operation":0,
					"mirror_axis":[
						1,
						1,
						0
					],
					"mirror_axis_flip":[
						0,
						0,
						0
					],
					"snap_type":"",
					"wedge_slim":1
				},
				"hops":{
					"collection":null
				},
				"GodotPipelineProps":{
					"mesh_data":0,
					"export_UI":1,
					"save_path":"//..\\..\\..\\..\\source\\repos\\Main_Game\\AstromortisRenderer\\models\\Main_Storage.gltf",
					"counter":36,
					"export_textures":1,
					"global_UI":0,
					"collision_UI":0,
					"path_UI":0
				},
				"animall_properties":{
					"key_point_location":1,
					"key_selected":0
				}
			},
			"name":"Scene",
			"nodes":[
				0
			]
		}
	],
	"nodes":[
		{
			"extras":{
				"hops":{}
			},
			"mesh":0,
			"name":"Storage_Main"
		}
	],
	"materials":[
		{
			"alphaMode":"BLEND",
			"doubleSided":true,
			"name":"Main_Storage_Grid_M",
			"normalTexture":{
				"index":0
			},
			"pbrMetallicRoughness":{
				"baseColorTexture":{
					"index":1
				},
				"metallicRoughnessTexture":{
					"index":2
				}
			}
		},
		{
			"doubleSided":true,
			"name":"Main_Storage_Shaft_M",
			"normalTexture":{
				"extensions":{
					"KHR_texture_transform":{
						"offset":[
							2,
							0
						]
					}
				},
				"index":3
			},
			"pbrMetallicRoughness":{
				"baseColorTexture":{
					"extensions":{
						"KHR_texture_transform":{
							"offset":[
								2,
								0
							]
						}
					},
					"index":4
				},
				"metallicRoughnessTexture":{
					"extensions":{
						"KHR_texture_transform":{
							"offset":[
								2,
								0
							]
						}
					},
					"index":5
				}
			}
		},
		{
			"doubleSided":true,
			"name":"Main_Storage_Asphalt_M",
			"normalTexture":{
				"extensions":{
					"KHR_texture_transform":{
						"offset":[
							0,
							-1
						],
						"scale":[
							2,
							2
						]
					}
				},
				"index":6
			},
			"pbrMetallicRoughness":{
				"baseColorTexture":{
					"extensions":{
						"KHR_texture_transform":{
							"offset":[
								0,
								-1
							],
							"scale":[
								2,
								2
							]
						}
					},
					"index":7
				},
				"metallicFactor":0,
				"metallicRoughnessTexture":{
					"extensions":{
						"KHR_texture_transform":{
							"offset":[
								0,
								-1
							],
							"scale":[
								2,
								2
							]
						}
					},
					"index":8
				}
			}
		},
		{
			"doubleSided":true,
			"name":"Main_Storage_Lift_Tower_M",
			"normalTexture":{
				"index":9
			},
			"pbrMetallicRoughness":{
				"baseColorTexture":{
					"index":10
				},
				"metallicRoughnessTexture":{
					"index":11
				}
			}
		},
		{
			"doubleSided":true,
			"name":"Main_Storage_Towerglass_M",
			"pbrMetallicRoughness":{
				"baseColorFactor":[
					0.8003311157226562,
					0.28258293867111206,
					0.01233439240604639,
					1
				],
				"metallicFactor":0.9285714030265808,
				"roughnessFactor":0.2460317313671112
			}
		},
		{
			"doubleSided":true,
			"name":"Main_Storage_Tower_M",
			"normalTexture":{
				"extensions":{
					"KHR_texture_transform":{
						"offset":[
							0,
							-9
						],
						"scale":[
							10,
							10
						]
					}
				},
				"index":12,
				"scale":0
			},
			"pbrMetallicRoughness":{
				"baseColorTexture":{
					"extensions":{
						"KHR_texture_transform":{
							"offset":[
								0,
								-9
							],
							"scale":[
								10,
								10
							]
						}
					},
					"index":13
				},
				"metallicFactor":0.880952000617981,
				"metallicRoughnessTexture":{
					"extensions":{
						"KHR_texture_transform":{
							"offset":[
								0,
								-9
							],
							"scale":[
								10,
								10
							]
						}
					},
					"index":14
				}
			}
		},
		{
			"doubleSided":true,
			"name":"Main_Storage_Container_Gr\u00fcn_M",
			"normalTexture":{
				"index":15
			},
			"pbrMetallicRoughness":{
				"baseColorTexture":{
					"index":16
				},
				"metallicRoughnessTexture":{
					"index":17
				}
			}
		},
		{
			"doubleSided":true,
			"name":"Main_Storage_Container_Rot_M",
			"normalTexture":{
				"index":18
			},
			"pbrMetallicRoughness":{
				"baseColorTexture":{
					"index":19
				},
				"metallicRoughnessTexture":{
					"index":20
				}
			}
		},
		{
			"doubleSided":true,
			"name":"Main_Storage_Container_Blau_M",
			"normalTexture":{
				"index":21
			},
			"pbrMetallicRoughness":{
				"baseColorTexture":{
					"index":22
				},
				"metallicRoughnessTexture":{
					"index":23
				}
			}
		},
		{
			"doubleSided":true,
			"name":"Main_Storage_Lamellen_Lift_M",
			"normalTexture":{
				"index":24
			},
			"pbrMetallicRoughness":{
				"baseColorTexture":{
					"index":25
				},
				"metallicRoughnessTexture":{
					"index":26
				}
			}
		}
	],
	"meshes":[
		{
			"extras":{
				"hops":{}
			},
			"name":"Storage_Main",
			"primitives":[
				{
					"attributes":{
						"POSITION":0,
						"NORMAL":1,
						"TEXCOORD_0":2
					},
					"indices":3,
					"material":0
				},
				{
					"attributes":{
						"POSITION":4,
						"NORMAL":5,
						"TEXCOORD_0":6
					},
					"indices":7,
					"material":1
				},
				{
					"attributes":{
						"POSITION":8,
						"NORMAL":9,
						"TEXCOORD_0":10
					},
					"indices":11,
					"material":2
				},
				{
					"attributes":{
						"POSITION":12,
						"NORMAL":13,
						"TEXCOORD_0":14
					},
					"indices":15,
					"material":3
				},
				{
					"attributes":{
						"POSITION":16,
						"NORMAL":17,
						"TEXCOORD_0":18
					},
					"indices":19,
					"material":4
				},
				{
					"attributes":{
						"POSITION":20,
						"NORMAL":21,
						"TEXCOORD_0":22
					},
					"indices":23,
					"material":5
				},
				{
					"attributes":{
						"POSITION":24,
						"NORMAL":25,
						"TEXCOORD_0":26
					},
					"indices":27,
					"material":6
				},
				{
					"attributes":{
						"POSITION":28,
						"NORMAL":29,
						"TEXCOORD_0":30
					},
					"indices":31,
					"material":7
				},
				{
					"attributes":{
						"POSITION":32,
						"NORMAL":33,
						"TEXCOORD_0":34
					},
					"indices":35,
					"material":8
				},
				{
					"attributes":{
						"POSITION":36,
						"NORMAL":37,
						"TEXCOORD_0":38
					},
					"indices":39,
					"material":9
				}
			]
		}
	],
	"textures":[
		{
			"sampler":0,
			"source":0
		},
		{
			"sampler":0,
			"source":1
		},
		{
			"sampler":0,
			"source":2
		},
		{
			"sampler":0,
			"source":3
		},
		{
			"sampler":0,
			"source":4
		},
		{
			"sampler":0,
			"source":5
		},
		{
			"sampler":0,
			"source":6
		},
		{
			"sampler":0,
			"source":7
		},
		{
			"sampler":0,
			"source":8
		},
		{
			"sampler":0,
			"source":9
		},
		{
			"sampler":0,
			"source":10
		},
		{
			"sampler":0,
			"source":11
		},
		{
			"sampler":0,
			"source":12
		},
		{
			"sampler":0,
			"source":13
		},
		{
			"sampler":0,
			"source":14
		},
		{
			"sampler":0,
			"source":15
		},
		{
			"sampler":0,
			"source":16
		},
		{
			"sampler":0,
			"source":17
		},
		{
			"sampler":0,
			"source":15
		},
		{
			"sampler":0,
			"source":18
		},
		{
			"sampler":0,
			"source":19
		},
		{
			"sampler":0,
			"source":15
		},
		{
			"sampler":0,
			"source":20
		},
		{
			"sampler":0,
			"source":19
		},
		{
			"sampler":0,
			"source":15
		},
		{
			"sampler":0,
			"source":21
		},
		{
			"sampler":0,
			"source":19
		}
	],
	"images":[
		{
			"mimeType":"image/png",
			"name":"Main_Storage_Grid_M_NormalGL512",
			"uri":"Main_Storage_Grid_M_NormalGL512.png"
		},
		{
			"mimeType":"image/png",
			"name":"Main_Storage_Grid_M_Color512.png-Main_Storage_Grid_M_Opacity512",
			"uri":"Main_Storage_Grid_M_Color512_png-Main_Storage_Grid_M_Opacity512.png"
		},
		{
			"mimeType":"image/png",
			"name":"Main_Storage_Grid_M_Metalness512-Main_Storage_Grid_M_Roughness512",
			"uri":"Main_Storage_Grid_M_Metalness512-Main_Storage_Grid_M_Roughness512.png"
		},
		{
			"mimeType":"image/jpeg",
			"name":"Main_Storage_Shaft_M_Normal_1k",
			"uri":"Main_Storage_Shaft_M_Normal_1k.jpg"
		},
		{
			"mimeType":"image/jpeg",
			"name":"Main_Storage_Shaft_M_Color_Bronze_1k",
			"uri":"Main_Storage_Shaft_M_Color_Bronze_1k.jpg"
		},
		{
			"mimeType":"image/png",
			"name":"Main_Storage_Shaft_M_metalness_1k-Main_Storage_Shaft_M_Roughness_1024",
			"uri":"Main_Storage_Shaft_M_metalness_1k-Main_Storage_Shaft_M_Roughness_1024.png"
		},
		{
			"mimeType":"image/jpeg",
			"name":"Concrete033_1K-JPG_NormalGL",
			"uri":"Concrete033_1K-JPG_NormalGL.jpg"
		},
		{
			"mimeType":"image/jpeg",
			"name":"Concrete033_1K-JPG_Color",
			"uri":"Concrete033_1K-JPG_Color.jpg"
		},
		{
			"mimeType":"image/png",
			"name":"Concrete033_1K-JPG_Roughness",
			"uri":"Concrete033_1K-JPG_Roughness.png"
		},
		{
			"mimeType":"image/png",
			"name":"MetalPlates003_1K-PNG_NormalGL512",
			"uri":"MetalPlates003_1K-PNG_NormalGL512.png"
		},
		{
			"mimeType":"image/png",
			"name":"MetalPlates003_1K-PNG_Color512",
			"uri":"MetalPlates003_1K-PNG_Color512.png"
		},
		{
			"mimeType":"image/png",
			"name":"MetalPlates003_1K-PNG_Metalness512-MetalPlates003_1K-PNG_Roughness512",
			"uri":"MetalPlates003_1K-PNG_Metalness512-MetalPlates003_1K-PNG_Roughness512.png"
		},
		{
			"mimeType":"image/png",
			"name":"Asphalt014_1K-PNG_NormalGL",
			"uri":"Asphalt014_1K-PNG_NormalGL.png"
		},
		{
			"mimeType":"image/png",
			"name":"Asphalt014_1K-PNG_Color",
			"uri":"Asphalt014_1K-PNG_Color.png"
		},
		{
			"mimeType":"image/png",
			"name":"Asphalt014_1K-PNG_Roughness",
			"uri":"Asphalt014_1K-PNG_Roughness.png"
		},
		{
			"mimeType":"image/png",
			"name":"box_profile_metal_sheet_nor_gl_2k",
			"uri":"box_profile_metal_sheet_nor_gl_2k.png"
		},
		{
			"mimeType":"image/png",
			"name":"box_profile_metal_sheet_diff_512(green)",
			"uri":"box_profile_metal_sheet_diff_512green.png"
		},
		{
			"mimeType":"image/png",
			"name":"box_profile_metal_sheet_metal_2k-box_profile_metal_sheet_rough_2k",
			"uri":"box_profile_metal_sheet_metal_2k-box_profile_metal_sheet_rough_2k.png"
		},
		{
			"mimeType":"image/png",
			"name":"box_profile_metal_sheet_diff_512(red)",
			"uri":"box_profile_metal_sheet_diff_512red.png"
		},
		{
			"mimeType":"image/png",
			"name":"box_profile_metal_sheet_metal_2k.png-box_profile_metal_sheet_rough_2k.png",
			"uri":"box_profile_metal_sheet_metal_2k_png-box_profile_metal_sheet_rough_2k_png.png"
		},
		{
			"mimeType":"image/png",
			"name":"box_profile_metal_sheet_diff_512(blue)",
			"uri":"box_profile_metal_sheet_diff_512blue.png"
		},
		{
			"mimeType":"image/png",
			"name":"box_profile_metal_sheet_disp_512(LammelenAlbedo)",
			"uri":"box_profile_metal_sheet_disp_512LammelenAlbedo.png"
		}
	],
	"accessors":[
		{
			"bufferView":0,
			"componentType":5126,
			"count":532,
			"max":[
				14.205147743225098,
				5.1367340087890625,
				7.391962051391602
			],
			"min":[
				-14.805148124694824,
				0.5014954805374146,
				-7.397961616516113
			],
			"type":"VEC3"
		},
		{
			"bufferView":1,
			"componentType":5126,
			"count":532,
			"type":"VEC3"
		},
		{
			"bufferView":2,
			"componentType":5126,
			"count":532,
			"type":"VEC2"
		},
		{
			"bufferView":3,
			"componentType":5123,
			"count":1020,
			"type":"SCALAR"
		},
		{
			"bufferView":4,
			"componentType":5126,
			"count":84,
			"max":[
				9.464105606079102,
				1.002941608428955,
				0.8870543241500854
			],
			"min":[
				-14.805148124694824,
				0.5029416084289551,
				-0.8930541276931763
			],
			"type":"VEC3"
		},
		{
			"bufferView":5,
			"componentType":5126,
			"count":84,
			"type":"VEC3"
		},
		{
			"bufferView":6,
			"componentType":5126,
			"count":84,
			"type":"VEC2"
		},
		{
			"bufferView":7,
			"componentType":5123,
			"count":222,
			"type":"SCALAR"
		},
		{
			"bufferView":8,
			"componentType":5126,
			"count":290,
			"max":[
				14.205147743225098,
				1.002941608428955,
				7.5970001220703125
			],
			"min":[
				-14.805148124694824,
				0,
				-7.602999687194824
			],
			"type":"VEC3"
		},
		{
			"bufferView":9,
			"componentType":5126,
			"count":290,
			"type":"VEC3"
		},
		{
			"bufferView":10,
			"componentType":5126,
			"count":290,
			"type":"VEC2"
		},
		{
			"bufferView":11,
			"componentType":5123,
			"count":744,
			"type":"SCALAR"
		},
		{
			"bufferView":12,
			"componentType":5126,
			"count":2224,
			"max":[
				14.199999809265137,
				6.900000095367432,
				5.310333251953125
			],
			"min":[
				1.5500000715255737,
				-3.1097252368927,
				-5.249666690826416
			],
			"type":"VEC3"
		},
		{
			"bufferView":13,
			"componentType":5126,
			"count":2224,
			"type":"VEC3"
		},
		{
			"bufferView":14,
			"componentType":5126,
			"count":2224,
			"type":"VEC2"
		},
		{
			"bufferView":15,
			"componentType":5123,
			"count":4464,
			"type":"SCALAR"
		},
		{
			"bufferView":16,
			"componentType":5126,
			"count":8,
			"max":[
				10.477593421936035,
				6.745947360992432,
				2.316333532333374
			],
			"min":[
				8.853094100952148,
				3.2261970043182373,
				-2.255666971206665
			],
			"type":"VEC3"
		},
		{
			"bufferView":17,
			"componentType":5126,
			"count":8,
			"type":"VEC3"
		},
		{
			"bufferView":18,
			"componentType":5126,
			"count":8,
			"type":"VEC2"
		},
		{
			"bufferView":19,
			"componentType":5123,
			"count":12,
			"type":"SCALAR"
		},
		{
			"bufferView":20,
			"componentType":5126,
			"count":374,
			"max":[
				14.199999809265137,
				6.900000095367432,
				5.310333251953125
			],
			"min":[
				2.0270285606384277,
				0.5,
				-5.249666690826416
			],
			"type":"VEC3"
		},
		{
			"bufferView":21,
			"componentType":5126,
			"count":374,
			"type":"VEC3"
		},
		{
			"bufferView":22,
			"componentType":5126,
			"count":374,
			"type":"VEC2"
		},
		{
			"bufferView":23,
			"componentType":5123,
			"count":624,
			"type":"SCALAR"
		},
		{
			"bufferView":24,
			"componentType":5126,
			"count":264,
			"max":[
				8.405001640319824,
				7.136455059051514,
				6.899999618530273
			],
			"min":[
				-6.295000076293945,
				1.0064548254013062,
				-7
			],
			"type":"VEC3"
		},
		{
			"bufferView":25,
			"componentType":5126,
			"count":264,
			"type":"VEC3"
		},
		{
			"bufferView":26,
			"componentType":5126,
			"count":264,
			"type":"VEC2"
		},
		{
			"bufferView":27,
			"componentType":5123,
			"count":396,
			"type":"SCALAR"
		},
		{
			"bufferView":28,
			"componentType":5126,
			"count":504,
			"max":[
				6.305001258850098,
				7.136455059051514,
				6.899999618530273
			],
			"min":[
				-8.395000457763672,
				1.0064548254013062,
				-6.900000095367432
			],
			"type":"VEC3"
		},
		{
			"bufferView":29,
			"componentType":5126,
			"count":504,
			"type":"VEC3"
		},
		{
			"bufferView":30,
			"componentType":5126,
			"count":504,
			"type":"VEC2"
		},
		{
			"bufferView":31,
			"componentType":5123,
			"count":756,
			"type":"SCALAR"
		},
		{
			"bufferView":32,
			"componentType":5126,
			"count":360,
			"max":[
				8.404999732971191,
				7.136455059051514,
				6.899999618530273
			],
			"min":[
				-12.699999809265137,
				1,
				-6.900000095367432
			],
			"type":"VEC3"
		},
		{
			"bufferView":33,
			"componentType":5126,
			"count":360,
			"type":"VEC3"
		},
		{
			"bufferView":34,
			"componentType":5126,
			"count":360,
			"type":"VEC2"
		},
		{
			"bufferView":35,
			"componentType":5123,
			"count":540,
			"type":"SCALAR"
		},
		{
			"bufferView":36,
			"componentType":5126,
			"count":80,
			"max":[
				4.688371658325195,
				1.8627395629882812,
				1.0000005960464478
			],
			"min":[
				1.6998698711395264,
				1.60017728805542,
				-0.9999907612800598
			],
			"type":"VEC3"
		},
		{
			"bufferView":37,
			"componentType":5126,
			"count":80,
			"type":"VEC3"
		},
		{
			"bufferView":38,
			"componentType":5126,
			"count":80,
			"type":"VEC2"
		},
		{
			"bufferView":39,
			"componentType":5123,
			"count":120,
			"type":"SCALAR"
		}
	],
	"bufferViews":[
		{
			"buffer":0,
			"byteLength":6384,
			"byteOffset":0,
			"target":34962
		},
		{
			"buffer":0,
			"byteLength":6384,
			"byteOffset":6384,
			"target":34962
		},
		{
			"buffer":0,
			"byteLength":4256,
			"byteOffset":12768,
			"target":34962
		},
		{
			"buffer":0,
			"byteLength":2040,
			"byteOffset":17024,
			"target":34963
		},
		{
			"buffer":0,
			"byteLength":1008,
			"byteOffset":19064,
			"target":34962
		},
		{
			"buffer":0,
			"byteLength":1008,
			"byteOffset":20072,
			"target":34962
		},
		{
			"buffer":0,
			"byteLength":672,
			"byteOffset":21080,
			"target":34962
		},
		{
			"buffer":0,
			"byteLength":444,
			"byteOffset":21752,
			"target":34963
		},
		{
			"buffer":0,
			"byteLength":3480,
			"byteOffset":22196,
			"target":34962
		},
		{
			"buffer":0,
			"byteLength":3480,
			"byteOffset":25676,
			"target":34962
		},
		{
			"buffer":0,
			"byteLength":2320,
			"byteOffset":29156,
			"target":34962
		},
		{
			"buffer":0,
			"byteLength":1488,
			"byteOffset":31476,
			"target":34963
		},
		{
			"buffer":0,
			"byteLength":26688,
			"byteOffset":32964,
			"target":34962
		},
		{
			"buffer":0,
			"byteLength":26688,
			"byteOffset":59652,
			"target":34962
		},
		{
			"buffer":0,
			"byteLength":17792,
			"byteOffset":86340,
			"target":34962
		},
		{
			"buffer":0,
			"byteLength":8928,
			"byteOffset":104132,
			"target":34963
		},
		{
			"buffer":0,
			"byteLength":96,
			"byteOffset":113060,
			"target":34962
		},
		{
			"buffer":0,
			"byteLength":96,
			"byteOffset":113156,
			"target":34962
		},
		{
			"buffer":0,
			"byteLength":64,
			"byteOffset":113252,
			"target":34962
		},
		{
			"buffer":0,
			"byteLength":24,
			"byteOffset":113316,
			"target":34963
		},
		{
			"buffer":0,
			"byteLength":4488,
			"byteOffset":113340,
			"target":34962
		},
		{
			"buffer":0,
			"byteLength":4488,
			"byteOffset":117828,
			"target":34962
		},
		{
			"buffer":0,
			"byteLength":2992,
			"byteOffset":122316,
			"target":34962
		},
		{
			"buffer":0,
			"byteLength":1248,
			"byteOffset":125308,
			"target":34963
		},
		{
			"buffer":0,
			"byteLength":3168,
			"byteOffset":126556,
			"target":34962
		},
		{
			"buffer":0,
			"byteLength":3168,
			"byteOffset":129724,
			"target":34962
		},
		{
			"buffer":0,
			"byteLength":2112,
			"byteOffset":132892,
			"target":34962
		},
		{
			"buffer":0,
			"byteLength":792,
			"byteOffset":135004,
			"target":34963
		},
		{
			"buffer":0,
			"byteLength":6048,
			"byteOffset":135796,
			"target":34962
		},
		{
			"buffer":0,
			"byteLength":6048,
			"byteOffset":141844,
			"target":34962
		},
		{
			"buffer":0,
			"byteLength":4032,
			"byteOffset":147892,
			"target":34962
		},
		{
			"buffer":0,
			"byteLength":1512,
			"byteOffset":151924,
			"target":34963
		},
		{
			"buffer":0,
			"byteLength":4320,
			"byteOffset":153436,
			"target":34962
		},
		{
			"buffer":0,
			"byteLength":4320,
			"byteOffset":157756,
			"target":34962
		},
		{
			"buffer":0,
			"byteLength":2880,
			"byteOffset":162076,
			"target":34962
		},
		{
			"buffer":0,
			"byteLength":1080,
			"byteOffset":164956,
			"target":34963
		},
		{
			"buffer":0,
			"byteLength":960,
			"byteOffset":166036,
			"target":34962
		},
		{
			"buffer":0,
			"byteLength":960,
			"byteOffset":166996,
			"target":34962
		},
		{
			"buffer":0,
			"byteLength":640,
			"byteOffset":167956,
			"target":34962
		},
		{
			"buffer":0,
			"byteLength":240,
			"byteOffset":168596,
			"target":34963
		}
	],
	"samplers":[
		{
			"magFilter":9729,
			"minFilter":9987
		}
	],
	"buffers":[
		{
			"byteLength":168836,
			"uri":"Main_Storage.bin"
		}
	]
}
