{
	"asset":{
		"generator":"Khronos glTF Blender I/O v4.3.47",
		"version":"2.0"
	},
	"scene":0,
	"scenes":[
		{
			"extras":{
				"bc":{
					"snap":{
						"hit":false,
						"type":"",
						"location":[
							0.0,
							0.0,
							0.0
						],
						"normal":[
							-0.6352212429046631,
							0.7570269107818604,
							-0.15298447012901306
						],
						"display":0
					},
					"running":0,
					"collection":null,
					"shape":null,
					"original_active":null,
					"last":{
						"surface":"VIEW"
					},
					"plane":null,
					"lattice":null,
					"empty":null,
					"location":[
						0.0,
						0.0,
						0.0
					],
					"slice":null,
					"inset":null,
					"bevel":null,
					"wedge_point":1,
					"stored_shape":{},
					"recall_collection":{},
					"start_operation":0,
					"mirror_axis":[
						1,
						1,
						0
					],
					"mirror_axis_flip":[
						0,
						0,
						0
					],
					"snap_type":"",
					"wedge_slim":1
				},
				"hops":{
					"collection":null
				},
				"GodotPipelineProps":{
					"mesh_data":0,
					"export_UI":1,
					"save_path":"//..\\..\\..\\..\\source\\repos\\Main_Game\\AstromortisRenderer\\models\\Sauerstofftank_1.gltf",
					"counter":14
				}
			},
			"name":"Scene",
			"nodes":[
				0
			]
		}
	],
	"nodes":[
		{
			"extras":{
				"hops":{}
			},
			"mesh":0,
			"name":"Sauerstofftank",
			"scale":[
				1.9439998865127563,
				1.9439998865127563,
				1.9439998865127563
			]
		}
	],
	"materials":[
		{
			"doubleSided":true,
			"name":"Main_Bronze_M",
			"normalTexture":{
				"index":0,
				"scale":0.20000000298023224
			},
			"pbrMetallicRoughness":{
				"baseColorTexture":{
					"index":1
				},
				"metallicRoughnessTexture":{
					"index":2
				}
			}
		},
		{
			"doubleSided":true,
			"name":"Main_Metal_M",
			"normalTexture":{
				"index":3,
				"scale":0.20000000298023224
			},
			"pbrMetallicRoughness":{
				"baseColorTexture":{
					"index":4
				},
				"metallicRoughnessTexture":{
					"index":5
				}
			}
		}
	],
	"meshes":[
		{
			"extras":{
				"hops":{},
				"use_auto_smooth":1,
				"auto_smooth_angle":1.0471975803375244
			},
			"name":"Sauerstofftank",
			"primitives":[
				{
					"attributes":{
						"POSITION":0,
						"NORMAL":1,
						"TEXCOORD_0":2
					},
					"indices":3,
					"material":0
				},
				{
					"attributes":{
						"POSITION":4,
						"NORMAL":5,
						"TEXCOORD_0":6
					},
					"indices":7,
					"material":1
				}
			]
		}
	],
	"textures":[
		{
			"sampler":0,
			"source":0
		},
		{
			"sampler":0,
			"source":1
		},
		{
			"sampler":0,
			"source":2
		},
		{
			"sampler":0,
			"source":0
		},
		{
			"sampler":0,
			"source":3
		},
		{
			"sampler":0,
			"source":4
		}
	],
	"images":[
		{
			"mimeType":"image/jpeg",
			"name":"Main_Bronze_Metal_Plates_M_Normal_1k",
			"uri":"Main_Bronze_Metal_Plates_M_Normal_1k.jpg"
		},
		{
			"mimeType":"image/jpeg",
			"name":"Main_Bronze_Metal_Plates_M_Color_1k",
			"uri":"Main_Bronze_Metal_Plates_M_Color_1k.jpg"
		},
		{
			"mimeType":"image/png",
			"name":"Main_Bronze_Metal_Plates_M_metalness_1k-Main_Bronze_Metal_Plates_M_Roughness_1k",
			"uri":"Main_Bronze_Metal_Plates_M_metalness_1k-Main_Bronze_Metal_Plates_M_Roughness_1k.png"
		},
		{
			"mimeType":"image/jpeg",
			"name":"Main_Metal_Metal_Plates_M_Color1k",
			"uri":"Main_Metal_Metal_Plates_M_Color1k.jpg"
		},
		{
			"mimeType":"image/png",
			"name":"Main_Bronze_Metal_Plates_M_metalness_1k.png-Main_Bronze_Metal_Plates_M_Roughness_1k.jpg",
			"uri":"Main_Bronze_Metal_Plates_M_metalness_1k_png-Main_Bronze_Metal_Plates_M_Roughness_1k_jpg.png"
		}
	],
	"accessors":[
		{
			"bufferView":0,
			"componentType":5126,
			"count":20557,
			"max":[
				1.0819320678710938,
				2.9215340614318848,
				1.0819318294525146
			],
			"min":[
				-1.0819320678710938,
				1.1920928955078125e-07,
				-1.0819318294525146
			],
			"type":"VEC3"
		},
		{
			"bufferView":1,
			"componentType":5126,
			"count":20557,
			"type":"VEC3"
		},
		{
			"bufferView":2,
			"componentType":5126,
			"count":20557,
			"type":"VEC2"
		},
		{
			"bufferView":3,
			"componentType":5123,
			"count":45504,
			"type":"SCALAR"
		},
		{
			"bufferView":4,
			"componentType":5126,
			"count":16847,
			"max":[
				1.1410999298095703,
				3.045208215713501,
				1.1410986185073853
			],
			"min":[
				-1.1410999298095703,
				0.22475898265838623,
				-1.1410986185073853
			],
			"type":"VEC3"
		},
		{
			"bufferView":5,
			"componentType":5126,
			"count":16847,
			"type":"VEC3"
		},
		{
			"bufferView":6,
			"componentType":5126,
			"count":16847,
			"type":"VEC2"
		},
		{
			"bufferView":7,
			"componentType":5123,
			"count":35400,
			"type":"SCALAR"
		}
	],
	"bufferViews":[
		{
			"buffer":0,
			"byteLength":246684,
			"byteOffset":0,
			"target":34962
		},
		{
			"buffer":0,
			"byteLength":246684,
			"byteOffset":246684,
			"target":34962
		},
		{
			"buffer":0,
			"byteLength":164456,
			"byteOffset":493368,
			"target":34962
		},
		{
			"buffer":0,
			"byteLength":91008,
			"byteOffset":657824,
			"target":34963
		},
		{
			"buffer":0,
			"byteLength":202164,
			"byteOffset":748832,
			"target":34962
		},
		{
			"buffer":0,
			"byteLength":202164,
			"byteOffset":950996,
			"target":34962
		},
		{
			"buffer":0,
			"byteLength":134776,
			"byteOffset":1153160,
			"target":34962
		},
		{
			"buffer":0,
			"byteLength":70800,
			"byteOffset":1287936,
			"target":34963
		}
	],
	"samplers":[
		{
			"magFilter":9729,
			"minFilter":9987
		}
	],
	"buffers":[
		{
			"byteLength":1358736,
			"uri":"Sauerstofftank_1.bin"
		}
	]
}
