{
	"asset":{
		"generator":"Khronos glTF Blender I/O v4.3.47",
		"version":"2.0"
	},
	"scene":0,
	"scenes":[
		{
			"extras":{
				"bc":{
					"snap":{
						"hit":false,
						"type":"",
						"location":[
							0.0,
							0.0,
							0.0
						],
						"normal":[
							0.3221392035484314,
							0.9462804794311523,
							0.027921151369810104
						],
						"display":0
					},
					"running":0,
					"collection":null,
					"shape":null,
					"original_active":null,
					"last":{
						"surface":"VIEW"
					},
					"plane":null,
					"lattice":null,
					"empty":null,
					"location":[
						0.0,
						0.0,
						0.0
					],
					"slice":null,
					"inset":null,
					"bevel":null,
					"wedge_point":3,
					"stored_shape":{},
					"recall_collection":{},
					"start_operation":0,
					"mirror_axis":[
						1,
						1,
						0
					],
					"mirror_axis_flip":[
						0,
						0,
						0
					],
					"snap_type":"",
					"wedge_slim":1
				},
				"hops":{
					"collection":null
				},
				"GodotPipelineProps":{
					"mesh_data":0,
					"export_UI":1,
					"save_path":"//..\\..\\..\\..\\source\\repos\\Main_Game\\AstromortisRenderer\\models\\Solar_Panel.gltf",
					"counter":21
				},
				"animall_properties":{
					"key_point_location":1,
					"key_selected":0
				}
			},
			"name":"Scene",
			"nodes":[
				0
			]
		}
	],
	"nodes":[
		{
			"extras":{
				"hops":{}
			},
			"mesh":0,
			"name":"Solar_Pan_01"
		}
	],
	"materials":[
		{
			"doubleSided":true,
			"name":"Solar_Pan_Standing_M",
			"normalTexture":{
				"index":0,
				"scale":0
			},
			"pbrMetallicRoughness":{
				"baseColorTexture":{
					"index":1
				},
				"metallicFactor":0.880952000617981,
				"metallicRoughnessTexture":{
					"index":2
				}
			}
		},
		{
			"doubleSided":true,
			"name":"Solar_Pannel_M",
			"normalTexture":{
				"index":3
			},
			"pbrMetallicRoughness":{
				"baseColorTexture":{
					"index":4
				},
				"metallicRoughnessTexture":{
					"index":5
				},
				"roughnessFactor":0.23181816935539246
			}
		}
	],
	"meshes":[
		{
			"extras":{
				"hops":{}
			},
			"name":"Solar_Pan_01",
			"primitives":[
				{
					"attributes":{
						"POSITION":0,
						"NORMAL":1,
						"TEXCOORD_0":2
					},
					"indices":3,
					"material":0
				},
				{
					"attributes":{
						"POSITION":4,
						"NORMAL":5,
						"TEXCOORD_0":6
					},
					"indices":7,
					"material":1
				}
			]
		}
	],
	"textures":[
		{
			"sampler":0,
			"source":0
		},
		{
			"sampler":0,
			"source":1
		},
		{
			"sampler":0,
			"source":2
		},
		{
			"sampler":0,
			"source":3
		},
		{
			"sampler":0,
			"source":4
		},
		{
			"sampler":0,
			"source":5
		}
	],
	"images":[
		{
			"mimeType":"image/png",
			"name":"Asphalt014_1K-PNG_NormalGL",
			"uri":"Asphalt014_1K-PNG_NormalGL.png"
		},
		{
			"mimeType":"image/png",
			"name":"Asphalt014_1K-PNG_Color",
			"uri":"Asphalt014_1K-PNG_Color.png"
		},
		{
			"mimeType":"image/png",
			"name":"Asphalt014_1K-PNG_Roughness",
			"uri":"Asphalt014_1K-PNG_Roughness.png"
		},
		{
			"mimeType":"image/png",
			"name":"SolarPanel003_1K-PNG_NormalGL",
			"uri":"SolarPanel003_1K-PNG_NormalGL.png"
		},
		{
			"mimeType":"image/png",
			"name":"SolarPanel003_1K-PNG_Color",
			"uri":"SolarPanel003_1K-PNG_Color.png"
		},
		{
			"mimeType":"image/png",
			"name":"SolarPanel003_1K-PNG_Metalness",
			"uri":"SolarPanel003_1K-PNG_Metalness.png"
		}
	],
	"accessors":[
		{
			"bufferView":0,
			"componentType":5126,
			"count":176,
			"max":[
				2.0100157260894775,
				1.9995613098144531,
				1
			],
			"min":[
				-2.0100157260894775,
				0,
				-1
			],
			"type":"VEC3"
		},
		{
			"bufferView":1,
			"componentType":5126,
			"count":176,
			"type":"VEC3"
		},
		{
			"bufferView":2,
			"componentType":5126,
			"count":176,
			"type":"VEC2"
		},
		{
			"bufferView":3,
			"componentType":5123,
			"count":390,
			"type":"SCALAR"
		},
		{
			"bufferView":4,
			"componentType":5126,
			"count":4,
			"max":[
				2,
				1.992462158203125,
				0.692462146282196
			],
			"min":[
				-2,
				0.5782486200332642,
				-0.7217513918876648
			],
			"type":"VEC3"
		},
		{
			"bufferView":5,
			"componentType":5126,
			"count":4,
			"type":"VEC3"
		},
		{
			"bufferView":6,
			"componentType":5126,
			"count":4,
			"type":"VEC2"
		},
		{
			"bufferView":7,
			"componentType":5123,
			"count":6,
			"type":"SCALAR"
		}
	],
	"bufferViews":[
		{
			"buffer":0,
			"byteLength":2112,
			"byteOffset":0,
			"target":34962
		},
		{
			"buffer":0,
			"byteLength":2112,
			"byteOffset":2112,
			"target":34962
		},
		{
			"buffer":0,
			"byteLength":1408,
			"byteOffset":4224,
			"target":34962
		},
		{
			"buffer":0,
			"byteLength":780,
			"byteOffset":5632,
			"target":34963
		},
		{
			"buffer":0,
			"byteLength":48,
			"byteOffset":6412,
			"target":34962
		},
		{
			"buffer":0,
			"byteLength":48,
			"byteOffset":6460,
			"target":34962
		},
		{
			"buffer":0,
			"byteLength":32,
			"byteOffset":6508,
			"target":34962
		},
		{
			"buffer":0,
			"byteLength":12,
			"byteOffset":6540,
			"target":34963
		}
	],
	"samplers":[
		{
			"magFilter":9729,
			"minFilter":9987
		}
	],
	"buffers":[
		{
			"byteLength":6552,
			"uri":"Solar_Panel.bin"
		}
	]
}
