{
	"asset":{
		"generator":"Khronos glTF Blender I/O v4.3.47",
		"version":"2.0"
	},
	"scene":0,
	"scenes":[
		{
			"extras":{
				"bc":{
					"snap":{
						"hit":false,
						"type":"",
						"location":[
							0.0,
							0.0,
							0.0
						],
						"normal":[
							0.0,
							0.0,
							0.0
						],
						"display":0
					},
					"running":0,
					"collection":null,
					"shape":null,
					"original_active":null,
					"last":{
						"surface":"VIEW"
					},
					"plane":null,
					"lattice":null,
					"empty":null,
					"location":[
						0.0,
						0.0,
						0.0
					],
					"slice":null,
					"inset":null,
					"bevel":null,
					"wedge_point":2,
					"stored_shape":{},
					"recall_collection":{},
					"start_operation":0,
					"mirror_axis":[
						1,
						1,
						0
					],
					"mirror_axis_flip":[
						0,
						0,
						0
					],
					"snap_type":"",
					"wedge_slim":1
				},
				"hops":{
					"collection":null
				},
				"GodotPipelineProps":{
					"mesh_data":0,
					"export_UI":1,
					"save_path":"//..\\..\\..\\..\\source\\repos\\Main_Game\\AstromortisRenderer\\models\\Water_Factory.gltf",
					"counter":46
				}
			},
			"name":"Scene",
			"nodes":[
				0,
				1
			]
		}
	],
	"nodes":[
		{
			"extras":{
				"hops":{},
				"bc":{}
			},
			"mesh":0,
			"name":"Cube",
			"scale":[
				1.3200000524520874,
				1.3200000524520874,
				1.3200000524520874
			]
		},
		{
			"extras":{
				"hops":{}
			},
			"mesh":1,
			"name":"Cylinder",
			"scale":[
				1.3200000524520874,
				1.3200000524520874,
				1.3200000524520874
			]
		}
	],
	"materials":[
		{
			"doubleSided":true,
			"name":"Main_Bronze_M",
			"normalTexture":{
				"index":0
			},
			"pbrMetallicRoughness":{
				"baseColorTexture":{
					"index":1
				},
				"metallicRoughnessTexture":{
					"index":2
				}
			}
		},
		{
			"doubleSided":true,
			"name":"Main_Metal_M",
			"normalTexture":{
				"index":3,
				"scale":0.20000000298023224
			},
			"pbrMetallicRoughness":{
				"baseColorTexture":{
					"index":4
				},
				"metallicRoughnessTexture":{
					"index":5
				}
			}
		},
		{
			"doubleSided":true,
			"name":"Blue_Metal_Plates_M",
			"normalTexture":{
				"index":6
			},
			"pbrMetallicRoughness":{
				"baseColorTexture":{
					"index":7
				},
				"metallicFactor":0,
				"metallicRoughnessTexture":{
					"index":8
				}
			}
		}
	],
	"meshes":[
		{
			"extras":{
				"hops":{},
				"use_auto_smooth":1,
				"bc":{}
			},
			"name":"Cube",
			"primitives":[
				{
					"attributes":{
						"POSITION":0,
						"NORMAL":1,
						"TEXCOORD_0":2
					},
					"indices":3,
					"material":0
				},
				{
					"attributes":{
						"POSITION":4,
						"NORMAL":5,
						"TEXCOORD_0":6
					},
					"indices":7,
					"material":1
				},
				{
					"attributes":{
						"POSITION":8,
						"NORMAL":9,
						"TEXCOORD_0":10
					},
					"indices":11,
					"material":2
				}
			]
		},
		{
			"extras":{
				"hops":{}
			},
			"name":"Cylinder",
			"primitives":[
				{
					"attributes":{
						"POSITION":12,
						"NORMAL":13,
						"TEXCOORD_0":14
					},
					"indices":15,
					"material":0
				},
				{
					"attributes":{
						"POSITION":16,
						"NORMAL":17,
						"TEXCOORD_0":18
					},
					"indices":19,
					"material":1
				}
			]
		}
	],
	"textures":[
		{
			"sampler":0,
			"source":0
		},
		{
			"sampler":0,
			"source":1
		},
		{
			"sampler":0,
			"source":2
		},
		{
			"sampler":0,
			"source":0
		},
		{
			"sampler":0,
			"source":3
		},
		{
			"sampler":0,
			"source":4
		},
		{
			"sampler":0,
			"source":5
		},
		{
			"sampler":0,
			"source":6
		},
		{
			"sampler":0,
			"source":7
		}
	],
	"images":[
		{
			"mimeType":"image/jpeg",
			"name":"Main_Bronze_Metal_Plates_M_Normal_1k",
			"uri":"Main_Bronze_Metal_Plates_M_Normal_1k.jpg"
		},
		{
			"mimeType":"image/jpeg",
			"name":"Main_Bronze_Metal_Plates_M_Color_1k",
			"uri":"Main_Bronze_Metal_Plates_M_Color_1k.jpg"
		},
		{
			"mimeType":"image/png",
			"name":"Main_Bronze_Metal_Plates_M_metalness_1k-Main_Bronze_Metal_Plates_M_Roughness_1k",
			"uri":"Main_Bronze_Metal_Plates_M_metalness_1k-Main_Bronze_Metal_Plates_M_Roughness_1k.png"
		},
		{
			"mimeType":"image/jpeg",
			"name":"Main_Metal_Metal_Plates_M_Color1k",
			"uri":"Main_Metal_Metal_Plates_M_Color1k.jpg"
		},
		{
			"mimeType":"image/png",
			"name":"Main_Bronze_Metal_Plates_M_metalness_1k.png-Main_Bronze_Metal_Plates_M_Roughness_1k.jpg",
			"uri":"Main_Bronze_Metal_Plates_M_metalness_1k_png-Main_Bronze_Metal_Plates_M_Roughness_1k_jpg.png"
		},
		{
			"mimeType":"image/png",
			"name":"blue_metal_plate_nor_gl_1k",
			"uri":"blue_metal_plate_nor_gl_1k.png"
		},
		{
			"mimeType":"image/jpeg",
			"name":"blue_metal_plate_diff_1k",
			"uri":"blue_metal_plate_diff_1k.jpg"
		},
		{
			"mimeType":"image/png",
			"name":"blue_metal_plate_rough_1k",
			"uri":"blue_metal_plate_rough_1k.png"
		}
	],
	"accessors":[
		{
			"bufferView":0,
			"componentType":5126,
			"count":7500,
			"max":[
				4.374388694763184,
				8,
				4.182555198669434
			],
			"min":[
				-4.374388694763184,
				2.3365020751953125e-05,
				-4.182555198669434
			],
			"type":"VEC3"
		},
		{
			"bufferView":1,
			"componentType":5126,
			"count":7500,
			"type":"VEC3"
		},
		{
			"bufferView":2,
			"componentType":5126,
			"count":7500,
			"type":"VEC2"
		},
		{
			"bufferView":3,
			"componentType":5123,
			"count":18144,
			"type":"SCALAR"
		},
		{
			"bufferView":4,
			"componentType":5126,
			"count":1504,
			"max":[
				4.306528091430664,
				9.91441822052002,
				4.082427978515625
			],
			"min":[
				-4.306528091430664,
				-2.0000014305114746,
				-4.082427978515625
			],
			"type":"VEC3"
		},
		{
			"bufferView":5,
			"componentType":5126,
			"count":1504,
			"type":"VEC3"
		},
		{
			"bufferView":6,
			"componentType":5126,
			"count":1504,
			"type":"VEC2"
		},
		{
			"bufferView":7,
			"componentType":5123,
			"count":2376,
			"type":"SCALAR"
		},
		{
			"bufferView":8,
			"componentType":5126,
			"count":992,
			"max":[
				4.20643424987793,
				10,
				4.01460075378418
			],
			"min":[
				-4.20643424987793,
				6.499998092651367,
				-4.01460075378418
			],
			"type":"VEC3"
		},
		{
			"bufferView":9,
			"componentType":5126,
			"count":992,
			"type":"VEC3"
		},
		{
			"bufferView":10,
			"componentType":5126,
			"count":992,
			"type":"VEC2"
		},
		{
			"bufferView":11,
			"componentType":5123,
			"count":1632,
			"type":"SCALAR"
		},
		{
			"bufferView":12,
			"componentType":5126,
			"count":512,
			"max":[
				2.0999999046325684,
				8.999998092651367,
				2.5199999809265137
			],
			"min":[
				-2.0999999046325684,
				4.76837158203125e-07,
				-2.5199999809265137
			],
			"type":"VEC3"
		},
		{
			"bufferView":13,
			"componentType":5126,
			"count":512,
			"type":"VEC3"
		},
		{
			"bufferView":14,
			"componentType":5126,
			"count":512,
			"type":"VEC2"
		},
		{
			"bufferView":15,
			"componentType":5123,
			"count":1116,
			"type":"SCALAR"
		},
		{
			"bufferView":16,
			"componentType":5126,
			"count":76,
			"max":[
				0.409689724445343,
				8.767280578613281,
				2.4187800884246826
			],
			"min":[
				-0.40968966484069824,
				0.8550002574920654,
				-2.4187800884246826
			],
			"type":"VEC3"
		},
		{
			"bufferView":17,
			"componentType":5126,
			"count":76,
			"type":"VEC3"
		},
		{
			"bufferView":18,
			"componentType":5126,
			"count":76,
			"type":"VEC2"
		},
		{
			"bufferView":19,
			"componentType":5123,
			"count":120,
			"type":"SCALAR"
		}
	],
	"bufferViews":[
		{
			"buffer":0,
			"byteLength":90000,
			"byteOffset":0,
			"target":34962
		},
		{
			"buffer":0,
			"byteLength":90000,
			"byteOffset":90000,
			"target":34962
		},
		{
			"buffer":0,
			"byteLength":60000,
			"byteOffset":180000,
			"target":34962
		},
		{
			"buffer":0,
			"byteLength":36288,
			"byteOffset":240000,
			"target":34963
		},
		{
			"buffer":0,
			"byteLength":18048,
			"byteOffset":276288,
			"target":34962
		},
		{
			"buffer":0,
			"byteLength":18048,
			"byteOffset":294336,
			"target":34962
		},
		{
			"buffer":0,
			"byteLength":12032,
			"byteOffset":312384,
			"target":34962
		},
		{
			"buffer":0,
			"byteLength":4752,
			"byteOffset":324416,
			"target":34963
		},
		{
			"buffer":0,
			"byteLength":11904,
			"byteOffset":329168,
			"target":34962
		},
		{
			"buffer":0,
			"byteLength":11904,
			"byteOffset":341072,
			"target":34962
		},
		{
			"buffer":0,
			"byteLength":7936,
			"byteOffset":352976,
			"target":34962
		},
		{
			"buffer":0,
			"byteLength":3264,
			"byteOffset":360912,
			"target":34963
		},
		{
			"buffer":0,
			"byteLength":6144,
			"byteOffset":364176,
			"target":34962
		},
		{
			"buffer":0,
			"byteLength":6144,
			"byteOffset":370320,
			"target":34962
		},
		{
			"buffer":0,
			"byteLength":4096,
			"byteOffset":376464,
			"target":34962
		},
		{
			"buffer":0,
			"byteLength":2232,
			"byteOffset":380560,
			"target":34963
		},
		{
			"buffer":0,
			"byteLength":912,
			"byteOffset":382792,
			"target":34962
		},
		{
			"buffer":0,
			"byteLength":912,
			"byteOffset":383704,
			"target":34962
		},
		{
			"buffer":0,
			"byteLength":608,
			"byteOffset":384616,
			"target":34962
		},
		{
			"buffer":0,
			"byteLength":240,
			"byteOffset":385224,
			"target":34963
		}
	],
	"samplers":[
		{
			"magFilter":9729,
			"minFilter":9987
		}
	],
	"buffers":[
		{
			"byteLength":385464,
			"uri":"Water_Factory.bin"
		}
	]
}
